<?xml version="1.0" encoding="utf-8" standalone="no"?>
<!DOCTYPE svg PUBLIC "-//W3C//DTD SVG 1.1//EN"
  "http://www.w3.org/Graphics/SVG/1.1/DTD/svg11.dtd">
<!-- Created with matplotlib (http://matplotlib.org/) -->
<svg height="365.843625pt" version="1.1" viewBox="0 0 1182.8925 365.843625" width="1182.8925pt" xmlns="http://www.w3.org/2000/svg" xmlns:xlink="http://www.w3.org/1999/xlink">
 <defs>
  <style type="text/css">
*{stroke-linecap:butt;stroke-linejoin:round;}
  </style>
 </defs>
 <g id="figure_1">
  <g id="patch_1">
   <path d="M 0 365.843625 
L 1182.8925 365.843625 
L 1182.8925 0 
L 0 0 
z
" style="fill:#ffffff;"/>
  </g>
  <g id="axes_1">
   <g id="patch_2">
    <path d="M 56.1925 305.059875 
L 1172.1925 305.059875 
L 1172.1925 33.259875 
L 56.1925 33.259875 
z
" style="fill:#ffffff;"/>
   </g>
   <g id="patch_3">
    <path clip-path="url(#p239b914bc8)" d="M 106.919773 305.059875 
L 111.9925 305.059875 
L 111.9925 304.730959 
L 106.919773 304.730959 
z
" style="fill:#1f77b4;stroke:#000000;stroke-linejoin:miter;"/>
   </g>
   <g id="patch_4">
    <path clip-path="url(#p239b914bc8)" d="M 111.9925 305.059875 
L 117.065227 305.059875 
L 117.065227 305.059875 
L 111.9925 305.059875 
z
" style="fill:#1f77b4;stroke:#000000;stroke-linejoin:miter;"/>
   </g>
   <g id="patch_5">
    <path clip-path="url(#p239b914bc8)" d="M 117.065227 305.059875 
L 122.137955 305.059875 
L 122.137955 305.059875 
L 117.065227 305.059875 
z
" style="fill:#1f77b4;stroke:#000000;stroke-linejoin:miter;"/>
   </g>
   <g id="patch_6">
    <path clip-path="url(#p239b914bc8)" d="M 122.137955 305.059875 
L 127.210682 305.059875 
L 127.210682 304.730959 
L 122.137955 304.730959 
z
" style="fill:#1f77b4;stroke:#000000;stroke-linejoin:miter;"/>
   </g>
   <g id="patch_7">
    <path clip-path="url(#p239b914bc8)" d="M 127.210682 305.059875 
L 132.283409 305.059875 
L 132.283409 305.059875 
L 127.210682 305.059875 
z
" style="fill:#1f77b4;stroke:#000000;stroke-linejoin:miter;"/>
   </g>
   <g id="patch_8">
    <path clip-path="url(#p239b914bc8)" d="M 132.283409 305.059875 
L 137.356136 305.059875 
L 137.356136 305.059875 
L 132.283409 305.059875 
z
" style="fill:#1f77b4;stroke:#000000;stroke-linejoin:miter;"/>
   </g>
   <g id="patch_9">
    <path clip-path="url(#p239b914bc8)" d="M 137.356136 305.059875 
L 142.428864 305.059875 
L 142.428864 305.059875 
L 137.356136 305.059875 
z
" style="fill:#1f77b4;stroke:#000000;stroke-linejoin:miter;"/>
   </g>
   <g id="patch_10">
    <path clip-path="url(#p239b914bc8)" d="M 142.428864 305.059875 
L 147.501591 305.059875 
L 147.501591 305.059875 
L 142.428864 305.059875 
z
" style="fill:#1f77b4;stroke:#000000;stroke-linejoin:miter;"/>
   </g>
   <g id="patch_11">
    <path clip-path="url(#p239b914bc8)" d="M 147.501591 305.059875 
L 152.574318 305.059875 
L 152.574318 304.402042 
L 147.501591 304.402042 
z
" style="fill:#1f77b4;stroke:#000000;stroke-linejoin:miter;"/>
   </g>
   <g id="patch_12">
    <path clip-path="url(#p239b914bc8)" d="M 152.574318 305.059875 
L 157.647045 305.059875 
L 157.647045 305.059875 
L 152.574318 305.059875 
z
" style="fill:#1f77b4;stroke:#000000;stroke-linejoin:miter;"/>
   </g>
   <g id="patch_13">
    <path clip-path="url(#p239b914bc8)" d="M 157.647045 305.059875 
L 162.719773 305.059875 
L 162.719773 305.059875 
L 157.647045 305.059875 
z
" style="fill:#1f77b4;stroke:#000000;stroke-linejoin:miter;"/>
   </g>
   <g id="patch_14">
    <path clip-path="url(#p239b914bc8)" d="M 162.719773 305.059875 
L 167.7925 305.059875 
L 167.7925 305.059875 
L 162.719773 305.059875 
z
" style="fill:#1f77b4;stroke:#000000;stroke-linejoin:miter;"/>
   </g>
   <g id="patch_15">
    <path clip-path="url(#p239b914bc8)" d="M 167.7925 305.059875 
L 172.865227 305.059875 
L 172.865227 305.059875 
L 167.7925 305.059875 
z
" style="fill:#1f77b4;stroke:#000000;stroke-linejoin:miter;"/>
   </g>
   <g id="patch_16">
    <path clip-path="url(#p239b914bc8)" d="M 172.865227 305.059875 
L 177.937955 305.059875 
L 177.937955 305.059875 
L 172.865227 305.059875 
z
" style="fill:#1f77b4;stroke:#000000;stroke-linejoin:miter;"/>
   </g>
   <g id="patch_17">
    <path clip-path="url(#p239b914bc8)" d="M 177.937955 305.059875 
L 183.010682 305.059875 
L 183.010682 305.059875 
L 177.937955 305.059875 
z
" style="fill:#1f77b4;stroke:#000000;stroke-linejoin:miter;"/>
   </g>
   <g id="patch_18">
    <path clip-path="url(#p239b914bc8)" d="M 183.010682 305.059875 
L 188.083409 305.059875 
L 188.083409 305.059875 
L 183.010682 305.059875 
z
" style="fill:#1f77b4;stroke:#000000;stroke-linejoin:miter;"/>
   </g>
   <g id="patch_19">
    <path clip-path="url(#p239b914bc8)" d="M 188.083409 305.059875 
L 193.156136 305.059875 
L 193.156136 304.402042 
L 188.083409 304.402042 
z
" style="fill:#1f77b4;stroke:#000000;stroke-linejoin:miter;"/>
   </g>
   <g id="patch_20">
    <path clip-path="url(#p239b914bc8)" d="M 193.156136 305.059875 
L 198.228864 305.059875 
L 198.228864 304.730959 
L 193.156136 304.730959 
z
" style="fill:#1f77b4;stroke:#000000;stroke-linejoin:miter;"/>
   </g>
   <g id="patch_21">
    <path clip-path="url(#p239b914bc8)" d="M 198.228864 305.059875 
L 203.301591 305.059875 
L 203.301591 303.415293 
L 198.228864 303.415293 
z
" style="fill:#1f77b4;stroke:#000000;stroke-linejoin:miter;"/>
   </g>
   <g id="patch_22">
    <path clip-path="url(#p239b914bc8)" d="M 203.301591 305.059875 
L 208.374318 305.059875 
L 208.374318 305.059875 
L 203.301591 305.059875 
z
" style="fill:#1f77b4;stroke:#000000;stroke-linejoin:miter;"/>
   </g>
   <g id="patch_23">
    <path clip-path="url(#p239b914bc8)" d="M 208.374318 305.059875 
L 213.447045 305.059875 
L 213.447045 304.402042 
L 208.374318 304.402042 
z
" style="fill:#1f77b4;stroke:#000000;stroke-linejoin:miter;"/>
   </g>
   <g id="patch_24">
    <path clip-path="url(#p239b914bc8)" d="M 213.447045 305.059875 
L 218.519773 305.059875 
L 218.519773 305.059875 
L 213.447045 305.059875 
z
" style="fill:#1f77b4;stroke:#000000;stroke-linejoin:miter;"/>
   </g>
   <g id="patch_25">
    <path clip-path="url(#p239b914bc8)" d="M 218.519773 305.059875 
L 223.5925 305.059875 
L 223.5925 305.059875 
L 218.519773 305.059875 
z
" style="fill:#1f77b4;stroke:#000000;stroke-linejoin:miter;"/>
   </g>
   <g id="patch_26">
    <path clip-path="url(#p239b914bc8)" d="M 223.5925 305.059875 
L 228.665227 305.059875 
L 228.665227 304.073126 
L 223.5925 304.073126 
z
" style="fill:#1f77b4;stroke:#000000;stroke-linejoin:miter;"/>
   </g>
   <g id="patch_27">
    <path clip-path="url(#p239b914bc8)" d="M 228.665227 305.059875 
L 233.737955 305.059875 
L 233.737955 305.059875 
L 228.665227 305.059875 
z
" style="fill:#1f77b4;stroke:#000000;stroke-linejoin:miter;"/>
   </g>
   <g id="patch_28">
    <path clip-path="url(#p239b914bc8)" d="M 233.737955 305.059875 
L 238.810682 305.059875 
L 238.810682 305.059875 
L 233.737955 305.059875 
z
" style="fill:#1f77b4;stroke:#000000;stroke-linejoin:miter;"/>
   </g>
   <g id="patch_29">
    <path clip-path="url(#p239b914bc8)" d="M 238.810682 305.059875 
L 243.883409 305.059875 
L 243.883409 303.415293 
L 238.810682 303.415293 
z
" style="fill:#1f77b4;stroke:#000000;stroke-linejoin:miter;"/>
   </g>
   <g id="patch_30">
    <path clip-path="url(#p239b914bc8)" d="M 243.883409 305.059875 
L 248.956136 305.059875 
L 248.956136 305.059875 
L 243.883409 305.059875 
z
" style="fill:#1f77b4;stroke:#000000;stroke-linejoin:miter;"/>
   </g>
   <g id="patch_31">
    <path clip-path="url(#p239b914bc8)" d="M 248.956136 305.059875 
L 254.028864 305.059875 
L 254.028864 303.74421 
L 248.956136 303.74421 
z
" style="fill:#1f77b4;stroke:#000000;stroke-linejoin:miter;"/>
   </g>
   <g id="patch_32">
    <path clip-path="url(#p239b914bc8)" d="M 254.028864 305.059875 
L 259.101591 305.059875 
L 259.101591 305.059875 
L 254.028864 305.059875 
z
" style="fill:#1f77b4;stroke:#000000;stroke-linejoin:miter;"/>
   </g>
   <g id="patch_33">
    <path clip-path="url(#p239b914bc8)" d="M 259.101591 305.059875 
L 264.174318 305.059875 
L 264.174318 305.059875 
L 259.101591 305.059875 
z
" style="fill:#1f77b4;stroke:#000000;stroke-linejoin:miter;"/>
   </g>
   <g id="patch_34">
    <path clip-path="url(#p239b914bc8)" d="M 264.174318 305.059875 
L 269.247045 305.059875 
L 269.247045 304.730959 
L 264.174318 304.730959 
z
" style="fill:#1f77b4;stroke:#000000;stroke-linejoin:miter;"/>
   </g>
   <g id="patch_35">
    <path clip-path="url(#p239b914bc8)" d="M 269.247045 305.059875 
L 274.319773 305.059875 
L 274.319773 304.730959 
L 269.247045 304.730959 
z
" style="fill:#1f77b4;stroke:#000000;stroke-linejoin:miter;"/>
   </g>
   <g id="patch_36">
    <path clip-path="url(#p239b914bc8)" d="M 274.319773 305.059875 
L 279.3925 305.059875 
L 279.3925 304.730959 
L 274.319773 304.730959 
z
" style="fill:#1f77b4;stroke:#000000;stroke-linejoin:miter;"/>
   </g>
   <g id="patch_37">
    <path clip-path="url(#p239b914bc8)" d="M 279.3925 305.059875 
L 284.465227 305.059875 
L 284.465227 304.730959 
L 279.3925 304.730959 
z
" style="fill:#1f77b4;stroke:#000000;stroke-linejoin:miter;"/>
   </g>
   <g id="patch_38">
    <path clip-path="url(#p239b914bc8)" d="M 284.465227 305.059875 
L 289.537955 305.059875 
L 289.537955 304.402042 
L 284.465227 304.402042 
z
" style="fill:#1f77b4;stroke:#000000;stroke-linejoin:miter;"/>
   </g>
   <g id="patch_39">
    <path clip-path="url(#p239b914bc8)" d="M 289.537955 305.059875 
L 294.610682 305.059875 
L 294.610682 304.730959 
L 289.537955 304.730959 
z
" style="fill:#1f77b4;stroke:#000000;stroke-linejoin:miter;"/>
   </g>
   <g id="patch_40">
    <path clip-path="url(#p239b914bc8)" d="M 294.610682 305.059875 
L 299.683409 305.059875 
L 299.683409 305.059875 
L 294.610682 305.059875 
z
" style="fill:#1f77b4;stroke:#000000;stroke-linejoin:miter;"/>
   </g>
   <g id="patch_41">
    <path clip-path="url(#p239b914bc8)" d="M 299.683409 305.059875 
L 304.756136 305.059875 
L 304.756136 302.099628 
L 299.683409 302.099628 
z
" style="fill:#1f77b4;stroke:#000000;stroke-linejoin:miter;"/>
   </g>
   <g id="patch_42">
    <path clip-path="url(#p239b914bc8)" d="M 304.756136 305.059875 
L 309.828864 305.059875 
L 309.828864 305.059875 
L 304.756136 305.059875 
z
" style="fill:#1f77b4;stroke:#000000;stroke-linejoin:miter;"/>
   </g>
   <g id="patch_43">
    <path clip-path="url(#p239b914bc8)" d="M 309.828864 305.059875 
L 314.901591 305.059875 
L 314.901591 304.730959 
L 309.828864 304.730959 
z
" style="fill:#1f77b4;stroke:#000000;stroke-linejoin:miter;"/>
   </g>
   <g id="patch_44">
    <path clip-path="url(#p239b914bc8)" d="M 314.901591 305.059875 
L 319.974318 305.059875 
L 319.974318 304.402042 
L 314.901591 304.402042 
z
" style="fill:#1f77b4;stroke:#000000;stroke-linejoin:miter;"/>
   </g>
   <g id="patch_45">
    <path clip-path="url(#p239b914bc8)" d="M 319.974318 305.059875 
L 325.047045 305.059875 
L 325.047045 304.730959 
L 319.974318 304.730959 
z
" style="fill:#1f77b4;stroke:#000000;stroke-linejoin:miter;"/>
   </g>
   <g id="patch_46">
    <path clip-path="url(#p239b914bc8)" d="M 325.047045 305.059875 
L 330.119773 305.059875 
L 330.119773 304.402042 
L 325.047045 304.402042 
z
" style="fill:#1f77b4;stroke:#000000;stroke-linejoin:miter;"/>
   </g>
   <g id="patch_47">
    <path clip-path="url(#p239b914bc8)" d="M 330.119773 305.059875 
L 335.1925 305.059875 
L 335.1925 304.730959 
L 330.119773 304.730959 
z
" style="fill:#1f77b4;stroke:#000000;stroke-linejoin:miter;"/>
   </g>
   <g id="patch_48">
    <path clip-path="url(#p239b914bc8)" d="M 335.1925 305.059875 
L 340.265227 305.059875 
L 340.265227 304.730959 
L 335.1925 304.730959 
z
" style="fill:#1f77b4;stroke:#000000;stroke-linejoin:miter;"/>
   </g>
   <g id="patch_49">
    <path clip-path="url(#p239b914bc8)" d="M 340.265227 305.059875 
L 345.337955 305.059875 
L 345.337955 302.428544 
L 340.265227 302.428544 
z
" style="fill:#1f77b4;stroke:#000000;stroke-linejoin:miter;"/>
   </g>
   <g id="patch_50">
    <path clip-path="url(#p239b914bc8)" d="M 345.337955 305.059875 
L 350.410682 305.059875 
L 350.410682 304.073126 
L 345.337955 304.073126 
z
" style="fill:#1f77b4;stroke:#000000;stroke-linejoin:miter;"/>
   </g>
   <g id="patch_51">
    <path clip-path="url(#p239b914bc8)" d="M 350.410682 305.059875 
L 355.483409 305.059875 
L 355.483409 299.468298 
L 350.410682 299.468298 
z
" style="fill:#1f77b4;stroke:#000000;stroke-linejoin:miter;"/>
   </g>
   <g id="patch_52">
    <path clip-path="url(#p239b914bc8)" d="M 355.483409 305.059875 
L 360.556136 305.059875 
L 360.556136 305.059875 
L 355.483409 305.059875 
z
" style="fill:#1f77b4;stroke:#000000;stroke-linejoin:miter;"/>
   </g>
   <g id="patch_53">
    <path clip-path="url(#p239b914bc8)" d="M 360.556136 305.059875 
L 365.628864 305.059875 
L 365.628864 303.74421 
L 360.556136 303.74421 
z
" style="fill:#1f77b4;stroke:#000000;stroke-linejoin:miter;"/>
   </g>
   <g id="patch_54">
    <path clip-path="url(#p239b914bc8)" d="M 365.628864 305.059875 
L 370.701591 305.059875 
L 370.701591 304.402042 
L 365.628864 304.402042 
z
" style="fill:#1f77b4;stroke:#000000;stroke-linejoin:miter;"/>
   </g>
   <g id="patch_55">
    <path clip-path="url(#p239b914bc8)" d="M 370.701591 305.059875 
L 375.774318 305.059875 
L 375.774318 305.059875 
L 370.701591 305.059875 
z
" style="fill:#1f77b4;stroke:#000000;stroke-linejoin:miter;"/>
   </g>
   <g id="patch_56">
    <path clip-path="url(#p239b914bc8)" d="M 375.774318 305.059875 
L 380.847045 305.059875 
L 380.847045 299.139381 
L 375.774318 299.139381 
z
" style="fill:#1f77b4;stroke:#000000;stroke-linejoin:miter;"/>
   </g>
   <g id="patch_57">
    <path clip-path="url(#p239b914bc8)" d="M 380.847045 305.059875 
L 385.919773 305.059875 
L 385.919773 304.402042 
L 380.847045 304.402042 
z
" style="fill:#1f77b4;stroke:#000000;stroke-linejoin:miter;"/>
   </g>
   <g id="patch_58">
    <path clip-path="url(#p239b914bc8)" d="M 385.919773 305.059875 
L 390.9925 305.059875 
L 390.9925 301.770712 
L 385.919773 301.770712 
z
" style="fill:#1f77b4;stroke:#000000;stroke-linejoin:miter;"/>
   </g>
   <g id="patch_59">
    <path clip-path="url(#p239b914bc8)" d="M 390.9925 305.059875 
L 396.065227 305.059875 
L 396.065227 302.099628 
L 390.9925 302.099628 
z
" style="fill:#1f77b4;stroke:#000000;stroke-linejoin:miter;"/>
   </g>
   <g id="patch_60">
    <path clip-path="url(#p239b914bc8)" d="M 396.065227 305.059875 
L 401.137955 305.059875 
L 401.137955 303.086377 
L 396.065227 303.086377 
z
" style="fill:#1f77b4;stroke:#000000;stroke-linejoin:miter;"/>
   </g>
   <g id="patch_61">
    <path clip-path="url(#p239b914bc8)" d="M 401.137955 305.059875 
L 406.210682 305.059875 
L 406.210682 295.521302 
L 401.137955 295.521302 
z
" style="fill:#1f77b4;stroke:#000000;stroke-linejoin:miter;"/>
   </g>
   <g id="patch_62">
    <path clip-path="url(#p239b914bc8)" d="M 406.210682 305.059875 
L 411.283409 305.059875 
L 411.283409 304.073126 
L 406.210682 304.073126 
z
" style="fill:#1f77b4;stroke:#000000;stroke-linejoin:miter;"/>
   </g>
   <g id="patch_63">
    <path clip-path="url(#p239b914bc8)" d="M 411.283409 305.059875 
L 416.356136 305.059875 
L 416.356136 302.099628 
L 411.283409 302.099628 
z
" style="fill:#1f77b4;stroke:#000000;stroke-linejoin:miter;"/>
   </g>
   <g id="patch_64">
    <path clip-path="url(#p239b914bc8)" d="M 416.356136 305.059875 
L 421.428864 305.059875 
L 421.428864 297.165883 
L 416.356136 297.165883 
z
" style="fill:#1f77b4;stroke:#000000;stroke-linejoin:miter;"/>
   </g>
   <g id="patch_65">
    <path clip-path="url(#p239b914bc8)" d="M 421.428864 305.059875 
L 426.501591 305.059875 
L 426.501591 300.783963 
L 421.428864 300.783963 
z
" style="fill:#1f77b4;stroke:#000000;stroke-linejoin:miter;"/>
   </g>
   <g id="patch_66">
    <path clip-path="url(#p239b914bc8)" d="M 426.501591 305.059875 
L 431.574318 305.059875 
L 431.574318 301.441795 
L 426.501591 301.441795 
z
" style="fill:#1f77b4;stroke:#000000;stroke-linejoin:miter;"/>
   </g>
   <g id="patch_67">
    <path clip-path="url(#p239b914bc8)" d="M 431.574318 305.059875 
L 436.647045 305.059875 
L 436.647045 301.770712 
L 431.574318 301.770712 
z
" style="fill:#1f77b4;stroke:#000000;stroke-linejoin:miter;"/>
   </g>
   <g id="patch_68">
    <path clip-path="url(#p239b914bc8)" d="M 436.647045 305.059875 
L 441.719773 305.059875 
L 441.719773 302.099628 
L 436.647045 302.099628 
z
" style="fill:#1f77b4;stroke:#000000;stroke-linejoin:miter;"/>
   </g>
   <g id="patch_69">
    <path clip-path="url(#p239b914bc8)" d="M 441.719773 305.059875 
L 446.7925 305.059875 
L 446.7925 301.112879 
L 441.719773 301.112879 
z
" style="fill:#1f77b4;stroke:#000000;stroke-linejoin:miter;"/>
   </g>
   <g id="patch_70">
    <path clip-path="url(#p239b914bc8)" d="M 446.7925 305.059875 
L 451.865227 305.059875 
L 451.865227 302.428544 
L 446.7925 302.428544 
z
" style="fill:#1f77b4;stroke:#000000;stroke-linejoin:miter;"/>
   </g>
   <g id="patch_71">
    <path clip-path="url(#p239b914bc8)" d="M 451.865227 305.059875 
L 456.937955 305.059875 
L 456.937955 282.035733 
L 451.865227 282.035733 
z
" style="fill:#1f77b4;stroke:#000000;stroke-linejoin:miter;"/>
   </g>
   <g id="patch_72">
    <path clip-path="url(#p239b914bc8)" d="M 456.937955 305.059875 
L 462.010682 305.059875 
L 462.010682 304.402042 
L 456.937955 304.402042 
z
" style="fill:#1f77b4;stroke:#000000;stroke-linejoin:miter;"/>
   </g>
   <g id="patch_73">
    <path clip-path="url(#p239b914bc8)" d="M 462.010682 305.059875 
L 467.083409 305.059875 
L 467.083409 301.441795 
L 462.010682 301.441795 
z
" style="fill:#1f77b4;stroke:#000000;stroke-linejoin:miter;"/>
   </g>
   <g id="patch_74">
    <path clip-path="url(#p239b914bc8)" d="M 467.083409 305.059875 
L 472.156136 305.059875 
L 472.156136 298.481549 
L 467.083409 298.481549 
z
" style="fill:#1f77b4;stroke:#000000;stroke-linejoin:miter;"/>
   </g>
   <g id="patch_75">
    <path clip-path="url(#p239b914bc8)" d="M 472.156136 305.059875 
L 477.228864 305.059875 
L 477.228864 299.797214 
L 472.156136 299.797214 
z
" style="fill:#1f77b4;stroke:#000000;stroke-linejoin:miter;"/>
   </g>
   <g id="patch_76">
    <path clip-path="url(#p239b914bc8)" d="M 477.228864 305.059875 
L 482.301591 305.059875 
L 482.301591 295.192385 
L 477.228864 295.192385 
z
" style="fill:#1f77b4;stroke:#000000;stroke-linejoin:miter;"/>
   </g>
   <g id="patch_77">
    <path clip-path="url(#p239b914bc8)" d="M 482.301591 305.059875 
L 487.374318 305.059875 
L 487.374318 297.165883 
L 482.301591 297.165883 
z
" style="fill:#1f77b4;stroke:#000000;stroke-linejoin:miter;"/>
   </g>
   <g id="patch_78">
    <path clip-path="url(#p239b914bc8)" d="M 487.374318 305.059875 
L 492.447045 305.059875 
L 492.447045 297.823716 
L 487.374318 297.823716 
z
" style="fill:#1f77b4;stroke:#000000;stroke-linejoin:miter;"/>
   </g>
   <g id="patch_79">
    <path clip-path="url(#p239b914bc8)" d="M 492.447045 305.059875 
L 497.519773 305.059875 
L 497.519773 285.324896 
L 492.447045 285.324896 
z
" style="fill:#1f77b4;stroke:#000000;stroke-linejoin:miter;"/>
   </g>
   <g id="patch_80">
    <path clip-path="url(#p239b914bc8)" d="M 497.519773 305.059875 
L 502.5925 305.059875 
L 502.5925 294.534553 
L 497.519773 294.534553 
z
" style="fill:#1f77b4;stroke:#000000;stroke-linejoin:miter;"/>
   </g>
   <g id="patch_81">
    <path clip-path="url(#p239b914bc8)" d="M 502.5925 305.059875 
L 507.665227 305.059875 
L 507.665227 273.812825 
L 502.5925 273.812825 
z
" style="fill:#1f77b4;stroke:#000000;stroke-linejoin:miter;"/>
   </g>
   <g id="patch_82">
    <path clip-path="url(#p239b914bc8)" d="M 507.665227 305.059875 
L 512.737955 305.059875 
L 512.737955 294.863469 
L 507.665227 294.863469 
z
" style="fill:#1f77b4;stroke:#000000;stroke-linejoin:miter;"/>
   </g>
   <g id="patch_83">
    <path clip-path="url(#p239b914bc8)" d="M 512.737955 305.059875 
L 517.810682 305.059875 
L 517.810682 285.324896 
L 512.737955 285.324896 
z
" style="fill:#1f77b4;stroke:#000000;stroke-linejoin:miter;"/>
   </g>
   <g id="patch_84">
    <path clip-path="url(#p239b914bc8)" d="M 517.810682 305.059875 
L 522.883409 305.059875 
L 522.883409 284.338147 
L 517.810682 284.338147 
z
" style="fill:#1f77b4;stroke:#000000;stroke-linejoin:miter;"/>
   </g>
   <g id="patch_85">
    <path clip-path="url(#p239b914bc8)" d="M 522.883409 305.059875 
L 527.956136 305.059875 
L 527.956136 291.574306 
L 522.883409 291.574306 
z
" style="fill:#1f77b4;stroke:#000000;stroke-linejoin:miter;"/>
   </g>
   <g id="patch_86">
    <path clip-path="url(#p239b914bc8)" d="M 527.956136 305.059875 
L 533.028864 305.059875 
L 533.028864 256.38026 
L 527.956136 256.38026 
z
" style="fill:#1f77b4;stroke:#000000;stroke-linejoin:miter;"/>
   </g>
   <g id="patch_87">
    <path clip-path="url(#p239b914bc8)" d="M 533.028864 305.059875 
L 538.101591 305.059875 
L 538.101591 290.916473 
L 533.028864 290.916473 
z
" style="fill:#1f77b4;stroke:#000000;stroke-linejoin:miter;"/>
   </g>
   <g id="patch_88">
    <path clip-path="url(#p239b914bc8)" d="M 538.101591 305.059875 
L 543.174318 305.059875 
L 543.174318 277.759821 
L 538.101591 277.759821 
z
" style="fill:#1f77b4;stroke:#000000;stroke-linejoin:miter;"/>
   </g>
   <g id="patch_89">
    <path clip-path="url(#p239b914bc8)" d="M 543.174318 305.059875 
L 548.247045 305.059875 
L 548.247045 264.932084 
L 543.174318 264.932084 
z
" style="fill:#1f77b4;stroke:#000000;stroke-linejoin:miter;"/>
   </g>
   <g id="patch_90">
    <path clip-path="url(#p239b914bc8)" d="M 548.247045 305.059875 
L 553.319773 305.059875 
L 553.319773 270.852578 
L 548.247045 270.852578 
z
" style="fill:#1f77b4;stroke:#000000;stroke-linejoin:miter;"/>
   </g>
   <g id="patch_91">
    <path clip-path="url(#p239b914bc8)" d="M 553.319773 305.059875 
L 558.3925 305.059875 
L 558.3925 230.724787 
L 553.319773 230.724787 
z
" style="fill:#1f77b4;stroke:#000000;stroke-linejoin:miter;"/>
   </g>
   <g id="patch_92">
    <path clip-path="url(#p239b914bc8)" d="M 558.3925 305.059875 
L 563.465227 305.059875 
L 563.465227 259.669423 
L 558.3925 259.669423 
z
" style="fill:#1f77b4;stroke:#000000;stroke-linejoin:miter;"/>
   </g>
   <g id="patch_93">
    <path clip-path="url(#p239b914bc8)" d="M 563.465227 305.059875 
L 568.537955 305.059875 
L 568.537955 259.998339 
L 563.465227 259.998339 
z
" style="fill:#1f77b4;stroke:#000000;stroke-linejoin:miter;"/>
   </g>
   <g id="patch_94">
    <path clip-path="url(#p239b914bc8)" d="M 568.537955 305.059875 
L 573.610682 305.059875 
L 573.610682 224.146461 
L 568.537955 224.146461 
z
" style="fill:#1f77b4;stroke:#000000;stroke-linejoin:miter;"/>
   </g>
   <g id="patch_95">
    <path clip-path="url(#p239b914bc8)" d="M 573.610682 305.059875 
L 578.683409 305.059875 
L 578.683409 243.552523 
L 573.610682 243.552523 
z
" style="fill:#1f77b4;stroke:#000000;stroke-linejoin:miter;"/>
   </g>
   <g id="patch_96">
    <path clip-path="url(#p239b914bc8)" d="M 578.683409 305.059875 
L 583.756136 305.059875 
L 583.756136 208.687394 
L 578.683409 208.687394 
z
" style="fill:#1f77b4;stroke:#000000;stroke-linejoin:miter;"/>
   </g>
   <g id="patch_97">
    <path clip-path="url(#p239b914bc8)" d="M 583.756136 305.059875 
L 588.828864 305.059875 
L 588.828864 209.345226 
L 583.756136 209.345226 
z
" style="fill:#1f77b4;stroke:#000000;stroke-linejoin:miter;"/>
   </g>
   <g id="patch_98">
    <path clip-path="url(#p239b914bc8)" d="M 588.828864 305.059875 
L 593.901591 305.059875 
L 593.901591 211.318724 
L 588.828864 211.318724 
z
" style="fill:#1f77b4;stroke:#000000;stroke-linejoin:miter;"/>
   </g>
   <g id="patch_99">
    <path clip-path="url(#p239b914bc8)" d="M 593.901591 305.059875 
L 598.974318 305.059875 
L 598.974318 200.135569 
L 593.901591 200.135569 
z
" style="fill:#1f77b4;stroke:#000000;stroke-linejoin:miter;"/>
   </g>
   <g id="patch_100">
    <path clip-path="url(#p239b914bc8)" d="M 598.974318 305.059875 
L 604.047045 305.059875 
L 604.047045 202.7669 
L 598.974318 202.7669 
z
" style="fill:#1f77b4;stroke:#000000;stroke-linejoin:miter;"/>
   </g>
   <g id="patch_101">
    <path clip-path="url(#p239b914bc8)" d="M 604.047045 305.059875 
L 609.119773 305.059875 
L 609.119773 46.202732 
L 604.047045 46.202732 
z
" style="fill:#1f77b4;stroke:#000000;stroke-linejoin:miter;"/>
   </g>
   <g id="patch_102">
    <path clip-path="url(#p239b914bc8)" d="M 609.119773 305.059875 
L 614.1925 305.059875 
L 614.1925 207.371728 
L 609.119773 207.371728 
z
" style="fill:#1f77b4;stroke:#000000;stroke-linejoin:miter;"/>
   </g>
   <g id="patch_103">
    <path clip-path="url(#p239b914bc8)" d="M 614.1925 305.059875 
L 619.265227 305.059875 
L 619.265227 195.530741 
L 614.1925 195.530741 
z
" style="fill:#1f77b4;stroke:#000000;stroke-linejoin:miter;"/>
   </g>
   <g id="patch_104">
    <path clip-path="url(#p239b914bc8)" d="M 619.265227 305.059875 
L 624.337955 305.059875 
L 624.337955 186.65 
L 619.265227 186.65 
z
" style="fill:#1f77b4;stroke:#000000;stroke-linejoin:miter;"/>
   </g>
   <g id="patch_105">
    <path clip-path="url(#p239b914bc8)" d="M 624.337955 305.059875 
L 629.410682 305.059875 
L 629.410682 202.109067 
L 624.337955 202.109067 
z
" style="fill:#1f77b4;stroke:#000000;stroke-linejoin:miter;"/>
   </g>
   <g id="patch_106">
    <path clip-path="url(#p239b914bc8)" d="M 629.410682 305.059875 
L 634.483409 305.059875 
L 634.483409 202.109067 
L 629.410682 202.109067 
z
" style="fill:#1f77b4;stroke:#000000;stroke-linejoin:miter;"/>
   </g>
   <g id="patch_107">
    <path clip-path="url(#p239b914bc8)" d="M 634.483409 305.059875 
L 639.556136 305.059875 
L 639.556136 223.159712 
L 634.483409 223.159712 
z
" style="fill:#1f77b4;stroke:#000000;stroke-linejoin:miter;"/>
   </g>
   <g id="patch_108">
    <path clip-path="url(#p239b914bc8)" d="M 639.556136 305.059875 
L 644.628864 305.059875 
L 644.628864 238.618779 
L 639.556136 238.618779 
z
" style="fill:#1f77b4;stroke:#000000;stroke-linejoin:miter;"/>
   </g>
   <g id="patch_109">
    <path clip-path="url(#p239b914bc8)" d="M 644.628864 305.059875 
L 649.701591 305.059875 
L 649.701591 214.278971 
L 644.628864 214.278971 
z
" style="fill:#1f77b4;stroke:#000000;stroke-linejoin:miter;"/>
   </g>
   <g id="patch_110">
    <path clip-path="url(#p239b914bc8)" d="M 649.701591 305.059875 
L 654.774318 305.059875 
L 654.774318 243.88144 
L 649.701591 243.88144 
z
" style="fill:#1f77b4;stroke:#000000;stroke-linejoin:miter;"/>
   </g>
   <g id="patch_111">
    <path clip-path="url(#p239b914bc8)" d="M 654.774318 305.059875 
L 659.847045 305.059875 
L 659.847045 228.093456 
L 654.774318 228.093456 
z
" style="fill:#1f77b4;stroke:#000000;stroke-linejoin:miter;"/>
   </g>
   <g id="patch_112">
    <path clip-path="url(#p239b914bc8)" d="M 659.847045 305.059875 
L 664.919773 305.059875 
L 664.919773 252.433264 
L 659.847045 252.433264 
z
" style="fill:#1f77b4;stroke:#000000;stroke-linejoin:miter;"/>
   </g>
   <g id="patch_113">
    <path clip-path="url(#p239b914bc8)" d="M 664.919773 305.059875 
L 669.9925 305.059875 
L 669.9925 262.62967 
L 664.919773 262.62967 
z
" style="fill:#1f77b4;stroke:#000000;stroke-linejoin:miter;"/>
   </g>
   <g id="patch_114">
    <path clip-path="url(#p239b914bc8)" d="M 669.9925 305.059875 
L 675.065227 305.059875 
L 675.065227 272.497159 
L 669.9925 272.497159 
z
" style="fill:#1f77b4;stroke:#000000;stroke-linejoin:miter;"/>
   </g>
   <g id="patch_115">
    <path clip-path="url(#p239b914bc8)" d="M 675.065227 305.059875 
L 680.137955 305.059875 
L 680.137955 273.154992 
L 675.065227 273.154992 
z
" style="fill:#1f77b4;stroke:#000000;stroke-linejoin:miter;"/>
   </g>
   <g id="patch_116">
    <path clip-path="url(#p239b914bc8)" d="M 680.137955 305.059875 
L 685.210682 305.059875 
L 685.210682 242.565774 
L 680.137955 242.565774 
z
" style="fill:#1f77b4;stroke:#000000;stroke-linejoin:miter;"/>
   </g>
   <g id="patch_117">
    <path clip-path="url(#p239b914bc8)" d="M 685.210682 305.059875 
L 690.283409 305.059875 
L 690.283409 286.311645 
L 685.210682 286.311645 
z
" style="fill:#1f77b4;stroke:#000000;stroke-linejoin:miter;"/>
   </g>
   <g id="patch_118">
    <path clip-path="url(#p239b914bc8)" d="M 690.283409 305.059875 
L 695.356136 305.059875 
L 695.356136 281.3779 
L 690.283409 281.3779 
z
" style="fill:#1f77b4;stroke:#000000;stroke-linejoin:miter;"/>
   </g>
   <g id="patch_119">
    <path clip-path="url(#p239b914bc8)" d="M 695.356136 305.059875 
L 700.428864 305.059875 
L 700.428864 281.706816 
L 695.356136 281.706816 
z
" style="fill:#1f77b4;stroke:#000000;stroke-linejoin:miter;"/>
   </g>
   <g id="patch_120">
    <path clip-path="url(#p239b914bc8)" d="M 700.428864 305.059875 
L 705.501591 305.059875 
L 705.501591 284.009231 
L 700.428864 284.009231 
z
" style="fill:#1f77b4;stroke:#000000;stroke-linejoin:miter;"/>
   </g>
   <g id="patch_121">
    <path clip-path="url(#p239b914bc8)" d="M 705.501591 305.059875 
L 710.574318 305.059875 
L 710.574318 265.918833 
L 705.501591 265.918833 
z
" style="fill:#1f77b4;stroke:#000000;stroke-linejoin:miter;"/>
   </g>
   <g id="patch_122">
    <path clip-path="url(#p239b914bc8)" d="M 710.574318 305.059875 
L 715.647045 305.059875 
L 715.647045 290.587557 
L 710.574318 290.587557 
z
" style="fill:#1f77b4;stroke:#000000;stroke-linejoin:miter;"/>
   </g>
   <g id="patch_123">
    <path clip-path="url(#p239b914bc8)" d="M 715.647045 305.059875 
L 720.719773 305.059875 
L 720.719773 292.232139 
L 715.647045 292.232139 
z
" style="fill:#1f77b4;stroke:#000000;stroke-linejoin:miter;"/>
   </g>
   <g id="patch_124">
    <path clip-path="url(#p239b914bc8)" d="M 720.719773 305.059875 
L 725.7925 305.059875 
L 725.7925 276.115239 
L 720.719773 276.115239 
z
" style="fill:#1f77b4;stroke:#000000;stroke-linejoin:miter;"/>
   </g>
   <g id="patch_125">
    <path clip-path="url(#p239b914bc8)" d="M 725.7925 305.059875 
L 730.865227 305.059875 
L 730.865227 291.903222 
L 725.7925 291.903222 
z
" style="fill:#1f77b4;stroke:#000000;stroke-linejoin:miter;"/>
   </g>
   <g id="patch_126">
    <path clip-path="url(#p239b914bc8)" d="M 730.865227 305.059875 
L 735.937955 305.059875 
L 735.937955 290.916473 
L 730.865227 290.916473 
z
" style="fill:#1f77b4;stroke:#000000;stroke-linejoin:miter;"/>
   </g>
   <g id="patch_127">
    <path clip-path="url(#p239b914bc8)" d="M 735.937955 305.059875 
L 741.010682 305.059875 
L 741.010682 296.836967 
L 735.937955 296.836967 
z
" style="fill:#1f77b4;stroke:#000000;stroke-linejoin:miter;"/>
   </g>
   <g id="patch_128">
    <path clip-path="url(#p239b914bc8)" d="M 741.010682 305.059875 
L 746.083409 305.059875 
L 746.083409 297.4948 
L 741.010682 297.4948 
z
" style="fill:#1f77b4;stroke:#000000;stroke-linejoin:miter;"/>
   </g>
   <g id="patch_129">
    <path clip-path="url(#p239b914bc8)" d="M 746.083409 305.059875 
L 751.156136 305.059875 
L 751.156136 297.165883 
L 746.083409 297.165883 
z
" style="fill:#1f77b4;stroke:#000000;stroke-linejoin:miter;"/>
   </g>
   <g id="patch_130">
    <path clip-path="url(#p239b914bc8)" d="M 751.156136 305.059875 
L 756.228864 305.059875 
L 756.228864 302.757461 
L 751.156136 302.757461 
z
" style="fill:#1f77b4;stroke:#000000;stroke-linejoin:miter;"/>
   </g>
   <g id="patch_131">
    <path clip-path="url(#p239b914bc8)" d="M 756.228864 305.059875 
L 761.301591 305.059875 
L 761.301591 274.141741 
L 756.228864 274.141741 
z
" style="fill:#1f77b4;stroke:#000000;stroke-linejoin:miter;"/>
   </g>
   <g id="patch_132">
    <path clip-path="url(#p239b914bc8)" d="M 761.301591 305.059875 
L 766.374318 305.059875 
L 766.374318 303.086377 
L 761.301591 303.086377 
z
" style="fill:#1f77b4;stroke:#000000;stroke-linejoin:miter;"/>
   </g>
   <g id="patch_133">
    <path clip-path="url(#p239b914bc8)" d="M 766.374318 305.059875 
L 771.447045 305.059875 
L 771.447045 300.783963 
L 766.374318 300.783963 
z
" style="fill:#1f77b4;stroke:#000000;stroke-linejoin:miter;"/>
   </g>
   <g id="patch_134">
    <path clip-path="url(#p239b914bc8)" d="M 771.447045 305.059875 
L 776.519773 305.059875 
L 776.519773 301.112879 
L 771.447045 301.112879 
z
" style="fill:#1f77b4;stroke:#000000;stroke-linejoin:miter;"/>
   </g>
   <g id="patch_135">
    <path clip-path="url(#p239b914bc8)" d="M 776.519773 305.059875 
L 781.5925 305.059875 
L 781.5925 297.4948 
L 776.519773 297.4948 
z
" style="fill:#1f77b4;stroke:#000000;stroke-linejoin:miter;"/>
   </g>
   <g id="patch_136">
    <path clip-path="url(#p239b914bc8)" d="M 781.5925 305.059875 
L 786.665227 305.059875 
L 786.665227 301.441795 
L 781.5925 301.441795 
z
" style="fill:#1f77b4;stroke:#000000;stroke-linejoin:miter;"/>
   </g>
   <g id="patch_137">
    <path clip-path="url(#p239b914bc8)" d="M 786.665227 305.059875 
L 791.737955 305.059875 
L 791.737955 299.797214 
L 786.665227 299.797214 
z
" style="fill:#1f77b4;stroke:#000000;stroke-linejoin:miter;"/>
   </g>
   <g id="patch_138">
    <path clip-path="url(#p239b914bc8)" d="M 791.737955 305.059875 
L 796.810682 305.059875 
L 796.810682 303.415293 
L 791.737955 303.415293 
z
" style="fill:#1f77b4;stroke:#000000;stroke-linejoin:miter;"/>
   </g>
   <g id="patch_139">
    <path clip-path="url(#p239b914bc8)" d="M 796.810682 305.059875 
L 801.883409 305.059875 
L 801.883409 296.179134 
L 796.810682 296.179134 
z
" style="fill:#1f77b4;stroke:#000000;stroke-linejoin:miter;"/>
   </g>
   <g id="patch_140">
    <path clip-path="url(#p239b914bc8)" d="M 801.883409 305.059875 
L 806.956136 305.059875 
L 806.956136 301.770712 
L 801.883409 301.770712 
z
" style="fill:#1f77b4;stroke:#000000;stroke-linejoin:miter;"/>
   </g>
   <g id="patch_141">
    <path clip-path="url(#p239b914bc8)" d="M 806.956136 305.059875 
L 812.028864 305.059875 
L 812.028864 292.561055 
L 806.956136 292.561055 
z
" style="fill:#1f77b4;stroke:#000000;stroke-linejoin:miter;"/>
   </g>
   <g id="patch_142">
    <path clip-path="url(#p239b914bc8)" d="M 812.028864 305.059875 
L 817.101591 305.059875 
L 817.101591 303.74421 
L 812.028864 303.74421 
z
" style="fill:#1f77b4;stroke:#000000;stroke-linejoin:miter;"/>
   </g>
   <g id="patch_143">
    <path clip-path="url(#p239b914bc8)" d="M 817.101591 305.059875 
L 822.174318 305.059875 
L 822.174318 302.099628 
L 817.101591 302.099628 
z
" style="fill:#1f77b4;stroke:#000000;stroke-linejoin:miter;"/>
   </g>
   <g id="patch_144">
    <path clip-path="url(#p239b914bc8)" d="M 822.174318 305.059875 
L 827.247045 305.059875 
L 827.247045 304.073126 
L 822.174318 304.073126 
z
" style="fill:#1f77b4;stroke:#000000;stroke-linejoin:miter;"/>
   </g>
   <g id="patch_145">
    <path clip-path="url(#p239b914bc8)" d="M 827.247045 305.059875 
L 832.319773 305.059875 
L 832.319773 304.402042 
L 827.247045 304.402042 
z
" style="fill:#1f77b4;stroke:#000000;stroke-linejoin:miter;"/>
   </g>
   <g id="patch_146">
    <path clip-path="url(#p239b914bc8)" d="M 832.319773 305.059875 
L 837.3925 305.059875 
L 837.3925 297.823716 
L 832.319773 297.823716 
z
" style="fill:#1f77b4;stroke:#000000;stroke-linejoin:miter;"/>
   </g>
   <g id="patch_147">
    <path clip-path="url(#p239b914bc8)" d="M 837.3925 305.059875 
L 842.465227 305.059875 
L 842.465227 304.402042 
L 837.3925 304.402042 
z
" style="fill:#1f77b4;stroke:#000000;stroke-linejoin:miter;"/>
   </g>
   <g id="patch_148">
    <path clip-path="url(#p239b914bc8)" d="M 842.465227 305.059875 
L 847.537955 305.059875 
L 847.537955 303.74421 
L 842.465227 303.74421 
z
" style="fill:#1f77b4;stroke:#000000;stroke-linejoin:miter;"/>
   </g>
   <g id="patch_149">
    <path clip-path="url(#p239b914bc8)" d="M 847.537955 305.059875 
L 852.610682 305.059875 
L 852.610682 303.415293 
L 847.537955 303.415293 
z
" style="fill:#1f77b4;stroke:#000000;stroke-linejoin:miter;"/>
   </g>
   <g id="patch_150">
    <path clip-path="url(#p239b914bc8)" d="M 852.610682 305.059875 
L 857.683409 305.059875 
L 857.683409 303.74421 
L 852.610682 303.74421 
z
" style="fill:#1f77b4;stroke:#000000;stroke-linejoin:miter;"/>
   </g>
   <g id="patch_151">
    <path clip-path="url(#p239b914bc8)" d="M 857.683409 305.059875 
L 862.756136 305.059875 
L 862.756136 301.770712 
L 857.683409 301.770712 
z
" style="fill:#1f77b4;stroke:#000000;stroke-linejoin:miter;"/>
   </g>
   <g id="patch_152">
    <path clip-path="url(#p239b914bc8)" d="M 862.756136 305.059875 
L 867.828864 305.059875 
L 867.828864 304.730959 
L 862.756136 304.730959 
z
" style="fill:#1f77b4;stroke:#000000;stroke-linejoin:miter;"/>
   </g>
   <g id="patch_153">
    <path clip-path="url(#p239b914bc8)" d="M 867.828864 305.059875 
L 872.901591 305.059875 
L 872.901591 304.730959 
L 867.828864 304.730959 
z
" style="fill:#1f77b4;stroke:#000000;stroke-linejoin:miter;"/>
   </g>
   <g id="patch_154">
    <path clip-path="url(#p239b914bc8)" d="M 872.901591 305.059875 
L 877.974318 305.059875 
L 877.974318 304.730959 
L 872.901591 304.730959 
z
" style="fill:#1f77b4;stroke:#000000;stroke-linejoin:miter;"/>
   </g>
   <g id="patch_155">
    <path clip-path="url(#p239b914bc8)" d="M 877.974318 305.059875 
L 883.047045 305.059875 
L 883.047045 302.428544 
L 877.974318 302.428544 
z
" style="fill:#1f77b4;stroke:#000000;stroke-linejoin:miter;"/>
   </g>
   <g id="patch_156">
    <path clip-path="url(#p239b914bc8)" d="M 883.047045 305.059875 
L 888.119773 305.059875 
L 888.119773 304.073126 
L 883.047045 304.073126 
z
" style="fill:#1f77b4;stroke:#000000;stroke-linejoin:miter;"/>
   </g>
   <g id="patch_157">
    <path clip-path="url(#p239b914bc8)" d="M 888.119773 305.059875 
L 893.1925 305.059875 
L 893.1925 304.402042 
L 888.119773 304.402042 
z
" style="fill:#1f77b4;stroke:#000000;stroke-linejoin:miter;"/>
   </g>
   <g id="patch_158">
    <path clip-path="url(#p239b914bc8)" d="M 893.1925 305.059875 
L 898.265227 305.059875 
L 898.265227 304.402042 
L 893.1925 304.402042 
z
" style="fill:#1f77b4;stroke:#000000;stroke-linejoin:miter;"/>
   </g>
   <g id="patch_159">
    <path clip-path="url(#p239b914bc8)" d="M 898.265227 305.059875 
L 903.337955 305.059875 
L 903.337955 305.059875 
L 898.265227 305.059875 
z
" style="fill:#1f77b4;stroke:#000000;stroke-linejoin:miter;"/>
   </g>
   <g id="patch_160">
    <path clip-path="url(#p239b914bc8)" d="M 903.337955 305.059875 
L 908.410682 305.059875 
L 908.410682 305.059875 
L 903.337955 305.059875 
z
" style="fill:#1f77b4;stroke:#000000;stroke-linejoin:miter;"/>
   </g>
   <g id="patch_161">
    <path clip-path="url(#p239b914bc8)" d="M 908.410682 305.059875 
L 913.483409 305.059875 
L 913.483409 295.850218 
L 908.410682 295.850218 
z
" style="fill:#1f77b4;stroke:#000000;stroke-linejoin:miter;"/>
   </g>
   <g id="patch_162">
    <path clip-path="url(#p239b914bc8)" d="M 913.483409 305.059875 
L 918.556136 305.059875 
L 918.556136 304.730959 
L 913.483409 304.730959 
z
" style="fill:#1f77b4;stroke:#000000;stroke-linejoin:miter;"/>
   </g>
   <g id="patch_163">
    <path clip-path="url(#p239b914bc8)" d="M 918.556136 305.059875 
L 923.628864 305.059875 
L 923.628864 305.059875 
L 918.556136 305.059875 
z
" style="fill:#1f77b4;stroke:#000000;stroke-linejoin:miter;"/>
   </g>
   <g id="patch_164">
    <path clip-path="url(#p239b914bc8)" d="M 923.628864 305.059875 
L 928.701591 305.059875 
L 928.701591 304.730959 
L 923.628864 304.730959 
z
" style="fill:#1f77b4;stroke:#000000;stroke-linejoin:miter;"/>
   </g>
   <g id="patch_165">
    <path clip-path="url(#p239b914bc8)" d="M 928.701591 305.059875 
L 933.774318 305.059875 
L 933.774318 305.059875 
L 928.701591 305.059875 
z
" style="fill:#1f77b4;stroke:#000000;stroke-linejoin:miter;"/>
   </g>
   <g id="patch_166">
    <path clip-path="url(#p239b914bc8)" d="M 933.774318 305.059875 
L 938.847045 305.059875 
L 938.847045 305.059875 
L 933.774318 305.059875 
z
" style="fill:#1f77b4;stroke:#000000;stroke-linejoin:miter;"/>
   </g>
   <g id="patch_167">
    <path clip-path="url(#p239b914bc8)" d="M 938.847045 305.059875 
L 943.919773 305.059875 
L 943.919773 304.730959 
L 938.847045 304.730959 
z
" style="fill:#1f77b4;stroke:#000000;stroke-linejoin:miter;"/>
   </g>
   <g id="patch_168">
    <path clip-path="url(#p239b914bc8)" d="M 943.919773 305.059875 
L 948.9925 305.059875 
L 948.9925 304.730959 
L 943.919773 304.730959 
z
" style="fill:#1f77b4;stroke:#000000;stroke-linejoin:miter;"/>
   </g>
   <g id="patch_169">
    <path clip-path="url(#p239b914bc8)" d="M 948.9925 305.059875 
L 954.065227 305.059875 
L 954.065227 302.757461 
L 948.9925 302.757461 
z
" style="fill:#1f77b4;stroke:#000000;stroke-linejoin:miter;"/>
   </g>
   <g id="patch_170">
    <path clip-path="url(#p239b914bc8)" d="M 954.065227 305.059875 
L 959.137955 305.059875 
L 959.137955 304.402042 
L 954.065227 304.402042 
z
" style="fill:#1f77b4;stroke:#000000;stroke-linejoin:miter;"/>
   </g>
   <g id="patch_171">
    <path clip-path="url(#p239b914bc8)" d="M 959.137955 305.059875 
L 964.210682 305.059875 
L 964.210682 304.402042 
L 959.137955 304.402042 
z
" style="fill:#1f77b4;stroke:#000000;stroke-linejoin:miter;"/>
   </g>
   <g id="patch_172">
    <path clip-path="url(#p239b914bc8)" d="M 964.210682 305.059875 
L 969.283409 305.059875 
L 969.283409 305.059875 
L 964.210682 305.059875 
z
" style="fill:#1f77b4;stroke:#000000;stroke-linejoin:miter;"/>
   </g>
   <g id="patch_173">
    <path clip-path="url(#p239b914bc8)" d="M 969.283409 305.059875 
L 974.356136 305.059875 
L 974.356136 304.730959 
L 969.283409 304.730959 
z
" style="fill:#1f77b4;stroke:#000000;stroke-linejoin:miter;"/>
   </g>
   <g id="patch_174">
    <path clip-path="url(#p239b914bc8)" d="M 974.356136 305.059875 
L 979.428864 305.059875 
L 979.428864 305.059875 
L 974.356136 305.059875 
z
" style="fill:#1f77b4;stroke:#000000;stroke-linejoin:miter;"/>
   </g>
   <g id="patch_175">
    <path clip-path="url(#p239b914bc8)" d="M 979.428864 305.059875 
L 984.501591 305.059875 
L 984.501591 305.059875 
L 979.428864 305.059875 
z
" style="fill:#1f77b4;stroke:#000000;stroke-linejoin:miter;"/>
   </g>
   <g id="patch_176">
    <path clip-path="url(#p239b914bc8)" d="M 984.501591 305.059875 
L 989.574318 305.059875 
L 989.574318 305.059875 
L 984.501591 305.059875 
z
" style="fill:#1f77b4;stroke:#000000;stroke-linejoin:miter;"/>
   </g>
   <g id="patch_177">
    <path clip-path="url(#p239b914bc8)" d="M 989.574318 305.059875 
L 994.647045 305.059875 
L 994.647045 305.059875 
L 989.574318 305.059875 
z
" style="fill:#1f77b4;stroke:#000000;stroke-linejoin:miter;"/>
   </g>
   <g id="patch_178">
    <path clip-path="url(#p239b914bc8)" d="M 994.647045 305.059875 
L 999.719773 305.059875 
L 999.719773 305.059875 
L 994.647045 305.059875 
z
" style="fill:#1f77b4;stroke:#000000;stroke-linejoin:miter;"/>
   </g>
   <g id="patch_179">
    <path clip-path="url(#p239b914bc8)" d="M 999.719773 305.059875 
L 1004.7925 305.059875 
L 1004.7925 305.059875 
L 999.719773 305.059875 
z
" style="fill:#1f77b4;stroke:#000000;stroke-linejoin:miter;"/>
   </g>
   <g id="patch_180">
    <path clip-path="url(#p239b914bc8)" d="M 1004.7925 305.059875 
L 1009.865227 305.059875 
L 1009.865227 305.059875 
L 1004.7925 305.059875 
z
" style="fill:#1f77b4;stroke:#000000;stroke-linejoin:miter;"/>
   </g>
   <g id="patch_181">
    <path clip-path="url(#p239b914bc8)" d="M 1009.865227 305.059875 
L 1014.937955 305.059875 
L 1014.937955 304.073126 
L 1009.865227 304.073126 
z
" style="fill:#1f77b4;stroke:#000000;stroke-linejoin:miter;"/>
   </g>
   <g id="patch_182">
    <path clip-path="url(#p239b914bc8)" d="M 1014.937955 305.059875 
L 1020.010682 305.059875 
L 1020.010682 305.059875 
L 1014.937955 305.059875 
z
" style="fill:#1f77b4;stroke:#000000;stroke-linejoin:miter;"/>
   </g>
   <g id="patch_183">
    <path clip-path="url(#p239b914bc8)" d="M 1020.010682 305.059875 
L 1025.083409 305.059875 
L 1025.083409 305.059875 
L 1020.010682 305.059875 
z
" style="fill:#1f77b4;stroke:#000000;stroke-linejoin:miter;"/>
   </g>
   <g id="patch_184">
    <path clip-path="url(#p239b914bc8)" d="M 1025.083409 305.059875 
L 1030.156136 305.059875 
L 1030.156136 305.059875 
L 1025.083409 305.059875 
z
" style="fill:#1f77b4;stroke:#000000;stroke-linejoin:miter;"/>
   </g>
   <g id="patch_185">
    <path clip-path="url(#p239b914bc8)" d="M 1030.156136 305.059875 
L 1035.228864 305.059875 
L 1035.228864 305.059875 
L 1030.156136 305.059875 
z
" style="fill:#1f77b4;stroke:#000000;stroke-linejoin:miter;"/>
   </g>
   <g id="patch_186">
    <path clip-path="url(#p239b914bc8)" d="M 1035.228864 305.059875 
L 1040.301591 305.059875 
L 1040.301591 305.059875 
L 1035.228864 305.059875 
z
" style="fill:#1f77b4;stroke:#000000;stroke-linejoin:miter;"/>
   </g>
   <g id="patch_187">
    <path clip-path="url(#p239b914bc8)" d="M 1040.301591 305.059875 
L 1045.374318 305.059875 
L 1045.374318 305.059875 
L 1040.301591 305.059875 
z
" style="fill:#1f77b4;stroke:#000000;stroke-linejoin:miter;"/>
   </g>
   <g id="patch_188">
    <path clip-path="url(#p239b914bc8)" d="M 1045.374318 305.059875 
L 1050.447045 305.059875 
L 1050.447045 305.059875 
L 1045.374318 305.059875 
z
" style="fill:#1f77b4;stroke:#000000;stroke-linejoin:miter;"/>
   </g>
   <g id="patch_189">
    <path clip-path="url(#p239b914bc8)" d="M 1050.447045 305.059875 
L 1055.519773 305.059875 
L 1055.519773 305.059875 
L 1050.447045 305.059875 
z
" style="fill:#1f77b4;stroke:#000000;stroke-linejoin:miter;"/>
   </g>
   <g id="patch_190">
    <path clip-path="url(#p239b914bc8)" d="M 1055.519773 305.059875 
L 1060.5925 305.059875 
L 1060.5925 305.059875 
L 1055.519773 305.059875 
z
" style="fill:#1f77b4;stroke:#000000;stroke-linejoin:miter;"/>
   </g>
   <g id="patch_191">
    <path clip-path="url(#p239b914bc8)" d="M 1060.5925 305.059875 
L 1065.665227 305.059875 
L 1065.665227 304.730959 
L 1060.5925 304.730959 
z
" style="fill:#1f77b4;stroke:#000000;stroke-linejoin:miter;"/>
   </g>
   <g id="patch_192">
    <path clip-path="url(#p239b914bc8)" d="M 1065.665227 305.059875 
L 1070.737955 305.059875 
L 1070.737955 305.059875 
L 1065.665227 305.059875 
z
" style="fill:#1f77b4;stroke:#000000;stroke-linejoin:miter;"/>
   </g>
   <g id="patch_193">
    <path clip-path="url(#p239b914bc8)" d="M 1070.737955 305.059875 
L 1075.810682 305.059875 
L 1075.810682 305.059875 
L 1070.737955 305.059875 
z
" style="fill:#1f77b4;stroke:#000000;stroke-linejoin:miter;"/>
   </g>
   <g id="patch_194">
    <path clip-path="url(#p239b914bc8)" d="M 1075.810682 305.059875 
L 1080.883409 305.059875 
L 1080.883409 305.059875 
L 1075.810682 305.059875 
z
" style="fill:#1f77b4;stroke:#000000;stroke-linejoin:miter;"/>
   </g>
   <g id="patch_195">
    <path clip-path="url(#p239b914bc8)" d="M 1080.883409 305.059875 
L 1085.956136 305.059875 
L 1085.956136 305.059875 
L 1080.883409 305.059875 
z
" style="fill:#1f77b4;stroke:#000000;stroke-linejoin:miter;"/>
   </g>
   <g id="patch_196">
    <path clip-path="url(#p239b914bc8)" d="M 1085.956136 305.059875 
L 1091.028864 305.059875 
L 1091.028864 305.059875 
L 1085.956136 305.059875 
z
" style="fill:#1f77b4;stroke:#000000;stroke-linejoin:miter;"/>
   </g>
   <g id="patch_197">
    <path clip-path="url(#p239b914bc8)" d="M 1091.028864 305.059875 
L 1096.101591 305.059875 
L 1096.101591 304.730959 
L 1091.028864 304.730959 
z
" style="fill:#1f77b4;stroke:#000000;stroke-linejoin:miter;"/>
   </g>
   <g id="patch_198">
    <path clip-path="url(#p239b914bc8)" d="M 1096.101591 305.059875 
L 1101.174318 305.059875 
L 1101.174318 305.059875 
L 1096.101591 305.059875 
z
" style="fill:#1f77b4;stroke:#000000;stroke-linejoin:miter;"/>
   </g>
   <g id="patch_199">
    <path clip-path="url(#p239b914bc8)" d="M 1101.174318 305.059875 
L 1106.247045 305.059875 
L 1106.247045 305.059875 
L 1101.174318 305.059875 
z
" style="fill:#1f77b4;stroke:#000000;stroke-linejoin:miter;"/>
   </g>
   <g id="patch_200">
    <path clip-path="url(#p239b914bc8)" d="M 1106.247045 305.059875 
L 1111.319773 305.059875 
L 1111.319773 305.059875 
L 1106.247045 305.059875 
z
" style="fill:#1f77b4;stroke:#000000;stroke-linejoin:miter;"/>
   </g>
   <g id="patch_201">
    <path clip-path="url(#p239b914bc8)" d="M 1111.319773 305.059875 
L 1116.3925 305.059875 
L 1116.3925 305.059875 
L 1111.319773 305.059875 
z
" style="fill:#1f77b4;stroke:#000000;stroke-linejoin:miter;"/>
   </g>
   <g id="patch_202">
    <path clip-path="url(#p239b914bc8)" d="M 1116.3925 305.059875 
L 1121.465227 305.059875 
L 1121.465227 304.730959 
L 1116.3925 304.730959 
z
" style="fill:#1f77b4;stroke:#000000;stroke-linejoin:miter;"/>
   </g>
   <g id="matplotlib.axis_1">
    <g id="xtick_1">
     <g id="line2d_1">
      <defs>
       <path d="M 0 0 
L 0 3.5 
" id="m74385dd11f" style="stroke:#000000;stroke-width:0.8;"/>
      </defs>
      <g>
       <use style="stroke:#000000;stroke-width:0.8;" x="150.439149" xlink:href="#m74385dd11f" y="305.059875"/>
      </g>
     </g>
     <g id="text_1">
      <!-- −3 -->
      <defs>
       <path d="M 10.59375 35.5 
L 73.1875 35.5 
L 73.1875 27.203125 
L 10.59375 27.203125 
z
" id="DejaVuSans-2212"/>
       <path d="M 40.578125 39.3125 
Q 47.65625 37.796875 51.625 33 
Q 55.609375 28.21875 55.609375 21.1875 
Q 55.609375 10.40625 48.1875 4.484375 
Q 40.765625 -1.421875 27.09375 -1.421875 
Q 22.515625 -1.421875 17.65625 -0.515625 
Q 12.796875 0.390625 7.625 2.203125 
L 7.625 11.71875 
Q 11.71875 9.328125 16.59375 8.109375 
Q 21.484375 6.890625 26.8125 6.890625 
Q 36.078125 6.890625 40.9375 10.546875 
Q 45.796875 14.203125 45.796875 21.1875 
Q 45.796875 27.640625 41.28125 31.265625 
Q 36.765625 34.90625 28.71875 34.90625 
L 20.21875 34.90625 
L 20.21875 43.015625 
L 29.109375 43.015625 
Q 36.375 43.015625 40.234375 45.921875 
Q 44.09375 48.828125 44.09375 54.296875 
Q 44.09375 59.90625 40.109375 62.90625 
Q 36.140625 65.921875 28.71875 65.921875 
Q 24.65625 65.921875 20.015625 65.03125 
Q 15.375 64.15625 9.8125 62.3125 
L 9.8125 71.09375 
Q 15.4375 72.65625 20.34375 73.4375 
Q 25.25 74.21875 29.59375 74.21875 
Q 40.828125 74.21875 47.359375 69.109375 
Q 53.90625 64.015625 53.90625 55.328125 
Q 53.90625 49.265625 50.4375 45.09375 
Q 46.96875 40.921875 40.578125 39.3125 
z
" id="DejaVuSans-33"/>
      </defs>
      <g transform="translate(134.222743 328.776437)scale(0.22 -0.22)">
       <use xlink:href="#DejaVuSans-2212"/>
       <use x="83.789062" xlink:href="#DejaVuSans-33"/>
      </g>
     </g>
    </g>
    <g id="xtick_2">
     <g id="line2d_2">
      <g>
       <use style="stroke:#000000;stroke-width:0.8;" x="302.756965" xlink:href="#m74385dd11f" y="305.059875"/>
      </g>
     </g>
     <g id="text_2">
      <!-- −2 -->
      <defs>
       <path d="M 19.1875 8.296875 
L 53.609375 8.296875 
L 53.609375 0 
L 7.328125 0 
L 7.328125 8.296875 
Q 12.9375 14.109375 22.625 23.890625 
Q 32.328125 33.6875 34.8125 36.53125 
Q 39.546875 41.84375 41.421875 45.53125 
Q 43.3125 49.21875 43.3125 52.78125 
Q 43.3125 58.59375 39.234375 62.25 
Q 35.15625 65.921875 28.609375 65.921875 
Q 23.96875 65.921875 18.8125 64.3125 
Q 13.671875 62.703125 7.8125 59.421875 
L 7.8125 69.390625 
Q 13.765625 71.78125 18.9375 73 
Q 24.125 74.21875 28.421875 74.21875 
Q 39.75 74.21875 46.484375 68.546875 
Q 53.21875 62.890625 53.21875 53.421875 
Q 53.21875 48.921875 51.53125 44.890625 
Q 49.859375 40.875 45.40625 35.40625 
Q 44.1875 33.984375 37.640625 27.21875 
Q 31.109375 20.453125 19.1875 8.296875 
z
" id="DejaVuSans-32"/>
      </defs>
      <g transform="translate(286.540559 328.776437)scale(0.22 -0.22)">
       <use xlink:href="#DejaVuSans-2212"/>
       <use x="83.789062" xlink:href="#DejaVuSans-32"/>
      </g>
     </g>
    </g>
    <g id="xtick_3">
     <g id="line2d_3">
      <g>
       <use style="stroke:#000000;stroke-width:0.8;" x="455.074781" xlink:href="#m74385dd11f" y="305.059875"/>
      </g>
     </g>
     <g id="text_3">
      <!-- −1 -->
      <defs>
       <path d="M 12.40625 8.296875 
L 28.515625 8.296875 
L 28.515625 63.921875 
L 10.984375 60.40625 
L 10.984375 69.390625 
L 28.421875 72.90625 
L 38.28125 72.90625 
L 38.28125 8.296875 
L 54.390625 8.296875 
L 54.390625 0 
L 12.40625 0 
z
" id="DejaVuSans-31"/>
      </defs>
      <g transform="translate(438.858375 328.776437)scale(0.22 -0.22)">
       <use xlink:href="#DejaVuSans-2212"/>
       <use x="83.789062" xlink:href="#DejaVuSans-31"/>
      </g>
     </g>
    </g>
    <g id="xtick_4">
     <g id="line2d_4">
      <g>
       <use style="stroke:#000000;stroke-width:0.8;" x="607.392597" xlink:href="#m74385dd11f" y="305.059875"/>
      </g>
     </g>
     <g id="text_4">
      <!-- 0 -->
      <defs>
       <path d="M 31.78125 66.40625 
Q 24.171875 66.40625 20.328125 58.90625 
Q 16.5 51.421875 16.5 36.375 
Q 16.5 21.390625 20.328125 13.890625 
Q 24.171875 6.390625 31.78125 6.390625 
Q 39.453125 6.390625 43.28125 13.890625 
Q 47.125 21.390625 47.125 36.375 
Q 47.125 51.421875 43.28125 58.90625 
Q 39.453125 66.40625 31.78125 66.40625 
z
M 31.78125 74.21875 
Q 44.046875 74.21875 50.515625 64.515625 
Q 56.984375 54.828125 56.984375 36.375 
Q 56.984375 17.96875 50.515625 8.265625 
Q 44.046875 -1.421875 31.78125 -1.421875 
Q 19.53125 -1.421875 13.0625 8.265625 
Q 6.59375 17.96875 6.59375 36.375 
Q 6.59375 54.828125 13.0625 64.515625 
Q 19.53125 74.21875 31.78125 74.21875 
z
" id="DejaVuSans-30"/>
      </defs>
      <g transform="translate(600.393847 328.776437)scale(0.22 -0.22)">
       <use xlink:href="#DejaVuSans-30"/>
      </g>
     </g>
    </g>
    <g id="xtick_5">
     <g id="line2d_5">
      <g>
       <use style="stroke:#000000;stroke-width:0.8;" x="759.710414" xlink:href="#m74385dd11f" y="305.059875"/>
      </g>
     </g>
     <g id="text_5">
      <!-- 1 -->
      <g transform="translate(752.711664 328.776437)scale(0.22 -0.22)">
       <use xlink:href="#DejaVuSans-31"/>
      </g>
     </g>
    </g>
    <g id="xtick_6">
     <g id="line2d_6">
      <g>
       <use style="stroke:#000000;stroke-width:0.8;" x="912.02823" xlink:href="#m74385dd11f" y="305.059875"/>
      </g>
     </g>
     <g id="text_6">
      <!-- 2 -->
      <g transform="translate(905.02948 328.776437)scale(0.22 -0.22)">
       <use xlink:href="#DejaVuSans-32"/>
      </g>
     </g>
    </g>
    <g id="xtick_7">
     <g id="line2d_7">
      <g>
       <use style="stroke:#000000;stroke-width:0.8;" x="1064.346046" xlink:href="#m74385dd11f" y="305.059875"/>
      </g>
     </g>
     <g id="text_7">
      <!-- 3 -->
      <g transform="translate(1057.347296 328.776437)scale(0.22 -0.22)">
       <use xlink:href="#DejaVuSans-33"/>
      </g>
     </g>
    </g>
    <g id="text_8">
     <!-- Delta (stars) -->
     <defs>
      <path d="M 19.671875 64.796875 
L 19.671875 8.109375 
L 31.59375 8.109375 
Q 46.6875 8.109375 53.6875 14.9375 
Q 60.6875 21.78125 60.6875 36.53125 
Q 60.6875 51.171875 53.6875 57.984375 
Q 46.6875 64.796875 31.59375 64.796875 
z
M 9.8125 72.90625 
L 30.078125 72.90625 
Q 51.265625 72.90625 61.171875 64.09375 
Q 71.09375 55.28125 71.09375 36.53125 
Q 71.09375 17.671875 61.125 8.828125 
Q 51.171875 0 30.078125 0 
L 9.8125 0 
z
" id="DejaVuSans-44"/>
      <path d="M 56.203125 29.59375 
L 56.203125 25.203125 
L 14.890625 25.203125 
Q 15.484375 15.921875 20.484375 11.0625 
Q 25.484375 6.203125 34.421875 6.203125 
Q 39.59375 6.203125 44.453125 7.46875 
Q 49.3125 8.734375 54.109375 11.28125 
L 54.109375 2.78125 
Q 49.265625 0.734375 44.1875 -0.34375 
Q 39.109375 -1.421875 33.890625 -1.421875 
Q 20.796875 -1.421875 13.15625 6.1875 
Q 5.515625 13.8125 5.515625 26.8125 
Q 5.515625 40.234375 12.765625 48.109375 
Q 20.015625 56 32.328125 56 
Q 43.359375 56 49.78125 48.890625 
Q 56.203125 41.796875 56.203125 29.59375 
z
M 47.21875 32.234375 
Q 47.125 39.59375 43.09375 43.984375 
Q 39.0625 48.390625 32.421875 48.390625 
Q 24.90625 48.390625 20.390625 44.140625 
Q 15.875 39.890625 15.1875 32.171875 
z
" id="DejaVuSans-65"/>
      <path d="M 9.421875 75.984375 
L 18.40625 75.984375 
L 18.40625 0 
L 9.421875 0 
z
" id="DejaVuSans-6c"/>
      <path d="M 18.3125 70.21875 
L 18.3125 54.6875 
L 36.8125 54.6875 
L 36.8125 47.703125 
L 18.3125 47.703125 
L 18.3125 18.015625 
Q 18.3125 11.328125 20.140625 9.421875 
Q 21.96875 7.515625 27.59375 7.515625 
L 36.8125 7.515625 
L 36.8125 0 
L 27.59375 0 
Q 17.1875 0 13.234375 3.875 
Q 9.28125 7.765625 9.28125 18.015625 
L 9.28125 47.703125 
L 2.6875 47.703125 
L 2.6875 54.6875 
L 9.28125 54.6875 
L 9.28125 70.21875 
z
" id="DejaVuSans-74"/>
      <path d="M 34.28125 27.484375 
Q 23.390625 27.484375 19.1875 25 
Q 14.984375 22.515625 14.984375 16.5 
Q 14.984375 11.71875 18.140625 8.90625 
Q 21.296875 6.109375 26.703125 6.109375 
Q 34.1875 6.109375 38.703125 11.40625 
Q 43.21875 16.703125 43.21875 25.484375 
L 43.21875 27.484375 
z
M 52.203125 31.203125 
L 52.203125 0 
L 43.21875 0 
L 43.21875 8.296875 
Q 40.140625 3.328125 35.546875 0.953125 
Q 30.953125 -1.421875 24.3125 -1.421875 
Q 15.921875 -1.421875 10.953125 3.296875 
Q 6 8.015625 6 15.921875 
Q 6 25.140625 12.171875 29.828125 
Q 18.359375 34.515625 30.609375 34.515625 
L 43.21875 34.515625 
L 43.21875 35.40625 
Q 43.21875 41.609375 39.140625 45 
Q 35.0625 48.390625 27.6875 48.390625 
Q 23 48.390625 18.546875 47.265625 
Q 14.109375 46.140625 10.015625 43.890625 
L 10.015625 52.203125 
Q 14.9375 54.109375 19.578125 55.046875 
Q 24.21875 56 28.609375 56 
Q 40.484375 56 46.34375 49.84375 
Q 52.203125 43.703125 52.203125 31.203125 
z
" id="DejaVuSans-61"/>
      <path id="DejaVuSans-20"/>
      <path d="M 31 75.875 
Q 24.46875 64.65625 21.28125 53.65625 
Q 18.109375 42.671875 18.109375 31.390625 
Q 18.109375 20.125 21.3125 9.0625 
Q 24.515625 -2 31 -13.1875 
L 23.1875 -13.1875 
Q 15.875 -1.703125 12.234375 9.375 
Q 8.59375 20.453125 8.59375 31.390625 
Q 8.59375 42.28125 12.203125 53.3125 
Q 15.828125 64.359375 23.1875 75.875 
z
" id="DejaVuSans-28"/>
      <path d="M 44.28125 53.078125 
L 44.28125 44.578125 
Q 40.484375 46.53125 36.375 47.5 
Q 32.28125 48.484375 27.875 48.484375 
Q 21.1875 48.484375 17.84375 46.4375 
Q 14.5 44.390625 14.5 40.28125 
Q 14.5 37.15625 16.890625 35.375 
Q 19.28125 33.59375 26.515625 31.984375 
L 29.59375 31.296875 
Q 39.15625 29.25 43.1875 25.515625 
Q 47.21875 21.78125 47.21875 15.09375 
Q 47.21875 7.46875 41.1875 3.015625 
Q 35.15625 -1.421875 24.609375 -1.421875 
Q 20.21875 -1.421875 15.453125 -0.5625 
Q 10.6875 0.296875 5.421875 2 
L 5.421875 11.28125 
Q 10.40625 8.6875 15.234375 7.390625 
Q 20.0625 6.109375 24.8125 6.109375 
Q 31.15625 6.109375 34.5625 8.28125 
Q 37.984375 10.453125 37.984375 14.40625 
Q 37.984375 18.0625 35.515625 20.015625 
Q 33.0625 21.96875 24.703125 23.78125 
L 21.578125 24.515625 
Q 13.234375 26.265625 9.515625 29.90625 
Q 5.8125 33.546875 5.8125 39.890625 
Q 5.8125 47.609375 11.28125 51.796875 
Q 16.75 56 26.8125 56 
Q 31.78125 56 36.171875 55.265625 
Q 40.578125 54.546875 44.28125 53.078125 
z
" id="DejaVuSans-73"/>
      <path d="M 41.109375 46.296875 
Q 39.59375 47.171875 37.8125 47.578125 
Q 36.03125 48 33.890625 48 
Q 26.265625 48 22.1875 43.046875 
Q 18.109375 38.09375 18.109375 28.8125 
L 18.109375 0 
L 9.078125 0 
L 9.078125 54.6875 
L 18.109375 54.6875 
L 18.109375 46.1875 
Q 20.953125 51.171875 25.484375 53.578125 
Q 30.03125 56 36.53125 56 
Q 37.453125 56 38.578125 55.875 
Q 39.703125 55.765625 41.0625 55.515625 
z
" id="DejaVuSans-72"/>
      <path d="M 8.015625 75.875 
L 15.828125 75.875 
Q 23.140625 64.359375 26.78125 53.3125 
Q 30.421875 42.28125 30.421875 31.390625 
Q 30.421875 20.453125 26.78125 9.375 
Q 23.140625 -1.703125 15.828125 -13.1875 
L 8.015625 -13.1875 
Q 14.5 -2 17.703125 9.0625 
Q 20.90625 20.125 20.90625 31.390625 
Q 20.90625 42.671875 17.703125 53.65625 
Q 14.5 64.65625 8.015625 75.875 
z
" id="DejaVuSans-29"/>
     </defs>
     <g transform="translate(545.729531 354.068312)scale(0.22 -0.22)">
      <use xlink:href="#DejaVuSans-44"/>
      <use x="77.001953" xlink:href="#DejaVuSans-65"/>
      <use x="138.525391" xlink:href="#DejaVuSans-6c"/>
      <use x="166.308594" xlink:href="#DejaVuSans-74"/>
      <use x="205.517578" xlink:href="#DejaVuSans-61"/>
      <use x="266.796875" xlink:href="#DejaVuSans-20"/>
      <use x="298.583984" xlink:href="#DejaVuSans-28"/>
      <use x="337.597656" xlink:href="#DejaVuSans-73"/>
      <use x="389.697266" xlink:href="#DejaVuSans-74"/>
      <use x="428.90625" xlink:href="#DejaVuSans-61"/>
      <use x="490.185547" xlink:href="#DejaVuSans-72"/>
      <use x="531.298828" xlink:href="#DejaVuSans-73"/>
      <use x="583.398438" xlink:href="#DejaVuSans-29"/>
     </g>
    </g>
   </g>
   <g id="matplotlib.axis_2">
    <g id="ytick_1">
     <g id="line2d_8">
      <defs>
       <path d="M 0 0 
L -3.5 0 
" id="mdc202072c1" style="stroke:#000000;stroke-width:0.8;"/>
      </defs>
      <g>
       <use style="stroke:#000000;stroke-width:0.8;" x="56.1925" xlink:href="#mdc202072c1" y="305.059875"/>
      </g>
     </g>
     <g id="text_9">
      <!-- 0 -->
      <g transform="translate(35.195 313.418156)scale(0.22 -0.22)">
       <use xlink:href="#DejaVuSans-30"/>
      </g>
     </g>
    </g>
    <g id="ytick_2">
     <g id="line2d_9">
      <g>
       <use style="stroke:#000000;stroke-width:0.8;" x="56.1925" xlink:href="#mdc202072c1" y="239.276611"/>
      </g>
     </g>
     <g id="text_10">
      <!-- 200 -->
      <g transform="translate(7.2 247.634892)scale(0.22 -0.22)">
       <use xlink:href="#DejaVuSans-32"/>
       <use x="63.623047" xlink:href="#DejaVuSans-30"/>
       <use x="127.246094" xlink:href="#DejaVuSans-30"/>
      </g>
     </g>
    </g>
    <g id="ytick_3">
     <g id="line2d_10">
      <g>
       <use style="stroke:#000000;stroke-width:0.8;" x="56.1925" xlink:href="#mdc202072c1" y="173.493347"/>
      </g>
     </g>
     <g id="text_11">
      <!-- 400 -->
      <defs>
       <path d="M 37.796875 64.3125 
L 12.890625 25.390625 
L 37.796875 25.390625 
z
M 35.203125 72.90625 
L 47.609375 72.90625 
L 47.609375 25.390625 
L 58.015625 25.390625 
L 58.015625 17.1875 
L 47.609375 17.1875 
L 47.609375 0 
L 37.796875 0 
L 37.796875 17.1875 
L 4.890625 17.1875 
L 4.890625 26.703125 
z
" id="DejaVuSans-34"/>
      </defs>
      <g transform="translate(7.2 181.851629)scale(0.22 -0.22)">
       <use xlink:href="#DejaVuSans-34"/>
       <use x="63.623047" xlink:href="#DejaVuSans-30"/>
       <use x="127.246094" xlink:href="#DejaVuSans-30"/>
      </g>
     </g>
    </g>
    <g id="ytick_4">
     <g id="line2d_11">
      <g>
       <use style="stroke:#000000;stroke-width:0.8;" x="56.1925" xlink:href="#mdc202072c1" y="107.710084"/>
      </g>
     </g>
     <g id="text_12">
      <!-- 600 -->
      <defs>
       <path d="M 33.015625 40.375 
Q 26.375 40.375 22.484375 35.828125 
Q 18.609375 31.296875 18.609375 23.390625 
Q 18.609375 15.53125 22.484375 10.953125 
Q 26.375 6.390625 33.015625 6.390625 
Q 39.65625 6.390625 43.53125 10.953125 
Q 47.40625 15.53125 47.40625 23.390625 
Q 47.40625 31.296875 43.53125 35.828125 
Q 39.65625 40.375 33.015625 40.375 
z
M 52.59375 71.296875 
L 52.59375 62.3125 
Q 48.875 64.0625 45.09375 64.984375 
Q 41.3125 65.921875 37.59375 65.921875 
Q 27.828125 65.921875 22.671875 59.328125 
Q 17.53125 52.734375 16.796875 39.40625 
Q 19.671875 43.65625 24.015625 45.921875 
Q 28.375 48.1875 33.59375 48.1875 
Q 44.578125 48.1875 50.953125 41.515625 
Q 57.328125 34.859375 57.328125 23.390625 
Q 57.328125 12.15625 50.6875 5.359375 
Q 44.046875 -1.421875 33.015625 -1.421875 
Q 20.359375 -1.421875 13.671875 8.265625 
Q 6.984375 17.96875 6.984375 36.375 
Q 6.984375 53.65625 15.1875 63.9375 
Q 23.390625 74.21875 37.203125 74.21875 
Q 40.921875 74.21875 44.703125 73.484375 
Q 48.484375 72.75 52.59375 71.296875 
z
" id="DejaVuSans-36"/>
      </defs>
      <g transform="translate(7.2 116.068365)scale(0.22 -0.22)">
       <use xlink:href="#DejaVuSans-36"/>
       <use x="63.623047" xlink:href="#DejaVuSans-30"/>
       <use x="127.246094" xlink:href="#DejaVuSans-30"/>
      </g>
     </g>
    </g>
    <g id="ytick_5">
     <g id="line2d_12">
      <g>
       <use style="stroke:#000000;stroke-width:0.8;" x="56.1925" xlink:href="#mdc202072c1" y="41.92682"/>
      </g>
     </g>
     <g id="text_13">
      <!-- 800 -->
      <defs>
       <path d="M 31.78125 34.625 
Q 24.75 34.625 20.71875 30.859375 
Q 16.703125 27.09375 16.703125 20.515625 
Q 16.703125 13.921875 20.71875 10.15625 
Q 24.75 6.390625 31.78125 6.390625 
Q 38.8125 6.390625 42.859375 10.171875 
Q 46.921875 13.96875 46.921875 20.515625 
Q 46.921875 27.09375 42.890625 30.859375 
Q 38.875 34.625 31.78125 34.625 
z
M 21.921875 38.8125 
Q 15.578125 40.375 12.03125 44.71875 
Q 8.5 49.078125 8.5 55.328125 
Q 8.5 64.0625 14.71875 69.140625 
Q 20.953125 74.21875 31.78125 74.21875 
Q 42.671875 74.21875 48.875 69.140625 
Q 55.078125 64.0625 55.078125 55.328125 
Q 55.078125 49.078125 51.53125 44.71875 
Q 48 40.375 41.703125 38.8125 
Q 48.828125 37.15625 52.796875 32.3125 
Q 56.78125 27.484375 56.78125 20.515625 
Q 56.78125 9.90625 50.3125 4.234375 
Q 43.84375 -1.421875 31.78125 -1.421875 
Q 19.734375 -1.421875 13.25 4.234375 
Q 6.78125 9.90625 6.78125 20.515625 
Q 6.78125 27.484375 10.78125 32.3125 
Q 14.796875 37.15625 21.921875 38.8125 
z
M 18.3125 54.390625 
Q 18.3125 48.734375 21.84375 45.5625 
Q 25.390625 42.390625 31.78125 42.390625 
Q 38.140625 42.390625 41.71875 45.5625 
Q 45.3125 48.734375 45.3125 54.390625 
Q 45.3125 60.0625 41.71875 63.234375 
Q 38.140625 66.40625 31.78125 66.40625 
Q 25.390625 66.40625 21.84375 63.234375 
Q 18.3125 60.0625 18.3125 54.390625 
z
" id="DejaVuSans-38"/>
      </defs>
      <g transform="translate(7.2 50.285101)scale(0.22 -0.22)">
       <use xlink:href="#DejaVuSans-38"/>
       <use x="63.623047" xlink:href="#DejaVuSans-30"/>
       <use x="127.246094" xlink:href="#DejaVuSans-30"/>
      </g>
     </g>
    </g>
   </g>
   <g id="patch_203">
    <path d="M 56.1925 305.059875 
L 56.1925 33.259875 
" style="fill:none;stroke:#000000;stroke-linecap:square;stroke-linejoin:miter;stroke-width:0.8;"/>
   </g>
   <g id="patch_204">
    <path d="M 1172.1925 305.059875 
L 1172.1925 33.259875 
" style="fill:none;stroke:#000000;stroke-linecap:square;stroke-linejoin:miter;stroke-width:0.8;"/>
   </g>
   <g id="patch_205">
    <path d="M 56.1925 305.059875 
L 1172.1925 305.059875 
" style="fill:none;stroke:#000000;stroke-linecap:square;stroke-linejoin:miter;stroke-width:0.8;"/>
   </g>
   <g id="patch_206">
    <path d="M 56.1925 33.259875 
L 1172.1925 33.259875 
" style="fill:none;stroke:#000000;stroke-linecap:square;stroke-linejoin:miter;stroke-width:0.8;"/>
   </g>
   <g id="text_14">
    <!-- Elite reviews compared to all user reviews -->
    <defs>
     <path d="M 9.8125 72.90625 
L 55.90625 72.90625 
L 55.90625 64.59375 
L 19.671875 64.59375 
L 19.671875 43.015625 
L 54.390625 43.015625 
L 54.390625 34.71875 
L 19.671875 34.71875 
L 19.671875 8.296875 
L 56.78125 8.296875 
L 56.78125 0 
L 9.8125 0 
z
" id="DejaVuSans-45"/>
     <path d="M 9.421875 54.6875 
L 18.40625 54.6875 
L 18.40625 0 
L 9.421875 0 
z
M 9.421875 75.984375 
L 18.40625 75.984375 
L 18.40625 64.59375 
L 9.421875 64.59375 
z
" id="DejaVuSans-69"/>
     <path d="M 2.984375 54.6875 
L 12.5 54.6875 
L 29.59375 8.796875 
L 46.6875 54.6875 
L 56.203125 54.6875 
L 35.6875 0 
L 23.484375 0 
z
" id="DejaVuSans-76"/>
     <path d="M 4.203125 54.6875 
L 13.1875 54.6875 
L 24.421875 12.015625 
L 35.59375 54.6875 
L 46.1875 54.6875 
L 57.421875 12.015625 
L 68.609375 54.6875 
L 77.59375 54.6875 
L 63.28125 0 
L 52.6875 0 
L 40.921875 44.828125 
L 29.109375 0 
L 18.5 0 
z
" id="DejaVuSans-77"/>
     <path d="M 48.78125 52.59375 
L 48.78125 44.1875 
Q 44.96875 46.296875 41.140625 47.34375 
Q 37.3125 48.390625 33.40625 48.390625 
Q 24.65625 48.390625 19.8125 42.84375 
Q 14.984375 37.3125 14.984375 27.296875 
Q 14.984375 17.28125 19.8125 11.734375 
Q 24.65625 6.203125 33.40625 6.203125 
Q 37.3125 6.203125 41.140625 7.25 
Q 44.96875 8.296875 48.78125 10.40625 
L 48.78125 2.09375 
Q 45.015625 0.34375 40.984375 -0.53125 
Q 36.96875 -1.421875 32.421875 -1.421875 
Q 20.0625 -1.421875 12.78125 6.34375 
Q 5.515625 14.109375 5.515625 27.296875 
Q 5.515625 40.671875 12.859375 48.328125 
Q 20.21875 56 33.015625 56 
Q 37.15625 56 41.109375 55.140625 
Q 45.0625 54.296875 48.78125 52.59375 
z
" id="DejaVuSans-63"/>
     <path d="M 30.609375 48.390625 
Q 23.390625 48.390625 19.1875 42.75 
Q 14.984375 37.109375 14.984375 27.296875 
Q 14.984375 17.484375 19.15625 11.84375 
Q 23.34375 6.203125 30.609375 6.203125 
Q 37.796875 6.203125 41.984375 11.859375 
Q 46.1875 17.53125 46.1875 27.296875 
Q 46.1875 37.015625 41.984375 42.703125 
Q 37.796875 48.390625 30.609375 48.390625 
z
M 30.609375 56 
Q 42.328125 56 49.015625 48.375 
Q 55.71875 40.765625 55.71875 27.296875 
Q 55.71875 13.875 49.015625 6.21875 
Q 42.328125 -1.421875 30.609375 -1.421875 
Q 18.84375 -1.421875 12.171875 6.21875 
Q 5.515625 13.875 5.515625 27.296875 
Q 5.515625 40.765625 12.171875 48.375 
Q 18.84375 56 30.609375 56 
z
" id="DejaVuSans-6f"/>
     <path d="M 52 44.1875 
Q 55.375 50.25 60.0625 53.125 
Q 64.75 56 71.09375 56 
Q 79.640625 56 84.28125 50.015625 
Q 88.921875 44.046875 88.921875 33.015625 
L 88.921875 0 
L 79.890625 0 
L 79.890625 32.71875 
Q 79.890625 40.578125 77.09375 44.375 
Q 74.3125 48.1875 68.609375 48.1875 
Q 61.625 48.1875 57.5625 43.546875 
Q 53.515625 38.921875 53.515625 30.90625 
L 53.515625 0 
L 44.484375 0 
L 44.484375 32.71875 
Q 44.484375 40.625 41.703125 44.40625 
Q 38.921875 48.1875 33.109375 48.1875 
Q 26.21875 48.1875 22.15625 43.53125 
Q 18.109375 38.875 18.109375 30.90625 
L 18.109375 0 
L 9.078125 0 
L 9.078125 54.6875 
L 18.109375 54.6875 
L 18.109375 46.1875 
Q 21.1875 51.21875 25.484375 53.609375 
Q 29.78125 56 35.6875 56 
Q 41.65625 56 45.828125 52.96875 
Q 50 49.953125 52 44.1875 
z
" id="DejaVuSans-6d"/>
     <path d="M 18.109375 8.203125 
L 18.109375 -20.796875 
L 9.078125 -20.796875 
L 9.078125 54.6875 
L 18.109375 54.6875 
L 18.109375 46.390625 
Q 20.953125 51.265625 25.265625 53.625 
Q 29.59375 56 35.59375 56 
Q 45.5625 56 51.78125 48.09375 
Q 58.015625 40.1875 58.015625 27.296875 
Q 58.015625 14.40625 51.78125 6.484375 
Q 45.5625 -1.421875 35.59375 -1.421875 
Q 29.59375 -1.421875 25.265625 0.953125 
Q 20.953125 3.328125 18.109375 8.203125 
z
M 48.6875 27.296875 
Q 48.6875 37.203125 44.609375 42.84375 
Q 40.53125 48.484375 33.40625 48.484375 
Q 26.265625 48.484375 22.1875 42.84375 
Q 18.109375 37.203125 18.109375 27.296875 
Q 18.109375 17.390625 22.1875 11.75 
Q 26.265625 6.109375 33.40625 6.109375 
Q 40.53125 6.109375 44.609375 11.75 
Q 48.6875 17.390625 48.6875 27.296875 
z
" id="DejaVuSans-70"/>
     <path d="M 45.40625 46.390625 
L 45.40625 75.984375 
L 54.390625 75.984375 
L 54.390625 0 
L 45.40625 0 
L 45.40625 8.203125 
Q 42.578125 3.328125 38.25 0.953125 
Q 33.9375 -1.421875 27.875 -1.421875 
Q 17.96875 -1.421875 11.734375 6.484375 
Q 5.515625 14.40625 5.515625 27.296875 
Q 5.515625 40.1875 11.734375 48.09375 
Q 17.96875 56 27.875 56 
Q 33.9375 56 38.25 53.625 
Q 42.578125 51.265625 45.40625 46.390625 
z
M 14.796875 27.296875 
Q 14.796875 17.390625 18.875 11.75 
Q 22.953125 6.109375 30.078125 6.109375 
Q 37.203125 6.109375 41.296875 11.75 
Q 45.40625 17.390625 45.40625 27.296875 
Q 45.40625 37.203125 41.296875 42.84375 
Q 37.203125 48.484375 30.078125 48.484375 
Q 22.953125 48.484375 18.875 42.84375 
Q 14.796875 37.203125 14.796875 27.296875 
z
" id="DejaVuSans-64"/>
     <path d="M 8.5 21.578125 
L 8.5 54.6875 
L 17.484375 54.6875 
L 17.484375 21.921875 
Q 17.484375 14.15625 20.5 10.265625 
Q 23.53125 6.390625 29.59375 6.390625 
Q 36.859375 6.390625 41.078125 11.03125 
Q 45.3125 15.671875 45.3125 23.6875 
L 45.3125 54.6875 
L 54.296875 54.6875 
L 54.296875 0 
L 45.3125 0 
L 45.3125 8.40625 
Q 42.046875 3.421875 37.71875 1 
Q 33.40625 -1.421875 27.6875 -1.421875 
Q 18.265625 -1.421875 13.375 4.4375 
Q 8.5 10.296875 8.5 21.578125 
z
M 31.109375 56 
z
" id="DejaVuSans-75"/>
    </defs>
    <g transform="translate(334.362812 27.259875)scale(0.264 -0.264)">
     <use xlink:href="#DejaVuSans-45"/>
     <use x="63.183594" xlink:href="#DejaVuSans-6c"/>
     <use x="90.966797" xlink:href="#DejaVuSans-69"/>
     <use x="118.75" xlink:href="#DejaVuSans-74"/>
     <use x="157.958984" xlink:href="#DejaVuSans-65"/>
     <use x="219.482422" xlink:href="#DejaVuSans-20"/>
     <use x="251.269531" xlink:href="#DejaVuSans-72"/>
     <use x="292.351562" xlink:href="#DejaVuSans-65"/>
     <use x="353.875" xlink:href="#DejaVuSans-76"/>
     <use x="413.054688" xlink:href="#DejaVuSans-69"/>
     <use x="440.837891" xlink:href="#DejaVuSans-65"/>
     <use x="502.361328" xlink:href="#DejaVuSans-77"/>
     <use x="584.148438" xlink:href="#DejaVuSans-73"/>
     <use x="636.248047" xlink:href="#DejaVuSans-20"/>
     <use x="668.035156" xlink:href="#DejaVuSans-63"/>
     <use x="723.015625" xlink:href="#DejaVuSans-6f"/>
     <use x="784.197266" xlink:href="#DejaVuSans-6d"/>
     <use x="881.609375" xlink:href="#DejaVuSans-70"/>
     <use x="945.085938" xlink:href="#DejaVuSans-61"/>
     <use x="1006.365234" xlink:href="#DejaVuSans-72"/>
     <use x="1047.447266" xlink:href="#DejaVuSans-65"/>
     <use x="1108.970703" xlink:href="#DejaVuSans-64"/>
     <use x="1172.447266" xlink:href="#DejaVuSans-20"/>
     <use x="1204.234375" xlink:href="#DejaVuSans-74"/>
     <use x="1243.443359" xlink:href="#DejaVuSans-6f"/>
     <use x="1304.625" xlink:href="#DejaVuSans-20"/>
     <use x="1336.412109" xlink:href="#DejaVuSans-61"/>
     <use x="1397.691406" xlink:href="#DejaVuSans-6c"/>
     <use x="1425.474609" xlink:href="#DejaVuSans-6c"/>
     <use x="1453.257812" xlink:href="#DejaVuSans-20"/>
     <use x="1485.044922" xlink:href="#DejaVuSans-75"/>
     <use x="1548.423828" xlink:href="#DejaVuSans-73"/>
     <use x="1600.523438" xlink:href="#DejaVuSans-65"/>
     <use x="1662.046875" xlink:href="#DejaVuSans-72"/>
     <use x="1703.160156" xlink:href="#DejaVuSans-20"/>
     <use x="1734.947266" xlink:href="#DejaVuSans-72"/>
     <use x="1776.029297" xlink:href="#DejaVuSans-65"/>
     <use x="1837.552734" xlink:href="#DejaVuSans-76"/>
     <use x="1896.732422" xlink:href="#DejaVuSans-69"/>
     <use x="1924.515625" xlink:href="#DejaVuSans-65"/>
     <use x="1986.039062" xlink:href="#DejaVuSans-77"/>
     <use x="2067.826172" xlink:href="#DejaVuSans-73"/>
    </g>
   </g>
  </g>
 </g>
 <defs>
  <clipPath id="p239b914bc8">
   <rect height="271.8" width="1116" x="56.1925" y="33.259875"/>
  </clipPath>
 </defs>
</svg>
