<?xml version="1.0" encoding="utf-8" standalone="no"?>
<!DOCTYPE svg PUBLIC "-//W3C//DTD SVG 1.1//EN"
  "http://www.w3.org/Graphics/SVG/1.1/DTD/svg11.dtd">
<!-- Created with matplotlib (http://matplotlib.org/) -->
<svg height="637.643625pt" version="1.1" viewBox="0 0 929.184375 637.643625" width="929.184375pt" xmlns="http://www.w3.org/2000/svg" xmlns:xlink="http://www.w3.org/1999/xlink">
 <defs>
  <style type="text/css">
*{stroke-linecap:butt;stroke-linejoin:round;}
  </style>
 </defs>
 <g id="figure_1">
  <g id="patch_1">
   <path d="M 0 637.643625 
L 929.184375 637.643625 
L 929.184375 0 
L 0 0 
z
" style="fill:#ffffff;"/>
  </g>
  <g id="axes_1">
   <g id="patch_2">
    <path d="M 81.484375 576.859875 
L 918.484375 576.859875 
L 918.484375 33.259875 
L 81.484375 33.259875 
z
" style="fill:#ffffff;"/>
   </g>
   <g id="matplotlib.axis_1">
    <g id="xtick_1">
     <g id="line2d_1">
      <defs>
       <path d="M 0 0 
L 0 3.5 
" id="m219d8eda69" style="stroke:#000000;stroke-width:0.8;"/>
      </defs>
      <g>
       <use style="stroke:#000000;stroke-width:0.8;" x="119.52983" xlink:href="#m219d8eda69" y="576.859875"/>
      </g>
     </g>
     <g id="text_1">
      <!-- 0 -->
      <defs>
       <path d="M 31.78125 66.40625 
Q 24.171875 66.40625 20.328125 58.90625 
Q 16.5 51.421875 16.5 36.375 
Q 16.5 21.390625 20.328125 13.890625 
Q 24.171875 6.390625 31.78125 6.390625 
Q 39.453125 6.390625 43.28125 13.890625 
Q 47.125 21.390625 47.125 36.375 
Q 47.125 51.421875 43.28125 58.90625 
Q 39.453125 66.40625 31.78125 66.40625 
z
M 31.78125 74.21875 
Q 44.046875 74.21875 50.515625 64.515625 
Q 56.984375 54.828125 56.984375 36.375 
Q 56.984375 17.96875 50.515625 8.265625 
Q 44.046875 -1.421875 31.78125 -1.421875 
Q 19.53125 -1.421875 13.0625 8.265625 
Q 6.59375 17.96875 6.59375 36.375 
Q 6.59375 54.828125 13.0625 64.515625 
Q 19.53125 74.21875 31.78125 74.21875 
z
" id="DejaVuSans-30"/>
      </defs>
      <g transform="translate(112.53108 600.576437)scale(0.22 -0.22)">
       <use xlink:href="#DejaVuSans-30"/>
      </g>
     </g>
    </g>
    <g id="xtick_2">
     <g id="line2d_2">
      <g>
       <use style="stroke:#000000;stroke-width:0.8;" x="273.248838" xlink:href="#m219d8eda69" y="576.859875"/>
      </g>
     </g>
     <g id="text_2">
      <!-- 20 -->
      <defs>
       <path d="M 19.1875 8.296875 
L 53.609375 8.296875 
L 53.609375 0 
L 7.328125 0 
L 7.328125 8.296875 
Q 12.9375 14.109375 22.625 23.890625 
Q 32.328125 33.6875 34.8125 36.53125 
Q 39.546875 41.84375 41.421875 45.53125 
Q 43.3125 49.21875 43.3125 52.78125 
Q 43.3125 58.59375 39.234375 62.25 
Q 35.15625 65.921875 28.609375 65.921875 
Q 23.96875 65.921875 18.8125 64.3125 
Q 13.671875 62.703125 7.8125 59.421875 
L 7.8125 69.390625 
Q 13.765625 71.78125 18.9375 73 
Q 24.125 74.21875 28.421875 74.21875 
Q 39.75 74.21875 46.484375 68.546875 
Q 53.21875 62.890625 53.21875 53.421875 
Q 53.21875 48.921875 51.53125 44.890625 
Q 49.859375 40.875 45.40625 35.40625 
Q 44.1875 33.984375 37.640625 27.21875 
Q 31.109375 20.453125 19.1875 8.296875 
z
" id="DejaVuSans-32"/>
      </defs>
      <g transform="translate(259.251338 600.576437)scale(0.22 -0.22)">
       <use xlink:href="#DejaVuSans-32"/>
       <use x="63.623047" xlink:href="#DejaVuSans-30"/>
      </g>
     </g>
    </g>
    <g id="xtick_3">
     <g id="line2d_3">
      <g>
       <use style="stroke:#000000;stroke-width:0.8;" x="426.967846" xlink:href="#m219d8eda69" y="576.859875"/>
      </g>
     </g>
     <g id="text_3">
      <!-- 40 -->
      <defs>
       <path d="M 37.796875 64.3125 
L 12.890625 25.390625 
L 37.796875 25.390625 
z
M 35.203125 72.90625 
L 47.609375 72.90625 
L 47.609375 25.390625 
L 58.015625 25.390625 
L 58.015625 17.1875 
L 47.609375 17.1875 
L 47.609375 0 
L 37.796875 0 
L 37.796875 17.1875 
L 4.890625 17.1875 
L 4.890625 26.703125 
z
" id="DejaVuSans-34"/>
      </defs>
      <g transform="translate(412.970346 600.576437)scale(0.22 -0.22)">
       <use xlink:href="#DejaVuSans-34"/>
       <use x="63.623047" xlink:href="#DejaVuSans-30"/>
      </g>
     </g>
    </g>
    <g id="xtick_4">
     <g id="line2d_4">
      <g>
       <use style="stroke:#000000;stroke-width:0.8;" x="580.686854" xlink:href="#m219d8eda69" y="576.859875"/>
      </g>
     </g>
     <g id="text_4">
      <!-- 60 -->
      <defs>
       <path d="M 33.015625 40.375 
Q 26.375 40.375 22.484375 35.828125 
Q 18.609375 31.296875 18.609375 23.390625 
Q 18.609375 15.53125 22.484375 10.953125 
Q 26.375 6.390625 33.015625 6.390625 
Q 39.65625 6.390625 43.53125 10.953125 
Q 47.40625 15.53125 47.40625 23.390625 
Q 47.40625 31.296875 43.53125 35.828125 
Q 39.65625 40.375 33.015625 40.375 
z
M 52.59375 71.296875 
L 52.59375 62.3125 
Q 48.875 64.0625 45.09375 64.984375 
Q 41.3125 65.921875 37.59375 65.921875 
Q 27.828125 65.921875 22.671875 59.328125 
Q 17.53125 52.734375 16.796875 39.40625 
Q 19.671875 43.65625 24.015625 45.921875 
Q 28.375 48.1875 33.59375 48.1875 
Q 44.578125 48.1875 50.953125 41.515625 
Q 57.328125 34.859375 57.328125 23.390625 
Q 57.328125 12.15625 50.6875 5.359375 
Q 44.046875 -1.421875 33.015625 -1.421875 
Q 20.359375 -1.421875 13.671875 8.265625 
Q 6.984375 17.96875 6.984375 36.375 
Q 6.984375 53.65625 15.1875 63.9375 
Q 23.390625 74.21875 37.203125 74.21875 
Q 40.921875 74.21875 44.703125 73.484375 
Q 48.484375 72.75 52.59375 71.296875 
z
" id="DejaVuSans-36"/>
      </defs>
      <g transform="translate(566.689354 600.576437)scale(0.22 -0.22)">
       <use xlink:href="#DejaVuSans-36"/>
       <use x="63.623047" xlink:href="#DejaVuSans-30"/>
      </g>
     </g>
    </g>
    <g id="xtick_5">
     <g id="line2d_5">
      <g>
       <use style="stroke:#000000;stroke-width:0.8;" x="734.405863" xlink:href="#m219d8eda69" y="576.859875"/>
      </g>
     </g>
     <g id="text_5">
      <!-- 80 -->
      <defs>
       <path d="M 31.78125 34.625 
Q 24.75 34.625 20.71875 30.859375 
Q 16.703125 27.09375 16.703125 20.515625 
Q 16.703125 13.921875 20.71875 10.15625 
Q 24.75 6.390625 31.78125 6.390625 
Q 38.8125 6.390625 42.859375 10.171875 
Q 46.921875 13.96875 46.921875 20.515625 
Q 46.921875 27.09375 42.890625 30.859375 
Q 38.875 34.625 31.78125 34.625 
z
M 21.921875 38.8125 
Q 15.578125 40.375 12.03125 44.71875 
Q 8.5 49.078125 8.5 55.328125 
Q 8.5 64.0625 14.71875 69.140625 
Q 20.953125 74.21875 31.78125 74.21875 
Q 42.671875 74.21875 48.875 69.140625 
Q 55.078125 64.0625 55.078125 55.328125 
Q 55.078125 49.078125 51.53125 44.71875 
Q 48 40.375 41.703125 38.8125 
Q 48.828125 37.15625 52.796875 32.3125 
Q 56.78125 27.484375 56.78125 20.515625 
Q 56.78125 9.90625 50.3125 4.234375 
Q 43.84375 -1.421875 31.78125 -1.421875 
Q 19.734375 -1.421875 13.25 4.234375 
Q 6.78125 9.90625 6.78125 20.515625 
Q 6.78125 27.484375 10.78125 32.3125 
Q 14.796875 37.15625 21.921875 38.8125 
z
M 18.3125 54.390625 
Q 18.3125 48.734375 21.84375 45.5625 
Q 25.390625 42.390625 31.78125 42.390625 
Q 38.140625 42.390625 41.71875 45.5625 
Q 45.3125 48.734375 45.3125 54.390625 
Q 45.3125 60.0625 41.71875 63.234375 
Q 38.140625 66.40625 31.78125 66.40625 
Q 25.390625 66.40625 21.84375 63.234375 
Q 18.3125 60.0625 18.3125 54.390625 
z
" id="DejaVuSans-38"/>
      </defs>
      <g transform="translate(720.408363 600.576437)scale(0.22 -0.22)">
       <use xlink:href="#DejaVuSans-38"/>
       <use x="63.623047" xlink:href="#DejaVuSans-30"/>
      </g>
     </g>
    </g>
    <g id="xtick_6">
     <g id="line2d_6">
      <g>
       <use style="stroke:#000000;stroke-width:0.8;" x="888.124871" xlink:href="#m219d8eda69" y="576.859875"/>
      </g>
     </g>
     <g id="text_6">
      <!-- 100 -->
      <defs>
       <path d="M 12.40625 8.296875 
L 28.515625 8.296875 
L 28.515625 63.921875 
L 10.984375 60.40625 
L 10.984375 69.390625 
L 28.421875 72.90625 
L 38.28125 72.90625 
L 38.28125 8.296875 
L 54.390625 8.296875 
L 54.390625 0 
L 12.40625 0 
z
" id="DejaVuSans-31"/>
      </defs>
      <g transform="translate(867.128621 600.576437)scale(0.22 -0.22)">
       <use xlink:href="#DejaVuSans-31"/>
       <use x="63.623047" xlink:href="#DejaVuSans-30"/>
       <use x="127.246094" xlink:href="#DejaVuSans-30"/>
      </g>
     </g>
    </g>
    <g id="text_7">
     <!-- Fraction of users removed from network -->
     <defs>
      <path d="M 9.8125 72.90625 
L 51.703125 72.90625 
L 51.703125 64.59375 
L 19.671875 64.59375 
L 19.671875 43.109375 
L 48.578125 43.109375 
L 48.578125 34.8125 
L 19.671875 34.8125 
L 19.671875 0 
L 9.8125 0 
z
" id="DejaVuSans-46"/>
      <path d="M 41.109375 46.296875 
Q 39.59375 47.171875 37.8125 47.578125 
Q 36.03125 48 33.890625 48 
Q 26.265625 48 22.1875 43.046875 
Q 18.109375 38.09375 18.109375 28.8125 
L 18.109375 0 
L 9.078125 0 
L 9.078125 54.6875 
L 18.109375 54.6875 
L 18.109375 46.1875 
Q 20.953125 51.171875 25.484375 53.578125 
Q 30.03125 56 36.53125 56 
Q 37.453125 56 38.578125 55.875 
Q 39.703125 55.765625 41.0625 55.515625 
z
" id="DejaVuSans-72"/>
      <path d="M 34.28125 27.484375 
Q 23.390625 27.484375 19.1875 25 
Q 14.984375 22.515625 14.984375 16.5 
Q 14.984375 11.71875 18.140625 8.90625 
Q 21.296875 6.109375 26.703125 6.109375 
Q 34.1875 6.109375 38.703125 11.40625 
Q 43.21875 16.703125 43.21875 25.484375 
L 43.21875 27.484375 
z
M 52.203125 31.203125 
L 52.203125 0 
L 43.21875 0 
L 43.21875 8.296875 
Q 40.140625 3.328125 35.546875 0.953125 
Q 30.953125 -1.421875 24.3125 -1.421875 
Q 15.921875 -1.421875 10.953125 3.296875 
Q 6 8.015625 6 15.921875 
Q 6 25.140625 12.171875 29.828125 
Q 18.359375 34.515625 30.609375 34.515625 
L 43.21875 34.515625 
L 43.21875 35.40625 
Q 43.21875 41.609375 39.140625 45 
Q 35.0625 48.390625 27.6875 48.390625 
Q 23 48.390625 18.546875 47.265625 
Q 14.109375 46.140625 10.015625 43.890625 
L 10.015625 52.203125 
Q 14.9375 54.109375 19.578125 55.046875 
Q 24.21875 56 28.609375 56 
Q 40.484375 56 46.34375 49.84375 
Q 52.203125 43.703125 52.203125 31.203125 
z
" id="DejaVuSans-61"/>
      <path d="M 48.78125 52.59375 
L 48.78125 44.1875 
Q 44.96875 46.296875 41.140625 47.34375 
Q 37.3125 48.390625 33.40625 48.390625 
Q 24.65625 48.390625 19.8125 42.84375 
Q 14.984375 37.3125 14.984375 27.296875 
Q 14.984375 17.28125 19.8125 11.734375 
Q 24.65625 6.203125 33.40625 6.203125 
Q 37.3125 6.203125 41.140625 7.25 
Q 44.96875 8.296875 48.78125 10.40625 
L 48.78125 2.09375 
Q 45.015625 0.34375 40.984375 -0.53125 
Q 36.96875 -1.421875 32.421875 -1.421875 
Q 20.0625 -1.421875 12.78125 6.34375 
Q 5.515625 14.109375 5.515625 27.296875 
Q 5.515625 40.671875 12.859375 48.328125 
Q 20.21875 56 33.015625 56 
Q 37.15625 56 41.109375 55.140625 
Q 45.0625 54.296875 48.78125 52.59375 
z
" id="DejaVuSans-63"/>
      <path d="M 18.3125 70.21875 
L 18.3125 54.6875 
L 36.8125 54.6875 
L 36.8125 47.703125 
L 18.3125 47.703125 
L 18.3125 18.015625 
Q 18.3125 11.328125 20.140625 9.421875 
Q 21.96875 7.515625 27.59375 7.515625 
L 36.8125 7.515625 
L 36.8125 0 
L 27.59375 0 
Q 17.1875 0 13.234375 3.875 
Q 9.28125 7.765625 9.28125 18.015625 
L 9.28125 47.703125 
L 2.6875 47.703125 
L 2.6875 54.6875 
L 9.28125 54.6875 
L 9.28125 70.21875 
z
" id="DejaVuSans-74"/>
      <path d="M 9.421875 54.6875 
L 18.40625 54.6875 
L 18.40625 0 
L 9.421875 0 
z
M 9.421875 75.984375 
L 18.40625 75.984375 
L 18.40625 64.59375 
L 9.421875 64.59375 
z
" id="DejaVuSans-69"/>
      <path d="M 30.609375 48.390625 
Q 23.390625 48.390625 19.1875 42.75 
Q 14.984375 37.109375 14.984375 27.296875 
Q 14.984375 17.484375 19.15625 11.84375 
Q 23.34375 6.203125 30.609375 6.203125 
Q 37.796875 6.203125 41.984375 11.859375 
Q 46.1875 17.53125 46.1875 27.296875 
Q 46.1875 37.015625 41.984375 42.703125 
Q 37.796875 48.390625 30.609375 48.390625 
z
M 30.609375 56 
Q 42.328125 56 49.015625 48.375 
Q 55.71875 40.765625 55.71875 27.296875 
Q 55.71875 13.875 49.015625 6.21875 
Q 42.328125 -1.421875 30.609375 -1.421875 
Q 18.84375 -1.421875 12.171875 6.21875 
Q 5.515625 13.875 5.515625 27.296875 
Q 5.515625 40.765625 12.171875 48.375 
Q 18.84375 56 30.609375 56 
z
" id="DejaVuSans-6f"/>
      <path d="M 54.890625 33.015625 
L 54.890625 0 
L 45.90625 0 
L 45.90625 32.71875 
Q 45.90625 40.484375 42.875 44.328125 
Q 39.84375 48.1875 33.796875 48.1875 
Q 26.515625 48.1875 22.3125 43.546875 
Q 18.109375 38.921875 18.109375 30.90625 
L 18.109375 0 
L 9.078125 0 
L 9.078125 54.6875 
L 18.109375 54.6875 
L 18.109375 46.1875 
Q 21.34375 51.125 25.703125 53.5625 
Q 30.078125 56 35.796875 56 
Q 45.21875 56 50.046875 50.171875 
Q 54.890625 44.34375 54.890625 33.015625 
z
" id="DejaVuSans-6e"/>
      <path id="DejaVuSans-20"/>
      <path d="M 37.109375 75.984375 
L 37.109375 68.5 
L 28.515625 68.5 
Q 23.6875 68.5 21.796875 66.546875 
Q 19.921875 64.59375 19.921875 59.515625 
L 19.921875 54.6875 
L 34.71875 54.6875 
L 34.71875 47.703125 
L 19.921875 47.703125 
L 19.921875 0 
L 10.890625 0 
L 10.890625 47.703125 
L 2.296875 47.703125 
L 2.296875 54.6875 
L 10.890625 54.6875 
L 10.890625 58.5 
Q 10.890625 67.625 15.140625 71.796875 
Q 19.390625 75.984375 28.609375 75.984375 
z
" id="DejaVuSans-66"/>
      <path d="M 8.5 21.578125 
L 8.5 54.6875 
L 17.484375 54.6875 
L 17.484375 21.921875 
Q 17.484375 14.15625 20.5 10.265625 
Q 23.53125 6.390625 29.59375 6.390625 
Q 36.859375 6.390625 41.078125 11.03125 
Q 45.3125 15.671875 45.3125 23.6875 
L 45.3125 54.6875 
L 54.296875 54.6875 
L 54.296875 0 
L 45.3125 0 
L 45.3125 8.40625 
Q 42.046875 3.421875 37.71875 1 
Q 33.40625 -1.421875 27.6875 -1.421875 
Q 18.265625 -1.421875 13.375 4.4375 
Q 8.5 10.296875 8.5 21.578125 
z
M 31.109375 56 
z
" id="DejaVuSans-75"/>
      <path d="M 44.28125 53.078125 
L 44.28125 44.578125 
Q 40.484375 46.53125 36.375 47.5 
Q 32.28125 48.484375 27.875 48.484375 
Q 21.1875 48.484375 17.84375 46.4375 
Q 14.5 44.390625 14.5 40.28125 
Q 14.5 37.15625 16.890625 35.375 
Q 19.28125 33.59375 26.515625 31.984375 
L 29.59375 31.296875 
Q 39.15625 29.25 43.1875 25.515625 
Q 47.21875 21.78125 47.21875 15.09375 
Q 47.21875 7.46875 41.1875 3.015625 
Q 35.15625 -1.421875 24.609375 -1.421875 
Q 20.21875 -1.421875 15.453125 -0.5625 
Q 10.6875 0.296875 5.421875 2 
L 5.421875 11.28125 
Q 10.40625 8.6875 15.234375 7.390625 
Q 20.0625 6.109375 24.8125 6.109375 
Q 31.15625 6.109375 34.5625 8.28125 
Q 37.984375 10.453125 37.984375 14.40625 
Q 37.984375 18.0625 35.515625 20.015625 
Q 33.0625 21.96875 24.703125 23.78125 
L 21.578125 24.515625 
Q 13.234375 26.265625 9.515625 29.90625 
Q 5.8125 33.546875 5.8125 39.890625 
Q 5.8125 47.609375 11.28125 51.796875 
Q 16.75 56 26.8125 56 
Q 31.78125 56 36.171875 55.265625 
Q 40.578125 54.546875 44.28125 53.078125 
z
" id="DejaVuSans-73"/>
      <path d="M 56.203125 29.59375 
L 56.203125 25.203125 
L 14.890625 25.203125 
Q 15.484375 15.921875 20.484375 11.0625 
Q 25.484375 6.203125 34.421875 6.203125 
Q 39.59375 6.203125 44.453125 7.46875 
Q 49.3125 8.734375 54.109375 11.28125 
L 54.109375 2.78125 
Q 49.265625 0.734375 44.1875 -0.34375 
Q 39.109375 -1.421875 33.890625 -1.421875 
Q 20.796875 -1.421875 13.15625 6.1875 
Q 5.515625 13.8125 5.515625 26.8125 
Q 5.515625 40.234375 12.765625 48.109375 
Q 20.015625 56 32.328125 56 
Q 43.359375 56 49.78125 48.890625 
Q 56.203125 41.796875 56.203125 29.59375 
z
M 47.21875 32.234375 
Q 47.125 39.59375 43.09375 43.984375 
Q 39.0625 48.390625 32.421875 48.390625 
Q 24.90625 48.390625 20.390625 44.140625 
Q 15.875 39.890625 15.1875 32.171875 
z
" id="DejaVuSans-65"/>
      <path d="M 52 44.1875 
Q 55.375 50.25 60.0625 53.125 
Q 64.75 56 71.09375 56 
Q 79.640625 56 84.28125 50.015625 
Q 88.921875 44.046875 88.921875 33.015625 
L 88.921875 0 
L 79.890625 0 
L 79.890625 32.71875 
Q 79.890625 40.578125 77.09375 44.375 
Q 74.3125 48.1875 68.609375 48.1875 
Q 61.625 48.1875 57.5625 43.546875 
Q 53.515625 38.921875 53.515625 30.90625 
L 53.515625 0 
L 44.484375 0 
L 44.484375 32.71875 
Q 44.484375 40.625 41.703125 44.40625 
Q 38.921875 48.1875 33.109375 48.1875 
Q 26.21875 48.1875 22.15625 43.53125 
Q 18.109375 38.875 18.109375 30.90625 
L 18.109375 0 
L 9.078125 0 
L 9.078125 54.6875 
L 18.109375 54.6875 
L 18.109375 46.1875 
Q 21.1875 51.21875 25.484375 53.609375 
Q 29.78125 56 35.6875 56 
Q 41.65625 56 45.828125 52.96875 
Q 50 49.953125 52 44.1875 
z
" id="DejaVuSans-6d"/>
      <path d="M 2.984375 54.6875 
L 12.5 54.6875 
L 29.59375 8.796875 
L 46.6875 54.6875 
L 56.203125 54.6875 
L 35.6875 0 
L 23.484375 0 
z
" id="DejaVuSans-76"/>
      <path d="M 45.40625 46.390625 
L 45.40625 75.984375 
L 54.390625 75.984375 
L 54.390625 0 
L 45.40625 0 
L 45.40625 8.203125 
Q 42.578125 3.328125 38.25 0.953125 
Q 33.9375 -1.421875 27.875 -1.421875 
Q 17.96875 -1.421875 11.734375 6.484375 
Q 5.515625 14.40625 5.515625 27.296875 
Q 5.515625 40.1875 11.734375 48.09375 
Q 17.96875 56 27.875 56 
Q 33.9375 56 38.25 53.625 
Q 42.578125 51.265625 45.40625 46.390625 
z
M 14.796875 27.296875 
Q 14.796875 17.390625 18.875 11.75 
Q 22.953125 6.109375 30.078125 6.109375 
Q 37.203125 6.109375 41.296875 11.75 
Q 45.40625 17.390625 45.40625 27.296875 
Q 45.40625 37.203125 41.296875 42.84375 
Q 37.203125 48.484375 30.078125 48.484375 
Q 22.953125 48.484375 18.875 42.84375 
Q 14.796875 37.203125 14.796875 27.296875 
z
" id="DejaVuSans-64"/>
      <path d="M 4.203125 54.6875 
L 13.1875 54.6875 
L 24.421875 12.015625 
L 35.59375 54.6875 
L 46.1875 54.6875 
L 57.421875 12.015625 
L 68.609375 54.6875 
L 77.59375 54.6875 
L 63.28125 0 
L 52.6875 0 
L 40.921875 44.828125 
L 29.109375 0 
L 18.5 0 
z
" id="DejaVuSans-77"/>
      <path d="M 9.078125 75.984375 
L 18.109375 75.984375 
L 18.109375 31.109375 
L 44.921875 54.6875 
L 56.390625 54.6875 
L 27.390625 29.109375 
L 57.625 0 
L 45.90625 0 
L 18.109375 26.703125 
L 18.109375 0 
L 9.078125 0 
z
" id="DejaVuSans-6b"/>
     </defs>
     <g transform="translate(277.982031 625.868312)scale(0.22 -0.22)">
      <use xlink:href="#DejaVuSans-46"/>
      <use x="57.410156" xlink:href="#DejaVuSans-72"/>
      <use x="98.523438" xlink:href="#DejaVuSans-61"/>
      <use x="159.802734" xlink:href="#DejaVuSans-63"/>
      <use x="214.783203" xlink:href="#DejaVuSans-74"/>
      <use x="253.992188" xlink:href="#DejaVuSans-69"/>
      <use x="281.775391" xlink:href="#DejaVuSans-6f"/>
      <use x="342.957031" xlink:href="#DejaVuSans-6e"/>
      <use x="406.335938" xlink:href="#DejaVuSans-20"/>
      <use x="438.123047" xlink:href="#DejaVuSans-6f"/>
      <use x="499.304688" xlink:href="#DejaVuSans-66"/>
      <use x="534.509766" xlink:href="#DejaVuSans-20"/>
      <use x="566.296875" xlink:href="#DejaVuSans-75"/>
      <use x="629.675781" xlink:href="#DejaVuSans-73"/>
      <use x="681.775391" xlink:href="#DejaVuSans-65"/>
      <use x="743.298828" xlink:href="#DejaVuSans-72"/>
      <use x="784.412109" xlink:href="#DejaVuSans-73"/>
      <use x="836.511719" xlink:href="#DejaVuSans-20"/>
      <use x="868.298828" xlink:href="#DejaVuSans-72"/>
      <use x="909.380859" xlink:href="#DejaVuSans-65"/>
      <use x="970.904297" xlink:href="#DejaVuSans-6d"/>
      <use x="1068.316406" xlink:href="#DejaVuSans-6f"/>
      <use x="1129.498047" xlink:href="#DejaVuSans-76"/>
      <use x="1188.677734" xlink:href="#DejaVuSans-65"/>
      <use x="1250.201172" xlink:href="#DejaVuSans-64"/>
      <use x="1313.677734" xlink:href="#DejaVuSans-20"/>
      <use x="1345.464844" xlink:href="#DejaVuSans-66"/>
      <use x="1380.669922" xlink:href="#DejaVuSans-72"/>
      <use x="1421.751953" xlink:href="#DejaVuSans-6f"/>
      <use x="1482.933594" xlink:href="#DejaVuSans-6d"/>
      <use x="1580.345703" xlink:href="#DejaVuSans-20"/>
      <use x="1612.132812" xlink:href="#DejaVuSans-6e"/>
      <use x="1675.511719" xlink:href="#DejaVuSans-65"/>
      <use x="1737.035156" xlink:href="#DejaVuSans-74"/>
      <use x="1776.244141" xlink:href="#DejaVuSans-77"/>
      <use x="1858.03125" xlink:href="#DejaVuSans-6f"/>
      <use x="1919.212891" xlink:href="#DejaVuSans-72"/>
      <use x="1960.326172" xlink:href="#DejaVuSans-6b"/>
     </g>
    </g>
   </g>
   <g id="matplotlib.axis_2">
    <g id="ytick_1">
     <g id="line2d_7">
      <defs>
       <path d="M 0 0 
L -3.5 0 
" id="mc2415e9f4e" style="stroke:#000000;stroke-width:0.8;"/>
      </defs>
      <g>
       <use style="stroke:#000000;stroke-width:0.8;" x="81.484375" xlink:href="#mc2415e9f4e" y="574.41406"/>
      </g>
     </g>
     <g id="text_8">
      <!-- 65 -->
      <defs>
       <path d="M 10.796875 72.90625 
L 49.515625 72.90625 
L 49.515625 64.59375 
L 19.828125 64.59375 
L 19.828125 46.734375 
Q 21.96875 47.46875 24.109375 47.828125 
Q 26.265625 48.1875 28.421875 48.1875 
Q 40.625 48.1875 47.75 41.5 
Q 54.890625 34.8125 54.890625 23.390625 
Q 54.890625 11.625 47.5625 5.09375 
Q 40.234375 -1.421875 26.90625 -1.421875 
Q 22.3125 -1.421875 17.546875 -0.640625 
Q 12.796875 0.140625 7.71875 1.703125 
L 7.71875 11.625 
Q 12.109375 9.234375 16.796875 8.0625 
Q 21.484375 6.890625 26.703125 6.890625 
Q 35.15625 6.890625 40.078125 11.328125 
Q 45.015625 15.765625 45.015625 23.390625 
Q 45.015625 31 40.078125 35.4375 
Q 35.15625 39.890625 26.703125 39.890625 
Q 22.75 39.890625 18.8125 39.015625 
Q 14.890625 38.140625 10.796875 36.28125 
z
" id="DejaVuSans-35"/>
      </defs>
      <g transform="translate(46.489375 582.772341)scale(0.22 -0.22)">
       <use xlink:href="#DejaVuSans-36"/>
       <use x="63.623047" xlink:href="#DejaVuSans-35"/>
      </g>
     </g>
    </g>
    <g id="ytick_2">
     <g id="line2d_8">
      <g>
       <use style="stroke:#000000;stroke-width:0.8;" x="81.484375" xlink:href="#mc2415e9f4e" y="500.636189"/>
      </g>
     </g>
     <g id="text_9">
      <!-- 70 -->
      <defs>
       <path d="M 8.203125 72.90625 
L 55.078125 72.90625 
L 55.078125 68.703125 
L 28.609375 0 
L 18.3125 0 
L 43.21875 64.59375 
L 8.203125 64.59375 
z
" id="DejaVuSans-37"/>
      </defs>
      <g transform="translate(46.489375 508.994471)scale(0.22 -0.22)">
       <use xlink:href="#DejaVuSans-37"/>
       <use x="63.623047" xlink:href="#DejaVuSans-30"/>
      </g>
     </g>
    </g>
    <g id="ytick_3">
     <g id="line2d_9">
      <g>
       <use style="stroke:#000000;stroke-width:0.8;" x="81.484375" xlink:href="#mc2415e9f4e" y="426.858319"/>
      </g>
     </g>
     <g id="text_10">
      <!-- 75 -->
      <g transform="translate(46.489375 435.2166)scale(0.22 -0.22)">
       <use xlink:href="#DejaVuSans-37"/>
       <use x="63.623047" xlink:href="#DejaVuSans-35"/>
      </g>
     </g>
    </g>
    <g id="ytick_4">
     <g id="line2d_10">
      <g>
       <use style="stroke:#000000;stroke-width:0.8;" x="81.484375" xlink:href="#mc2415e9f4e" y="353.080448"/>
      </g>
     </g>
     <g id="text_11">
      <!-- 80 -->
      <g transform="translate(46.489375 361.438729)scale(0.22 -0.22)">
       <use xlink:href="#DejaVuSans-38"/>
       <use x="63.623047" xlink:href="#DejaVuSans-30"/>
      </g>
     </g>
    </g>
    <g id="ytick_5">
     <g id="line2d_11">
      <g>
       <use style="stroke:#000000;stroke-width:0.8;" x="81.484375" xlink:href="#mc2415e9f4e" y="279.302578"/>
      </g>
     </g>
     <g id="text_12">
      <!-- 85 -->
      <g transform="translate(46.489375 287.660859)scale(0.22 -0.22)">
       <use xlink:href="#DejaVuSans-38"/>
       <use x="63.623047" xlink:href="#DejaVuSans-35"/>
      </g>
     </g>
    </g>
    <g id="ytick_6">
     <g id="line2d_12">
      <g>
       <use style="stroke:#000000;stroke-width:0.8;" x="81.484375" xlink:href="#mc2415e9f4e" y="205.524707"/>
      </g>
     </g>
     <g id="text_13">
      <!-- 90 -->
      <defs>
       <path d="M 10.984375 1.515625 
L 10.984375 10.5 
Q 14.703125 8.734375 18.5 7.8125 
Q 22.3125 6.890625 25.984375 6.890625 
Q 35.75 6.890625 40.890625 13.453125 
Q 46.046875 20.015625 46.78125 33.40625 
Q 43.953125 29.203125 39.59375 26.953125 
Q 35.25 24.703125 29.984375 24.703125 
Q 19.046875 24.703125 12.671875 31.3125 
Q 6.296875 37.9375 6.296875 49.421875 
Q 6.296875 60.640625 12.9375 67.421875 
Q 19.578125 74.21875 30.609375 74.21875 
Q 43.265625 74.21875 49.921875 64.515625 
Q 56.59375 54.828125 56.59375 36.375 
Q 56.59375 19.140625 48.40625 8.859375 
Q 40.234375 -1.421875 26.421875 -1.421875 
Q 22.703125 -1.421875 18.890625 -0.6875 
Q 15.09375 0.046875 10.984375 1.515625 
z
M 30.609375 32.421875 
Q 37.25 32.421875 41.125 36.953125 
Q 45.015625 41.5 45.015625 49.421875 
Q 45.015625 57.28125 41.125 61.84375 
Q 37.25 66.40625 30.609375 66.40625 
Q 23.96875 66.40625 20.09375 61.84375 
Q 16.21875 57.28125 16.21875 49.421875 
Q 16.21875 41.5 20.09375 36.953125 
Q 23.96875 32.421875 30.609375 32.421875 
z
" id="DejaVuSans-39"/>
      </defs>
      <g transform="translate(46.489375 213.882988)scale(0.22 -0.22)">
       <use xlink:href="#DejaVuSans-39"/>
       <use x="63.623047" xlink:href="#DejaVuSans-30"/>
      </g>
     </g>
    </g>
    <g id="ytick_7">
     <g id="line2d_13">
      <g>
       <use style="stroke:#000000;stroke-width:0.8;" x="81.484375" xlink:href="#mc2415e9f4e" y="131.746836"/>
      </g>
     </g>
     <g id="text_14">
      <!-- 95 -->
      <g transform="translate(46.489375 140.105118)scale(0.22 -0.22)">
       <use xlink:href="#DejaVuSans-39"/>
       <use x="63.623047" xlink:href="#DejaVuSans-35"/>
      </g>
     </g>
    </g>
    <g id="ytick_8">
     <g id="line2d_14">
      <g>
       <use style="stroke:#000000;stroke-width:0.8;" x="81.484375" xlink:href="#mc2415e9f4e" y="57.968966"/>
      </g>
     </g>
     <g id="text_15">
      <!-- 100 -->
      <g transform="translate(32.491875 66.327247)scale(0.22 -0.22)">
       <use xlink:href="#DejaVuSans-31"/>
       <use x="63.623047" xlink:href="#DejaVuSans-30"/>
       <use x="127.246094" xlink:href="#DejaVuSans-30"/>
      </g>
     </g>
    </g>
    <g id="text_16">
     <!-- % of original network size (nodes) -->
     <defs>
      <path d="M 72.703125 32.078125 
Q 68.453125 32.078125 66.03125 28.46875 
Q 63.625 24.859375 63.625 18.40625 
Q 63.625 12.0625 66.03125 8.421875 
Q 68.453125 4.78125 72.703125 4.78125 
Q 76.859375 4.78125 79.265625 8.421875 
Q 81.6875 12.0625 81.6875 18.40625 
Q 81.6875 24.8125 79.265625 28.4375 
Q 76.859375 32.078125 72.703125 32.078125 
z
M 72.703125 38.28125 
Q 80.421875 38.28125 84.953125 32.90625 
Q 89.5 27.546875 89.5 18.40625 
Q 89.5 9.28125 84.9375 3.921875 
Q 80.375 -1.421875 72.703125 -1.421875 
Q 64.890625 -1.421875 60.34375 3.921875 
Q 55.8125 9.28125 55.8125 18.40625 
Q 55.8125 27.59375 60.375 32.9375 
Q 64.9375 38.28125 72.703125 38.28125 
z
M 22.3125 68.015625 
Q 18.109375 68.015625 15.6875 64.375 
Q 13.28125 60.75 13.28125 54.390625 
Q 13.28125 47.953125 15.671875 44.328125 
Q 18.0625 40.71875 22.3125 40.71875 
Q 26.5625 40.71875 28.96875 44.328125 
Q 31.390625 47.953125 31.390625 54.390625 
Q 31.390625 60.6875 28.953125 64.34375 
Q 26.515625 68.015625 22.3125 68.015625 
z
M 66.40625 74.21875 
L 74.21875 74.21875 
L 28.609375 -1.421875 
L 20.796875 -1.421875 
z
M 22.3125 74.21875 
Q 30.03125 74.21875 34.609375 68.875 
Q 39.203125 63.53125 39.203125 54.390625 
Q 39.203125 45.171875 34.640625 39.84375 
Q 30.078125 34.515625 22.3125 34.515625 
Q 14.546875 34.515625 10.03125 39.859375 
Q 5.515625 45.21875 5.515625 54.390625 
Q 5.515625 63.484375 10.046875 68.84375 
Q 14.59375 74.21875 22.3125 74.21875 
z
" id="DejaVuSans-25"/>
      <path d="M 45.40625 27.984375 
Q 45.40625 37.75 41.375 43.109375 
Q 37.359375 48.484375 30.078125 48.484375 
Q 22.859375 48.484375 18.828125 43.109375 
Q 14.796875 37.75 14.796875 27.984375 
Q 14.796875 18.265625 18.828125 12.890625 
Q 22.859375 7.515625 30.078125 7.515625 
Q 37.359375 7.515625 41.375 12.890625 
Q 45.40625 18.265625 45.40625 27.984375 
z
M 54.390625 6.78125 
Q 54.390625 -7.171875 48.1875 -13.984375 
Q 42 -20.796875 29.203125 -20.796875 
Q 24.46875 -20.796875 20.265625 -20.09375 
Q 16.0625 -19.390625 12.109375 -17.921875 
L 12.109375 -9.1875 
Q 16.0625 -11.328125 19.921875 -12.34375 
Q 23.78125 -13.375 27.78125 -13.375 
Q 36.625 -13.375 41.015625 -8.765625 
Q 45.40625 -4.15625 45.40625 5.171875 
L 45.40625 9.625 
Q 42.625 4.78125 38.28125 2.390625 
Q 33.9375 0 27.875 0 
Q 17.828125 0 11.671875 7.65625 
Q 5.515625 15.328125 5.515625 27.984375 
Q 5.515625 40.671875 11.671875 48.328125 
Q 17.828125 56 27.875 56 
Q 33.9375 56 38.28125 53.609375 
Q 42.625 51.21875 45.40625 46.390625 
L 45.40625 54.6875 
L 54.390625 54.6875 
z
" id="DejaVuSans-67"/>
      <path d="M 9.421875 75.984375 
L 18.40625 75.984375 
L 18.40625 0 
L 9.421875 0 
z
" id="DejaVuSans-6c"/>
      <path d="M 5.515625 54.6875 
L 48.1875 54.6875 
L 48.1875 46.484375 
L 14.40625 7.171875 
L 48.1875 7.171875 
L 48.1875 0 
L 4.296875 0 
L 4.296875 8.203125 
L 38.09375 47.515625 
L 5.515625 47.515625 
z
" id="DejaVuSans-7a"/>
      <path d="M 31 75.875 
Q 24.46875 64.65625 21.28125 53.65625 
Q 18.109375 42.671875 18.109375 31.390625 
Q 18.109375 20.125 21.3125 9.0625 
Q 24.515625 -2 31 -13.1875 
L 23.1875 -13.1875 
Q 15.875 -1.703125 12.234375 9.375 
Q 8.59375 20.453125 8.59375 31.390625 
Q 8.59375 42.28125 12.203125 53.3125 
Q 15.828125 64.359375 23.1875 75.875 
z
" id="DejaVuSans-28"/>
      <path d="M 8.015625 75.875 
L 15.828125 75.875 
Q 23.140625 64.359375 26.78125 53.3125 
Q 30.421875 42.28125 30.421875 31.390625 
Q 30.421875 20.453125 26.78125 9.375 
Q 23.140625 -1.703125 15.828125 -13.1875 
L 8.015625 -13.1875 
Q 14.5 -2 17.703125 9.0625 
Q 20.90625 20.125 20.90625 31.390625 
Q 20.90625 42.671875 17.703125 53.65625 
Q 14.5 64.65625 8.015625 75.875 
z
" id="DejaVuSans-29"/>
     </defs>
     <g transform="translate(23.916563 492.475812)rotate(-90)scale(0.22 -0.22)">
      <use xlink:href="#DejaVuSans-25"/>
      <use x="95.019531" xlink:href="#DejaVuSans-20"/>
      <use x="126.806641" xlink:href="#DejaVuSans-6f"/>
      <use x="187.988281" xlink:href="#DejaVuSans-66"/>
      <use x="223.193359" xlink:href="#DejaVuSans-20"/>
      <use x="254.980469" xlink:href="#DejaVuSans-6f"/>
      <use x="316.162109" xlink:href="#DejaVuSans-72"/>
      <use x="357.275391" xlink:href="#DejaVuSans-69"/>
      <use x="385.058594" xlink:href="#DejaVuSans-67"/>
      <use x="448.535156" xlink:href="#DejaVuSans-69"/>
      <use x="476.318359" xlink:href="#DejaVuSans-6e"/>
      <use x="539.697266" xlink:href="#DejaVuSans-61"/>
      <use x="600.976562" xlink:href="#DejaVuSans-6c"/>
      <use x="628.759766" xlink:href="#DejaVuSans-20"/>
      <use x="660.546875" xlink:href="#DejaVuSans-6e"/>
      <use x="723.925781" xlink:href="#DejaVuSans-65"/>
      <use x="785.449219" xlink:href="#DejaVuSans-74"/>
      <use x="824.658203" xlink:href="#DejaVuSans-77"/>
      <use x="906.445312" xlink:href="#DejaVuSans-6f"/>
      <use x="967.626953" xlink:href="#DejaVuSans-72"/>
      <use x="1008.740234" xlink:href="#DejaVuSans-6b"/>
      <use x="1066.650391" xlink:href="#DejaVuSans-20"/>
      <use x="1098.4375" xlink:href="#DejaVuSans-73"/>
      <use x="1150.537109" xlink:href="#DejaVuSans-69"/>
      <use x="1178.320312" xlink:href="#DejaVuSans-7a"/>
      <use x="1230.810547" xlink:href="#DejaVuSans-65"/>
      <use x="1292.333984" xlink:href="#DejaVuSans-20"/>
      <use x="1324.121094" xlink:href="#DejaVuSans-28"/>
      <use x="1363.134766" xlink:href="#DejaVuSans-6e"/>
      <use x="1426.513672" xlink:href="#DejaVuSans-6f"/>
      <use x="1487.695312" xlink:href="#DejaVuSans-64"/>
      <use x="1551.171875" xlink:href="#DejaVuSans-65"/>
      <use x="1612.695312" xlink:href="#DejaVuSans-73"/>
      <use x="1664.794922" xlink:href="#DejaVuSans-29"/>
     </g>
    </g>
   </g>
   <g id="line2d_15">
    <path clip-path="url(#p6e024e1930)" d="M 119.52983 57.968966 
L 127.21578 61.421321 
L 134.90173 65.226848 
L 142.587681 68.503609 
L 150.273631 73.670237 
L 157.959582 76.659302 
L 165.645532 82.377513 
L 173.331482 85.491577 
L 181.017433 89.677062 
L 188.703383 93.767309 
L 196.389334 97.243474 
L 204.075284 100.534124 
L 211.761235 103.479538 
L 219.447185 108.374343 
L 227.133135 112.718556 
L 234.819086 118.822677 
L 242.505036 123.816687 
L 250.190987 127.217456 
L 257.876937 131.825556 
L 265.562887 139.442563 
L 273.248838 142.642936 
L 280.934788 145.792714 
L 288.620739 148.950428 
L 296.306689 154.134913 
L 303.992639 157.712267 
L 311.67859 162.265805 
L 319.36454 165.617962 
L 327.050491 173.266714 
L 334.736441 178.495842 
L 342.422392 182.410495 
L 350.108342 187.636646 
L 357.794292 191.521538 
L 365.480243 195.366747 
L 373.166193 201.522455 
L 380.852144 206.073016 
L 388.538094 210.742624 
L 396.224044 213.684071 
L 403.909995 221.672106 
L 411.595945 225.343706 
L 419.281896 231.325804 
L 426.967846 234.515264 
L 434.653796 241.144183 
L 442.339747 246.599499 
L 450.025697 250.158004 
L 457.711648 253.662938 
L 465.397598 258.702583 
L 473.083549 262.688664 
L 480.769499 268.823539 
L 488.455449 273.534813 
L 496.1414 278.85521 
L 503.82735 282.413715 
L 511.513301 286.740072 
L 519.199251 293.611052 
L 526.885201 298.100106 
L 534.571152 303.360979 
L 542.257102 308.93931 
L 549.943053 313.614871 
L 557.629003 318.794395 
L 565.314954 324.28741 
L 573.000904 327.826074 
L 580.686854 331.94509 
L 588.372805 337.815086 
L 596.058755 345.907288 
L 603.744706 349.974717 
L 611.430656 353.482628 
L 619.116606 357.803032 
L 626.802557 361.042095 
L 634.488507 365.823805 
L 642.174458 373.339622 
L 649.860408 379.049897 
L 657.546358 383.765139 
L 665.232309 387.887132 
L 672.918259 393.611296 
L 680.60421 399.270976 
L 688.29016 405.125098 
L 695.976111 409.008998 
L 703.662061 415.173634 
L 711.348011 419.705347 
L 719.033962 425.549549 
L 726.719912 431.501885 
L 734.405863 435.435388 
L 742.091813 439.6923 
L 749.777763 451.217016 
L 757.463714 457.391572 
L 765.149664 461.663366 
L 772.835615 465.043301 
L 780.521565 470.232746 
L 788.207515 477.039243 
L 795.893466 481.332862 
L 803.579416 485.536203 
L 811.265367 488.562966 
L 818.951317 493.446858 
L 826.637268 502.539052 
L 834.323218 512.528065 
L 842.009168 517.145094 
L 849.695119 526.848394 
L 857.381069 534.159847 
L 865.06702 541.856218 
L 872.75297 548.04764 
L 880.43892 552.150784 
" style="fill:none;stroke:#1f77b4;stroke-linecap:square;stroke-width:1.5;"/>
   </g>
   <g id="line2d_16">
    <path clip-path="url(#p6e024e1930)" d="M 119.52983 57.968966 
L 127.21578 58.74277 
L 134.90173 59.617763 
L 142.587681 60.128672 
L 150.273631 61.011602 
L 157.959582 61.506638 
L 165.645532 62.431234 
L 173.331482 63.393528 
L 181.017433 63.888564 
L 188.703383 64.425267 
L 196.389334 64.607805 
L 204.075284 65.364744 
L 211.761235 65.879621 
L 219.447185 66.591917 
L 227.133135 67.348856 
L 234.819086 68.175239 
L 242.505036 69.142493 
L 250.190987 70.733751 
L 257.876937 71.137518 
L 265.562887 71.946044 
L 273.248838 72.62957 
L 280.934788 73.22282 
L 288.620739 73.917259 
L 296.306689 74.797213 
L 303.992639 75.341852 
L 311.67859 76.214861 
L 319.36454 77.276361 
L 327.050491 78.140442 
L 334.736441 78.938055 
L 342.422392 79.383488 
L 350.108342 79.819001 
L 357.794292 80.564035 
L 365.480243 81.548155 
L 373.166193 82.32295 
L 380.852144 83.091794 
L 388.538094 83.639409 
L 396.224044 84.07889 
L 403.909995 84.68702 
L 411.595945 85.364594 
L 419.281896 85.747528 
L 426.967846 86.460816 
L 434.653796 86.820933 
L 442.339747 88.111598 
L 450.025697 88.494531 
L 457.711648 88.825878 
L 465.397598 89.604642 
L 473.083549 90.387374 
L 480.769499 91.4082 
L 488.455449 92.268312 
L 496.1414 93.255408 
L 503.82735 93.625445 
L 511.513301 94.311948 
L 519.199251 95.063926 
L 526.885201 95.899238 
L 534.571152 96.30102 
L 542.257102 96.915103 
L 549.943053 97.549027 
L 557.629003 98.162118 
L 565.314954 98.63632 
L 573.000904 99.227586 
L 580.686854 100.07381 
L 588.372805 100.533132 
L 596.058755 101.28015 
L 603.744706 101.829749 
L 611.430656 102.392245 
L 619.116606 102.855535 
L 626.802557 103.491443 
L 634.488507 104.181914 
L 642.174458 104.642228 
L 649.860408 105.055915 
L 657.546358 105.729521 
L 665.232309 106.051939 
L 672.918259 107.171971 
L 680.60421 107.512246 
L 688.29016 107.931886 
L 695.976111 108.690809 
L 703.662061 109.581675 
L 711.348011 110.037029 
L 719.033962 110.493374 
L 726.719912 110.816785 
L 734.405863 111.280075 
L 742.091813 111.705667 
L 749.777763 112.527089 
L 757.463714 113.157045 
L 765.149664 114.735406 
L 772.835615 115.561789 
L 780.521565 116.124285 
L 788.207515 116.657019 
L 795.893466 116.903049 
L 803.579416 117.614353 
L 811.265367 118.343514 
L 818.951317 119.078628 
L 826.637268 119.969494 
L 834.323218 120.463538 
L 842.009168 121.137144 
L 849.695119 121.993288 
L 857.381069 123.131177 
L 865.06702 123.976409 
L 872.75297 124.457556 
L 880.43892 125.076599 
" style="fill:none;stroke:#ff7f0e;stroke-linecap:square;stroke-width:1.5;"/>
   </g>
   <g id="line2d_17">
    <path clip-path="url(#p6e024e1930)" d="M 119.52983 57.968966 
L 127.21578 59.055267 
L 134.90173 59.710024 
L 142.587681 61.37271 
L 150.273631 61.847905 
L 157.959582 62.394528 
L 165.645532 63.459996 
L 173.331482 64.8082 
L 181.017433 65.601845 
L 188.703383 66.584973 
L 196.389334 66.978819 
L 204.075284 68.152421 
L 211.761235 68.973844 
L 219.447185 70.172248 
L 227.133135 71.119661 
L 234.819086 71.930171 
L 242.505036 72.350803 
L 250.190987 73.050202 
L 257.876937 73.889482 
L 265.562887 74.577969 
L 273.248838 75.41328 
L 280.934788 76.492637 
L 288.620739 77.110688 
L 296.306689 77.929134 
L 303.992639 78.513455 
L 311.67859 79.286267 
L 319.36454 80.069991 
L 327.050491 80.739629 
L 334.736441 81.229705 
L 342.422392 82.157277 
L 350.108342 82.849732 
L 357.794292 83.818971 
L 365.480243 85.330864 
L 373.166193 86.652283 
L 380.852144 87.483626 
L 388.538094 88.453857 
L 396.224044 89.107622 
L 403.909995 89.776268 
L 411.595945 91.118519 
L 419.281896 92.26732 
L 426.967846 93.972665 
L 434.653796 98.489496 
L 442.339747 99.341672 
L 450.025697 100.29107 
L 457.711648 101.867447 
L 465.397598 102.652163 
L 473.083549 103.437872 
L 480.769499 104.555919 
L 488.455449 105.512261 
L 496.1414 106.823759 
L 503.82735 107.449746 
L 511.513301 108.579698 
L 519.199251 109.226519 
L 526.885201 109.847546 
L 534.571152 111.712611 
L 542.257102 112.480463 
L 549.943053 113.713588 
L 557.629003 114.391163 
L 565.314954 114.900088 
L 573.000904 115.711589 
L 580.686854 116.780034 
L 588.372805 117.475465 
L 596.058755 119.26315 
L 603.744706 119.621282 
L 611.430656 120.446673 
L 619.116606 121.285952 
L 626.802557 121.735354 
L 634.488507 122.255191 
L 642.174458 123.689704 
L 649.860408 124.683744 
L 657.546358 125.667864 
L 665.232309 126.33155 
L 672.918259 127.494239 
L 680.60421 128.276972 
L 688.29016 129.10633 
L 695.976111 130.52001 
L 703.662061 131.75016 
L 711.348011 132.521979 
L 719.033962 133.388044 
L 726.719912 133.861255 
L 734.405863 134.405894 
L 742.091813 135.618186 
L 749.777763 136.85032 
L 757.463714 137.579481 
L 765.149664 138.042772 
L 772.835615 139.030859 
L 780.521565 140.130057 
L 788.207515 141.392945 
L 795.893466 142.3602 
L 803.579416 143.245114 
L 811.265367 144.491136 
L 818.951317 145.385971 
L 826.637268 146.852229 
L 834.323218 148.409757 
L 842.009168 148.993086 
L 849.695119 149.802604 
L 857.381069 150.631963 
L 865.06702 151.296641 
L 872.75297 152.201396 
L 880.43892 152.954366 
" style="fill:none;stroke:#2ca02c;stroke-linecap:square;stroke-width:1.5;"/>
   </g>
   <g id="patch_3">
    <path d="M 81.484375 576.859875 
L 81.484375 33.259875 
" style="fill:none;stroke:#000000;stroke-linecap:square;stroke-linejoin:miter;stroke-width:0.8;"/>
   </g>
   <g id="patch_4">
    <path d="M 918.484375 576.859875 
L 918.484375 33.259875 
" style="fill:none;stroke:#000000;stroke-linecap:square;stroke-linejoin:miter;stroke-width:0.8;"/>
   </g>
   <g id="patch_5">
    <path d="M 81.484375 576.859875 
L 918.484375 576.859875 
" style="fill:none;stroke:#000000;stroke-linecap:square;stroke-linejoin:miter;stroke-width:0.8;"/>
   </g>
   <g id="patch_6">
    <path d="M 81.484375 33.259875 
L 918.484375 33.259875 
" style="fill:none;stroke:#000000;stroke-linecap:square;stroke-linejoin:miter;stroke-width:0.8;"/>
   </g>
   <g id="text_17">
    <!-- LCC Size as a function of users removed -->
    <defs>
     <path d="M 9.8125 72.90625 
L 19.671875 72.90625 
L 19.671875 8.296875 
L 55.171875 8.296875 
L 55.171875 0 
L 9.8125 0 
z
" id="DejaVuSans-4c"/>
     <path d="M 64.40625 67.28125 
L 64.40625 56.890625 
Q 59.421875 61.53125 53.78125 63.8125 
Q 48.140625 66.109375 41.796875 66.109375 
Q 29.296875 66.109375 22.65625 58.46875 
Q 16.015625 50.828125 16.015625 36.375 
Q 16.015625 21.96875 22.65625 14.328125 
Q 29.296875 6.6875 41.796875 6.6875 
Q 48.140625 6.6875 53.78125 8.984375 
Q 59.421875 11.28125 64.40625 15.921875 
L 64.40625 5.609375 
Q 59.234375 2.09375 53.4375 0.328125 
Q 47.65625 -1.421875 41.21875 -1.421875 
Q 24.65625 -1.421875 15.125 8.703125 
Q 5.609375 18.84375 5.609375 36.375 
Q 5.609375 53.953125 15.125 64.078125 
Q 24.65625 74.21875 41.21875 74.21875 
Q 47.75 74.21875 53.53125 72.484375 
Q 59.328125 70.75 64.40625 67.28125 
z
" id="DejaVuSans-43"/>
     <path d="M 53.515625 70.515625 
L 53.515625 60.890625 
Q 47.90625 63.578125 42.921875 64.890625 
Q 37.9375 66.21875 33.296875 66.21875 
Q 25.25 66.21875 20.875 63.09375 
Q 16.5 59.96875 16.5 54.203125 
Q 16.5 49.359375 19.40625 46.890625 
Q 22.3125 44.4375 30.421875 42.921875 
L 36.375 41.703125 
Q 47.40625 39.59375 52.65625 34.296875 
Q 57.90625 29 57.90625 20.125 
Q 57.90625 9.515625 50.796875 4.046875 
Q 43.703125 -1.421875 29.984375 -1.421875 
Q 24.8125 -1.421875 18.96875 -0.25 
Q 13.140625 0.921875 6.890625 3.21875 
L 6.890625 13.375 
Q 12.890625 10.015625 18.65625 8.296875 
Q 24.421875 6.59375 29.984375 6.59375 
Q 38.421875 6.59375 43.015625 9.90625 
Q 47.609375 13.234375 47.609375 19.390625 
Q 47.609375 24.75 44.3125 27.78125 
Q 41.015625 30.8125 33.5 32.328125 
L 27.484375 33.5 
Q 16.453125 35.6875 11.515625 40.375 
Q 6.59375 45.0625 6.59375 53.421875 
Q 6.59375 63.09375 13.40625 68.65625 
Q 20.21875 74.21875 32.171875 74.21875 
Q 37.3125 74.21875 42.625 73.28125 
Q 47.953125 72.359375 53.515625 70.515625 
z
" id="DejaVuSans-53"/>
    </defs>
    <g transform="translate(233.573312 27.259875)scale(0.264 -0.264)">
     <use xlink:href="#DejaVuSans-4c"/>
     <use x="55.712891" xlink:href="#DejaVuSans-43"/>
     <use x="125.537109" xlink:href="#DejaVuSans-43"/>
     <use x="195.361328" xlink:href="#DejaVuSans-20"/>
     <use x="227.148438" xlink:href="#DejaVuSans-53"/>
     <use x="290.625" xlink:href="#DejaVuSans-69"/>
     <use x="318.408203" xlink:href="#DejaVuSans-7a"/>
     <use x="370.898438" xlink:href="#DejaVuSans-65"/>
     <use x="432.421875" xlink:href="#DejaVuSans-20"/>
     <use x="464.208984" xlink:href="#DejaVuSans-61"/>
     <use x="525.488281" xlink:href="#DejaVuSans-73"/>
     <use x="577.587891" xlink:href="#DejaVuSans-20"/>
     <use x="609.375" xlink:href="#DejaVuSans-61"/>
     <use x="670.654297" xlink:href="#DejaVuSans-20"/>
     <use x="702.441406" xlink:href="#DejaVuSans-66"/>
     <use x="737.646484" xlink:href="#DejaVuSans-75"/>
     <use x="801.025391" xlink:href="#DejaVuSans-6e"/>
     <use x="864.404297" xlink:href="#DejaVuSans-63"/>
     <use x="919.384766" xlink:href="#DejaVuSans-74"/>
     <use x="958.59375" xlink:href="#DejaVuSans-69"/>
     <use x="986.376953" xlink:href="#DejaVuSans-6f"/>
     <use x="1047.558594" xlink:href="#DejaVuSans-6e"/>
     <use x="1110.9375" xlink:href="#DejaVuSans-20"/>
     <use x="1142.724609" xlink:href="#DejaVuSans-6f"/>
     <use x="1203.90625" xlink:href="#DejaVuSans-66"/>
     <use x="1239.111328" xlink:href="#DejaVuSans-20"/>
     <use x="1270.898438" xlink:href="#DejaVuSans-75"/>
     <use x="1334.277344" xlink:href="#DejaVuSans-73"/>
     <use x="1386.376953" xlink:href="#DejaVuSans-65"/>
     <use x="1447.900391" xlink:href="#DejaVuSans-72"/>
     <use x="1489.013672" xlink:href="#DejaVuSans-73"/>
     <use x="1541.113281" xlink:href="#DejaVuSans-20"/>
     <use x="1572.900391" xlink:href="#DejaVuSans-72"/>
     <use x="1613.982422" xlink:href="#DejaVuSans-65"/>
     <use x="1675.505859" xlink:href="#DejaVuSans-6d"/>
     <use x="1772.917969" xlink:href="#DejaVuSans-6f"/>
     <use x="1834.099609" xlink:href="#DejaVuSans-76"/>
     <use x="1893.279297" xlink:href="#DejaVuSans-65"/>
     <use x="1954.802734" xlink:href="#DejaVuSans-64"/>
    </g>
   </g>
   <g id="legend_1">
    <g id="patch_7">
     <path d="M 96.884375 565.859875 
L 325.282188 565.859875 
Q 329.682188 565.859875 329.682188 561.459875 
L 329.682188 466.78425 
Q 329.682188 462.38425 325.282188 462.38425 
L 96.884375 462.38425 
Q 92.484375 462.38425 92.484375 466.78425 
L 92.484375 561.459875 
Q 92.484375 565.859875 96.884375 565.859875 
z
" style="fill:#ffffff;opacity:0.8;stroke:#cccccc;stroke-linejoin:miter;"/>
    </g>
    <g id="line2d_18">
     <path d="M 101.284375 480.200812 
L 145.284375 480.200812 
" style="fill:none;stroke:#1f77b4;stroke-linecap:square;stroke-width:1.5;"/>
    </g>
    <g id="line2d_19"/>
    <g id="text_18">
     <!-- Elite users -->
     <defs>
      <path d="M 9.8125 72.90625 
L 55.90625 72.90625 
L 55.90625 64.59375 
L 19.671875 64.59375 
L 19.671875 43.015625 
L 54.390625 43.015625 
L 54.390625 34.71875 
L 19.671875 34.71875 
L 19.671875 8.296875 
L 56.78125 8.296875 
L 56.78125 0 
L 9.8125 0 
z
" id="DejaVuSans-45"/>
     </defs>
     <g transform="translate(162.884375 487.900812)scale(0.22 -0.22)">
      <use xlink:href="#DejaVuSans-45"/>
      <use x="63.183594" xlink:href="#DejaVuSans-6c"/>
      <use x="90.966797" xlink:href="#DejaVuSans-69"/>
      <use x="118.75" xlink:href="#DejaVuSans-74"/>
      <use x="157.958984" xlink:href="#DejaVuSans-65"/>
      <use x="219.482422" xlink:href="#DejaVuSans-20"/>
      <use x="251.269531" xlink:href="#DejaVuSans-75"/>
      <use x="314.648438" xlink:href="#DejaVuSans-73"/>
      <use x="366.748047" xlink:href="#DejaVuSans-65"/>
      <use x="428.271484" xlink:href="#DejaVuSans-72"/>
      <use x="469.384766" xlink:href="#DejaVuSans-73"/>
     </g>
    </g>
    <g id="line2d_20">
     <path d="M 101.284375 512.492687 
L 145.284375 512.492687 
" style="fill:none;stroke:#ff7f0e;stroke-linecap:square;stroke-width:1.5;"/>
    </g>
    <g id="line2d_21"/>
    <g id="text_19">
     <!-- Regular users -->
     <defs>
      <path d="M 44.390625 34.1875 
Q 47.5625 33.109375 50.5625 29.59375 
Q 53.5625 26.078125 56.59375 19.921875 
L 66.609375 0 
L 56 0 
L 46.6875 18.703125 
Q 43.0625 26.03125 39.671875 28.421875 
Q 36.28125 30.8125 30.421875 30.8125 
L 19.671875 30.8125 
L 19.671875 0 
L 9.8125 0 
L 9.8125 72.90625 
L 32.078125 72.90625 
Q 44.578125 72.90625 50.734375 67.671875 
Q 56.890625 62.453125 56.890625 51.90625 
Q 56.890625 45.015625 53.6875 40.46875 
Q 50.484375 35.9375 44.390625 34.1875 
z
M 19.671875 64.796875 
L 19.671875 38.921875 
L 32.078125 38.921875 
Q 39.203125 38.921875 42.84375 42.21875 
Q 46.484375 45.515625 46.484375 51.90625 
Q 46.484375 58.296875 42.84375 61.546875 
Q 39.203125 64.796875 32.078125 64.796875 
z
" id="DejaVuSans-52"/>
     </defs>
     <g transform="translate(162.884375 520.192687)scale(0.22 -0.22)">
      <use xlink:href="#DejaVuSans-52"/>
      <use x="69.419922" xlink:href="#DejaVuSans-65"/>
      <use x="130.943359" xlink:href="#DejaVuSans-67"/>
      <use x="194.419922" xlink:href="#DejaVuSans-75"/>
      <use x="257.798828" xlink:href="#DejaVuSans-6c"/>
      <use x="285.582031" xlink:href="#DejaVuSans-61"/>
      <use x="346.861328" xlink:href="#DejaVuSans-72"/>
      <use x="387.974609" xlink:href="#DejaVuSans-20"/>
      <use x="419.761719" xlink:href="#DejaVuSans-75"/>
      <use x="483.140625" xlink:href="#DejaVuSans-73"/>
      <use x="535.240234" xlink:href="#DejaVuSans-65"/>
      <use x="596.763672" xlink:href="#DejaVuSans-72"/>
      <use x="637.876953" xlink:href="#DejaVuSans-73"/>
     </g>
    </g>
    <g id="line2d_22">
     <path d="M 101.284375 544.784562 
L 145.284375 544.784562 
" style="fill:none;stroke:#2ca02c;stroke-linecap:square;stroke-width:1.5;"/>
    </g>
    <g id="line2d_23"/>
    <g id="text_20">
     <!-- Random users -->
     <g transform="translate(162.884375 552.484562)scale(0.22 -0.22)">
      <use xlink:href="#DejaVuSans-52"/>
      <use x="69.451172" xlink:href="#DejaVuSans-61"/>
      <use x="130.730469" xlink:href="#DejaVuSans-6e"/>
      <use x="194.109375" xlink:href="#DejaVuSans-64"/>
      <use x="257.585938" xlink:href="#DejaVuSans-6f"/>
      <use x="318.767578" xlink:href="#DejaVuSans-6d"/>
      <use x="416.179688" xlink:href="#DejaVuSans-20"/>
      <use x="447.966797" xlink:href="#DejaVuSans-75"/>
      <use x="511.345703" xlink:href="#DejaVuSans-73"/>
      <use x="563.445312" xlink:href="#DejaVuSans-65"/>
      <use x="624.96875" xlink:href="#DejaVuSans-72"/>
      <use x="666.082031" xlink:href="#DejaVuSans-73"/>
     </g>
    </g>
   </g>
  </g>
 </g>
 <defs>
  <clipPath id="p6e024e1930">
   <rect height="543.6" width="837" x="81.484375" y="33.259875"/>
  </clipPath>
 </defs>
</svg>
