<?xml version="1.0" encoding="utf-8" standalone="no"?>
<!DOCTYPE svg PUBLIC "-//W3C//DTD SVG 1.1//EN"
  "http://www.w3.org/Graphics/SVG/1.1/DTD/svg11.dtd">
<!-- Created with matplotlib (http://matplotlib.org/) -->
<svg height="637.643625pt" version="1.1" viewBox="0 0 925.911875 637.643625" width="925.911875pt" xmlns="http://www.w3.org/2000/svg" xmlns:xlink="http://www.w3.org/1999/xlink">
 <defs>
  <style type="text/css">
*{stroke-linecap:butt;stroke-linejoin:round;}
  </style>
 </defs>
 <g id="figure_1">
  <g id="patch_1">
   <path d="M 0 637.643625 
L 925.911875 637.643625 
L 925.911875 0 
L 0 0 
z
" style="fill:#ffffff;"/>
  </g>
  <g id="axes_1">
   <g id="patch_2">
    <path d="M 78.211875 576.859875 
L 915.211875 576.859875 
L 915.211875 33.259875 
L 78.211875 33.259875 
z
" style="fill:#ffffff;"/>
   </g>
   <g id="matplotlib.axis_1">
    <g id="xtick_1">
     <g id="line2d_1">
      <defs>
       <path d="M 0 0 
L 0 3.5 
" id="m05d0411132" style="stroke:#000000;stroke-width:0.8;"/>
      </defs>
      <g>
       <use style="stroke:#000000;stroke-width:0.8;" x="185.138755" xlink:href="#m05d0411132" y="576.859875"/>
      </g>
     </g>
     <g id="text_1">
      <!-- $\mathdefault{10^{2}}$ -->
      <defs>
       <path d="M 12.40625 8.296875 
L 28.515625 8.296875 
L 28.515625 63.921875 
L 10.984375 60.40625 
L 10.984375 69.390625 
L 28.421875 72.90625 
L 38.28125 72.90625 
L 38.28125 8.296875 
L 54.390625 8.296875 
L 54.390625 0 
L 12.40625 0 
z
" id="DejaVuSans-31"/>
       <path d="M 31.78125 66.40625 
Q 24.171875 66.40625 20.328125 58.90625 
Q 16.5 51.421875 16.5 36.375 
Q 16.5 21.390625 20.328125 13.890625 
Q 24.171875 6.390625 31.78125 6.390625 
Q 39.453125 6.390625 43.28125 13.890625 
Q 47.125 21.390625 47.125 36.375 
Q 47.125 51.421875 43.28125 58.90625 
Q 39.453125 66.40625 31.78125 66.40625 
z
M 31.78125 74.21875 
Q 44.046875 74.21875 50.515625 64.515625 
Q 56.984375 54.828125 56.984375 36.375 
Q 56.984375 17.96875 50.515625 8.265625 
Q 44.046875 -1.421875 31.78125 -1.421875 
Q 19.53125 -1.421875 13.0625 8.265625 
Q 6.59375 17.96875 6.59375 36.375 
Q 6.59375 54.828125 13.0625 64.515625 
Q 19.53125 74.21875 31.78125 74.21875 
z
" id="DejaVuSans-30"/>
       <path d="M 19.1875 8.296875 
L 53.609375 8.296875 
L 53.609375 0 
L 7.328125 0 
L 7.328125 8.296875 
Q 12.9375 14.109375 22.625 23.890625 
Q 32.328125 33.6875 34.8125 36.53125 
Q 39.546875 41.84375 41.421875 45.53125 
Q 43.3125 49.21875 43.3125 52.78125 
Q 43.3125 58.59375 39.234375 62.25 
Q 35.15625 65.921875 28.609375 65.921875 
Q 23.96875 65.921875 18.8125 64.3125 
Q 13.671875 62.703125 7.8125 59.421875 
L 7.8125 69.390625 
Q 13.765625 71.78125 18.9375 73 
Q 24.125 74.21875 28.421875 74.21875 
Q 39.75 74.21875 46.484375 68.546875 
Q 53.21875 62.890625 53.21875 53.421875 
Q 53.21875 48.921875 51.53125 44.890625 
Q 49.859375 40.875 45.40625 35.40625 
Q 44.1875 33.984375 37.640625 27.21875 
Q 31.109375 20.453125 19.1875 8.296875 
z
" id="DejaVuSans-32"/>
      </defs>
      <g transform="translate(165.778755 600.576437)scale(0.22 -0.22)">
       <use transform="translate(0 0.765625)" xlink:href="#DejaVuSans-31"/>
       <use transform="translate(63.623047 0.765625)" xlink:href="#DejaVuSans-30"/>
       <use transform="translate(128.203125 39.046875)scale(0.7)" xlink:href="#DejaVuSans-32"/>
      </g>
     </g>
    </g>
    <g id="xtick_2">
     <g id="line2d_2">
      <g>
       <use style="stroke:#000000;stroke-width:0.8;" x="517.148254" xlink:href="#m05d0411132" y="576.859875"/>
      </g>
     </g>
     <g id="text_2">
      <!-- $\mathdefault{10^{3}}$ -->
      <defs>
       <path d="M 40.578125 39.3125 
Q 47.65625 37.796875 51.625 33 
Q 55.609375 28.21875 55.609375 21.1875 
Q 55.609375 10.40625 48.1875 4.484375 
Q 40.765625 -1.421875 27.09375 -1.421875 
Q 22.515625 -1.421875 17.65625 -0.515625 
Q 12.796875 0.390625 7.625 2.203125 
L 7.625 11.71875 
Q 11.71875 9.328125 16.59375 8.109375 
Q 21.484375 6.890625 26.8125 6.890625 
Q 36.078125 6.890625 40.9375 10.546875 
Q 45.796875 14.203125 45.796875 21.1875 
Q 45.796875 27.640625 41.28125 31.265625 
Q 36.765625 34.90625 28.71875 34.90625 
L 20.21875 34.90625 
L 20.21875 43.015625 
L 29.109375 43.015625 
Q 36.375 43.015625 40.234375 45.921875 
Q 44.09375 48.828125 44.09375 54.296875 
Q 44.09375 59.90625 40.109375 62.90625 
Q 36.140625 65.921875 28.71875 65.921875 
Q 24.65625 65.921875 20.015625 65.03125 
Q 15.375 64.15625 9.8125 62.3125 
L 9.8125 71.09375 
Q 15.4375 72.65625 20.34375 73.4375 
Q 25.25 74.21875 29.59375 74.21875 
Q 40.828125 74.21875 47.359375 69.109375 
Q 53.90625 64.015625 53.90625 55.328125 
Q 53.90625 49.265625 50.4375 45.09375 
Q 46.96875 40.921875 40.578125 39.3125 
z
" id="DejaVuSans-33"/>
      </defs>
      <g transform="translate(497.788254 600.576437)scale(0.22 -0.22)">
       <use transform="translate(0 0.765625)" xlink:href="#DejaVuSans-31"/>
       <use transform="translate(63.623047 0.765625)" xlink:href="#DejaVuSans-30"/>
       <use transform="translate(128.203125 39.046875)scale(0.7)" xlink:href="#DejaVuSans-33"/>
      </g>
     </g>
    </g>
    <g id="xtick_3">
     <g id="line2d_3">
      <g>
       <use style="stroke:#000000;stroke-width:0.8;" x="849.157753" xlink:href="#m05d0411132" y="576.859875"/>
      </g>
     </g>
     <g id="text_3">
      <!-- $\mathdefault{10^{4}}$ -->
      <defs>
       <path d="M 37.796875 64.3125 
L 12.890625 25.390625 
L 37.796875 25.390625 
z
M 35.203125 72.90625 
L 47.609375 72.90625 
L 47.609375 25.390625 
L 58.015625 25.390625 
L 58.015625 17.1875 
L 47.609375 17.1875 
L 47.609375 0 
L 37.796875 0 
L 37.796875 17.1875 
L 4.890625 17.1875 
L 4.890625 26.703125 
z
" id="DejaVuSans-34"/>
      </defs>
      <g transform="translate(829.797753 600.576437)scale(0.22 -0.22)">
       <use transform="translate(0 0.684375)" xlink:href="#DejaVuSans-31"/>
       <use transform="translate(63.623047 0.684375)" xlink:href="#DejaVuSans-30"/>
       <use transform="translate(128.203125 38.965625)scale(0.7)" xlink:href="#DejaVuSans-34"/>
      </g>
     </g>
    </g>
    <g id="xtick_4">
     <g id="line2d_4">
      <defs>
       <path d="M 0 0 
L 0 2 
" id="ma371e02ba8" style="stroke:#000000;stroke-width:0.6;"/>
      </defs>
      <g>
       <use style="stroke:#000000;stroke-width:0.6;" x="85.193937" xlink:href="#ma371e02ba8" y="576.859875"/>
      </g>
     </g>
    </g>
    <g id="xtick_5">
     <g id="line2d_5">
      <g>
       <use style="stroke:#000000;stroke-width:0.6;" x="111.482863" xlink:href="#ma371e02ba8" y="576.859875"/>
      </g>
     </g>
    </g>
    <g id="xtick_6">
     <g id="line2d_6">
      <g>
       <use style="stroke:#000000;stroke-width:0.6;" x="133.709833" xlink:href="#ma371e02ba8" y="576.859875"/>
      </g>
     </g>
    </g>
    <g id="xtick_7">
     <g id="line2d_7">
      <g>
       <use style="stroke:#000000;stroke-width:0.6;" x="152.96371" xlink:href="#ma371e02ba8" y="576.859875"/>
      </g>
     </g>
    </g>
    <g id="xtick_8">
     <g id="line2d_8">
      <g>
       <use style="stroke:#000000;stroke-width:0.6;" x="169.946834" xlink:href="#ma371e02ba8" y="576.859875"/>
      </g>
     </g>
    </g>
    <g id="xtick_9">
     <g id="line2d_9">
      <g>
       <use style="stroke:#000000;stroke-width:0.6;" x="285.083573" xlink:href="#ma371e02ba8" y="576.859875"/>
      </g>
     </g>
    </g>
    <g id="xtick_10">
     <g id="line2d_10">
      <g>
       <use style="stroke:#000000;stroke-width:0.6;" x="343.547544" xlink:href="#ma371e02ba8" y="576.859875"/>
      </g>
     </g>
    </g>
    <g id="xtick_11">
     <g id="line2d_11">
      <g>
       <use style="stroke:#000000;stroke-width:0.6;" x="385.028391" xlink:href="#ma371e02ba8" y="576.859875"/>
      </g>
     </g>
    </g>
    <g id="xtick_12">
     <g id="line2d_12">
      <g>
       <use style="stroke:#000000;stroke-width:0.6;" x="417.203436" xlink:href="#ma371e02ba8" y="576.859875"/>
      </g>
     </g>
    </g>
    <g id="xtick_13">
     <g id="line2d_13">
      <g>
       <use style="stroke:#000000;stroke-width:0.6;" x="443.492362" xlink:href="#ma371e02ba8" y="576.859875"/>
      </g>
     </g>
    </g>
    <g id="xtick_14">
     <g id="line2d_14">
      <g>
       <use style="stroke:#000000;stroke-width:0.6;" x="465.719332" xlink:href="#ma371e02ba8" y="576.859875"/>
      </g>
     </g>
    </g>
    <g id="xtick_15">
     <g id="line2d_15">
      <g>
       <use style="stroke:#000000;stroke-width:0.6;" x="484.973209" xlink:href="#ma371e02ba8" y="576.859875"/>
      </g>
     </g>
    </g>
    <g id="xtick_16">
     <g id="line2d_16">
      <g>
       <use style="stroke:#000000;stroke-width:0.6;" x="501.956333" xlink:href="#ma371e02ba8" y="576.859875"/>
      </g>
     </g>
    </g>
    <g id="xtick_17">
     <g id="line2d_17">
      <g>
       <use style="stroke:#000000;stroke-width:0.6;" x="617.093072" xlink:href="#ma371e02ba8" y="576.859875"/>
      </g>
     </g>
    </g>
    <g id="xtick_18">
     <g id="line2d_18">
      <g>
       <use style="stroke:#000000;stroke-width:0.6;" x="675.557043" xlink:href="#ma371e02ba8" y="576.859875"/>
      </g>
     </g>
    </g>
    <g id="xtick_19">
     <g id="line2d_19">
      <g>
       <use style="stroke:#000000;stroke-width:0.6;" x="717.03789" xlink:href="#ma371e02ba8" y="576.859875"/>
      </g>
     </g>
    </g>
    <g id="xtick_20">
     <g id="line2d_20">
      <g>
       <use style="stroke:#000000;stroke-width:0.6;" x="749.212935" xlink:href="#ma371e02ba8" y="576.859875"/>
      </g>
     </g>
    </g>
    <g id="xtick_21">
     <g id="line2d_21">
      <g>
       <use style="stroke:#000000;stroke-width:0.6;" x="775.501861" xlink:href="#ma371e02ba8" y="576.859875"/>
      </g>
     </g>
    </g>
    <g id="xtick_22">
     <g id="line2d_22">
      <g>
       <use style="stroke:#000000;stroke-width:0.6;" x="797.728831" xlink:href="#ma371e02ba8" y="576.859875"/>
      </g>
     </g>
    </g>
    <g id="xtick_23">
     <g id="line2d_23">
      <g>
       <use style="stroke:#000000;stroke-width:0.6;" x="816.982708" xlink:href="#ma371e02ba8" y="576.859875"/>
      </g>
     </g>
    </g>
    <g id="xtick_24">
     <g id="line2d_24">
      <g>
       <use style="stroke:#000000;stroke-width:0.6;" x="833.965831" xlink:href="#ma371e02ba8" y="576.859875"/>
      </g>
     </g>
    </g>
    <g id="text_4">
     <!-- log(k) -->
     <defs>
      <path d="M 9.421875 75.984375 
L 18.40625 75.984375 
L 18.40625 0 
L 9.421875 0 
z
" id="DejaVuSans-6c"/>
      <path d="M 30.609375 48.390625 
Q 23.390625 48.390625 19.1875 42.75 
Q 14.984375 37.109375 14.984375 27.296875 
Q 14.984375 17.484375 19.15625 11.84375 
Q 23.34375 6.203125 30.609375 6.203125 
Q 37.796875 6.203125 41.984375 11.859375 
Q 46.1875 17.53125 46.1875 27.296875 
Q 46.1875 37.015625 41.984375 42.703125 
Q 37.796875 48.390625 30.609375 48.390625 
z
M 30.609375 56 
Q 42.328125 56 49.015625 48.375 
Q 55.71875 40.765625 55.71875 27.296875 
Q 55.71875 13.875 49.015625 6.21875 
Q 42.328125 -1.421875 30.609375 -1.421875 
Q 18.84375 -1.421875 12.171875 6.21875 
Q 5.515625 13.875 5.515625 27.296875 
Q 5.515625 40.765625 12.171875 48.375 
Q 18.84375 56 30.609375 56 
z
" id="DejaVuSans-6f"/>
      <path d="M 45.40625 27.984375 
Q 45.40625 37.75 41.375 43.109375 
Q 37.359375 48.484375 30.078125 48.484375 
Q 22.859375 48.484375 18.828125 43.109375 
Q 14.796875 37.75 14.796875 27.984375 
Q 14.796875 18.265625 18.828125 12.890625 
Q 22.859375 7.515625 30.078125 7.515625 
Q 37.359375 7.515625 41.375 12.890625 
Q 45.40625 18.265625 45.40625 27.984375 
z
M 54.390625 6.78125 
Q 54.390625 -7.171875 48.1875 -13.984375 
Q 42 -20.796875 29.203125 -20.796875 
Q 24.46875 -20.796875 20.265625 -20.09375 
Q 16.0625 -19.390625 12.109375 -17.921875 
L 12.109375 -9.1875 
Q 16.0625 -11.328125 19.921875 -12.34375 
Q 23.78125 -13.375 27.78125 -13.375 
Q 36.625 -13.375 41.015625 -8.765625 
Q 45.40625 -4.15625 45.40625 5.171875 
L 45.40625 9.625 
Q 42.625 4.78125 38.28125 2.390625 
Q 33.9375 0 27.875 0 
Q 17.828125 0 11.671875 7.65625 
Q 5.515625 15.328125 5.515625 27.984375 
Q 5.515625 40.671875 11.671875 48.328125 
Q 17.828125 56 27.875 56 
Q 33.9375 56 38.28125 53.609375 
Q 42.625 51.21875 45.40625 46.390625 
L 45.40625 54.6875 
L 54.390625 54.6875 
z
" id="DejaVuSans-67"/>
      <path d="M 31 75.875 
Q 24.46875 64.65625 21.28125 53.65625 
Q 18.109375 42.671875 18.109375 31.390625 
Q 18.109375 20.125 21.3125 9.0625 
Q 24.515625 -2 31 -13.1875 
L 23.1875 -13.1875 
Q 15.875 -1.703125 12.234375 9.375 
Q 8.59375 20.453125 8.59375 31.390625 
Q 8.59375 42.28125 12.203125 53.3125 
Q 15.828125 64.359375 23.1875 75.875 
z
" id="DejaVuSans-28"/>
      <path d="M 9.078125 75.984375 
L 18.109375 75.984375 
L 18.109375 31.109375 
L 44.921875 54.6875 
L 56.390625 54.6875 
L 27.390625 29.109375 
L 57.625 0 
L 45.90625 0 
L 18.109375 26.703125 
L 18.109375 0 
L 9.078125 0 
z
" id="DejaVuSans-6b"/>
      <path d="M 8.015625 75.875 
L 15.828125 75.875 
Q 23.140625 64.359375 26.78125 53.3125 
Q 30.421875 42.28125 30.421875 31.390625 
Q 30.421875 20.453125 26.78125 9.375 
Q 23.140625 -1.703125 15.828125 -13.1875 
L 8.015625 -13.1875 
Q 14.5 -2 17.703125 9.0625 
Q 20.90625 20.125 20.90625 31.390625 
Q 20.90625 42.671875 17.703125 53.65625 
Q 14.5 64.65625 8.015625 75.875 
z
" id="DejaVuSans-29"/>
     </defs>
     <g transform="translate(464.988906 625.868312)scale(0.22 -0.22)">
      <use xlink:href="#DejaVuSans-6c"/>
      <use x="27.783203" xlink:href="#DejaVuSans-6f"/>
      <use x="88.964844" xlink:href="#DejaVuSans-67"/>
      <use x="152.441406" xlink:href="#DejaVuSans-28"/>
      <use x="191.455078" xlink:href="#DejaVuSans-6b"/>
      <use x="249.365234" xlink:href="#DejaVuSans-29"/>
     </g>
    </g>
   </g>
   <g id="matplotlib.axis_2">
    <g id="ytick_1">
     <g id="line2d_25">
      <defs>
       <path d="M 0 0 
L -3.5 0 
" id="m53606c0d43" style="stroke:#000000;stroke-width:0.8;"/>
      </defs>
      <g>
       <use style="stroke:#000000;stroke-width:0.8;" x="78.211875" xlink:href="#m53606c0d43" y="552.150784"/>
      </g>
     </g>
     <g id="text_5">
      <!-- $\mathdefault{10^{0}}$ -->
      <g transform="translate(32.491875 560.509065)scale(0.22 -0.22)">
       <use transform="translate(0 0.765625)" xlink:href="#DejaVuSans-31"/>
       <use transform="translate(63.623047 0.765625)" xlink:href="#DejaVuSans-30"/>
       <use transform="translate(128.203125 39.046875)scale(0.7)" xlink:href="#DejaVuSans-30"/>
      </g>
     </g>
    </g>
    <g id="ytick_2">
     <g id="line2d_26">
      <g>
       <use style="stroke:#000000;stroke-width:0.8;" x="78.211875" xlink:href="#m53606c0d43" y="417.104285"/>
      </g>
     </g>
     <g id="text_6">
      <!-- $\mathdefault{10^{1}}$ -->
      <g transform="translate(32.491875 425.462566)scale(0.22 -0.22)">
       <use transform="translate(0 0.684375)" xlink:href="#DejaVuSans-31"/>
       <use transform="translate(63.623047 0.684375)" xlink:href="#DejaVuSans-30"/>
       <use transform="translate(128.203125 38.965625)scale(0.7)" xlink:href="#DejaVuSans-31"/>
      </g>
     </g>
    </g>
    <g id="ytick_3">
     <g id="line2d_27">
      <g>
       <use style="stroke:#000000;stroke-width:0.8;" x="78.211875" xlink:href="#m53606c0d43" y="282.057785"/>
      </g>
     </g>
     <g id="text_7">
      <!-- $\mathdefault{10^{2}}$ -->
      <g transform="translate(32.491875 290.416067)scale(0.22 -0.22)">
       <use transform="translate(0 0.765625)" xlink:href="#DejaVuSans-31"/>
       <use transform="translate(63.623047 0.765625)" xlink:href="#DejaVuSans-30"/>
       <use transform="translate(128.203125 39.046875)scale(0.7)" xlink:href="#DejaVuSans-32"/>
      </g>
     </g>
    </g>
    <g id="ytick_4">
     <g id="line2d_28">
      <g>
       <use style="stroke:#000000;stroke-width:0.8;" x="78.211875" xlink:href="#m53606c0d43" y="147.011286"/>
      </g>
     </g>
     <g id="text_8">
      <!-- $\mathdefault{10^{3}}$ -->
      <g transform="translate(32.491875 155.369567)scale(0.22 -0.22)">
       <use transform="translate(0 0.765625)" xlink:href="#DejaVuSans-31"/>
       <use transform="translate(63.623047 0.765625)" xlink:href="#DejaVuSans-30"/>
       <use transform="translate(128.203125 39.046875)scale(0.7)" xlink:href="#DejaVuSans-33"/>
      </g>
     </g>
    </g>
    <g id="ytick_5">
     <g id="line2d_29">
      <defs>
       <path d="M 0 0 
L -2 0 
" id="ma4a5a2ec1a" style="stroke:#000000;stroke-width:0.6;"/>
      </defs>
      <g>
       <use style="stroke:#000000;stroke-width:0.6;" x="78.211875" xlink:href="#ma4a5a2ec1a" y="573.069752"/>
      </g>
     </g>
    </g>
    <g id="ytick_6">
     <g id="line2d_30">
      <g>
       <use style="stroke:#000000;stroke-width:0.6;" x="78.211875" xlink:href="#ma4a5a2ec1a" y="565.238142"/>
      </g>
     </g>
    </g>
    <g id="ytick_7">
     <g id="line2d_31">
      <g>
       <use style="stroke:#000000;stroke-width:0.6;" x="78.211875" xlink:href="#ma4a5a2ec1a" y="558.330173"/>
      </g>
     </g>
    </g>
    <g id="ytick_8">
     <g id="line2d_32">
      <g>
       <use style="stroke:#000000;stroke-width:0.6;" x="78.211875" xlink:href="#ma4a5a2ec1a" y="511.497737"/>
      </g>
     </g>
    </g>
    <g id="ytick_9">
     <g id="line2d_33">
      <g>
       <use style="stroke:#000000;stroke-width:0.6;" x="78.211875" xlink:href="#ma4a5a2ec1a" y="487.717229"/>
      </g>
     </g>
    </g>
    <g id="ytick_10">
     <g id="line2d_34">
      <g>
       <use style="stroke:#000000;stroke-width:0.6;" x="78.211875" xlink:href="#ma4a5a2ec1a" y="470.84469"/>
      </g>
     </g>
    </g>
    <g id="ytick_11">
     <g id="line2d_35">
      <g>
       <use style="stroke:#000000;stroke-width:0.6;" x="78.211875" xlink:href="#ma4a5a2ec1a" y="457.757332"/>
      </g>
     </g>
    </g>
    <g id="ytick_12">
     <g id="line2d_36">
      <g>
       <use style="stroke:#000000;stroke-width:0.6;" x="78.211875" xlink:href="#ma4a5a2ec1a" y="447.064182"/>
      </g>
     </g>
    </g>
    <g id="ytick_13">
     <g id="line2d_37">
      <g>
       <use style="stroke:#000000;stroke-width:0.6;" x="78.211875" xlink:href="#ma4a5a2ec1a" y="438.023252"/>
      </g>
     </g>
    </g>
    <g id="ytick_14">
     <g id="line2d_38">
      <g>
       <use style="stroke:#000000;stroke-width:0.6;" x="78.211875" xlink:href="#ma4a5a2ec1a" y="430.191643"/>
      </g>
     </g>
    </g>
    <g id="ytick_15">
     <g id="line2d_39">
      <g>
       <use style="stroke:#000000;stroke-width:0.6;" x="78.211875" xlink:href="#ma4a5a2ec1a" y="423.283674"/>
      </g>
     </g>
    </g>
    <g id="ytick_16">
     <g id="line2d_40">
      <g>
       <use style="stroke:#000000;stroke-width:0.6;" x="78.211875" xlink:href="#ma4a5a2ec1a" y="376.451238"/>
      </g>
     </g>
    </g>
    <g id="ytick_17">
     <g id="line2d_41">
      <g>
       <use style="stroke:#000000;stroke-width:0.6;" x="78.211875" xlink:href="#ma4a5a2ec1a" y="352.670729"/>
      </g>
     </g>
    </g>
    <g id="ytick_18">
     <g id="line2d_42">
      <g>
       <use style="stroke:#000000;stroke-width:0.6;" x="78.211875" xlink:href="#ma4a5a2ec1a" y="335.79819"/>
      </g>
     </g>
    </g>
    <g id="ytick_19">
     <g id="line2d_43">
      <g>
       <use style="stroke:#000000;stroke-width:0.6;" x="78.211875" xlink:href="#ma4a5a2ec1a" y="322.710832"/>
      </g>
     </g>
    </g>
    <g id="ytick_20">
     <g id="line2d_44">
      <g>
       <use style="stroke:#000000;stroke-width:0.6;" x="78.211875" xlink:href="#ma4a5a2ec1a" y="312.017682"/>
      </g>
     </g>
    </g>
    <g id="ytick_21">
     <g id="line2d_45">
      <g>
       <use style="stroke:#000000;stroke-width:0.6;" x="78.211875" xlink:href="#ma4a5a2ec1a" y="302.976753"/>
      </g>
     </g>
    </g>
    <g id="ytick_22">
     <g id="line2d_46">
      <g>
       <use style="stroke:#000000;stroke-width:0.6;" x="78.211875" xlink:href="#ma4a5a2ec1a" y="295.145143"/>
      </g>
     </g>
    </g>
    <g id="ytick_23">
     <g id="line2d_47">
      <g>
       <use style="stroke:#000000;stroke-width:0.6;" x="78.211875" xlink:href="#ma4a5a2ec1a" y="288.237174"/>
      </g>
     </g>
    </g>
    <g id="ytick_24">
     <g id="line2d_48">
      <g>
       <use style="stroke:#000000;stroke-width:0.6;" x="78.211875" xlink:href="#ma4a5a2ec1a" y="241.404738"/>
      </g>
     </g>
    </g>
    <g id="ytick_25">
     <g id="line2d_49">
      <g>
       <use style="stroke:#000000;stroke-width:0.6;" x="78.211875" xlink:href="#ma4a5a2ec1a" y="217.62423"/>
      </g>
     </g>
    </g>
    <g id="ytick_26">
     <g id="line2d_50">
      <g>
       <use style="stroke:#000000;stroke-width:0.6;" x="78.211875" xlink:href="#ma4a5a2ec1a" y="200.751691"/>
      </g>
     </g>
    </g>
    <g id="ytick_27">
     <g id="line2d_51">
      <g>
       <use style="stroke:#000000;stroke-width:0.6;" x="78.211875" xlink:href="#ma4a5a2ec1a" y="187.664333"/>
      </g>
     </g>
    </g>
    <g id="ytick_28">
     <g id="line2d_52">
      <g>
       <use style="stroke:#000000;stroke-width:0.6;" x="78.211875" xlink:href="#ma4a5a2ec1a" y="176.971183"/>
      </g>
     </g>
    </g>
    <g id="ytick_29">
     <g id="line2d_53">
      <g>
       <use style="stroke:#000000;stroke-width:0.6;" x="78.211875" xlink:href="#ma4a5a2ec1a" y="167.930253"/>
      </g>
     </g>
    </g>
    <g id="ytick_30">
     <g id="line2d_54">
      <g>
       <use style="stroke:#000000;stroke-width:0.6;" x="78.211875" xlink:href="#ma4a5a2ec1a" y="160.098644"/>
      </g>
     </g>
    </g>
    <g id="ytick_31">
     <g id="line2d_55">
      <g>
       <use style="stroke:#000000;stroke-width:0.6;" x="78.211875" xlink:href="#ma4a5a2ec1a" y="153.190675"/>
      </g>
     </g>
    </g>
    <g id="ytick_32">
     <g id="line2d_56">
      <g>
       <use style="stroke:#000000;stroke-width:0.6;" x="78.211875" xlink:href="#ma4a5a2ec1a" y="106.358239"/>
      </g>
     </g>
    </g>
    <g id="ytick_33">
     <g id="line2d_57">
      <g>
       <use style="stroke:#000000;stroke-width:0.6;" x="78.211875" xlink:href="#ma4a5a2ec1a" y="82.577731"/>
      </g>
     </g>
    </g>
    <g id="ytick_34">
     <g id="line2d_58">
      <g>
       <use style="stroke:#000000;stroke-width:0.6;" x="78.211875" xlink:href="#ma4a5a2ec1a" y="65.705192"/>
      </g>
     </g>
    </g>
    <g id="ytick_35">
     <g id="line2d_59">
      <g>
       <use style="stroke:#000000;stroke-width:0.6;" x="78.211875" xlink:href="#ma4a5a2ec1a" y="52.617834"/>
      </g>
     </g>
    </g>
    <g id="ytick_36">
     <g id="line2d_60">
      <g>
       <use style="stroke:#000000;stroke-width:0.6;" x="78.211875" xlink:href="#ma4a5a2ec1a" y="41.924684"/>
      </g>
     </g>
    </g>
    <g id="ytick_37">
     <g id="line2d_61">
      <g>
       <use style="stroke:#000000;stroke-width:0.6;" x="78.211875" xlink:href="#ma4a5a2ec1a" y="32.883754"/>
      </g>
     </g>
    </g>
    <g id="text_9">
     <!-- log(frequency) -->
     <defs>
      <path d="M 37.109375 75.984375 
L 37.109375 68.5 
L 28.515625 68.5 
Q 23.6875 68.5 21.796875 66.546875 
Q 19.921875 64.59375 19.921875 59.515625 
L 19.921875 54.6875 
L 34.71875 54.6875 
L 34.71875 47.703125 
L 19.921875 47.703125 
L 19.921875 0 
L 10.890625 0 
L 10.890625 47.703125 
L 2.296875 47.703125 
L 2.296875 54.6875 
L 10.890625 54.6875 
L 10.890625 58.5 
Q 10.890625 67.625 15.140625 71.796875 
Q 19.390625 75.984375 28.609375 75.984375 
z
" id="DejaVuSans-66"/>
      <path d="M 41.109375 46.296875 
Q 39.59375 47.171875 37.8125 47.578125 
Q 36.03125 48 33.890625 48 
Q 26.265625 48 22.1875 43.046875 
Q 18.109375 38.09375 18.109375 28.8125 
L 18.109375 0 
L 9.078125 0 
L 9.078125 54.6875 
L 18.109375 54.6875 
L 18.109375 46.1875 
Q 20.953125 51.171875 25.484375 53.578125 
Q 30.03125 56 36.53125 56 
Q 37.453125 56 38.578125 55.875 
Q 39.703125 55.765625 41.0625 55.515625 
z
" id="DejaVuSans-72"/>
      <path d="M 56.203125 29.59375 
L 56.203125 25.203125 
L 14.890625 25.203125 
Q 15.484375 15.921875 20.484375 11.0625 
Q 25.484375 6.203125 34.421875 6.203125 
Q 39.59375 6.203125 44.453125 7.46875 
Q 49.3125 8.734375 54.109375 11.28125 
L 54.109375 2.78125 
Q 49.265625 0.734375 44.1875 -0.34375 
Q 39.109375 -1.421875 33.890625 -1.421875 
Q 20.796875 -1.421875 13.15625 6.1875 
Q 5.515625 13.8125 5.515625 26.8125 
Q 5.515625 40.234375 12.765625 48.109375 
Q 20.015625 56 32.328125 56 
Q 43.359375 56 49.78125 48.890625 
Q 56.203125 41.796875 56.203125 29.59375 
z
M 47.21875 32.234375 
Q 47.125 39.59375 43.09375 43.984375 
Q 39.0625 48.390625 32.421875 48.390625 
Q 24.90625 48.390625 20.390625 44.140625 
Q 15.875 39.890625 15.1875 32.171875 
z
" id="DejaVuSans-65"/>
      <path d="M 14.796875 27.296875 
Q 14.796875 17.390625 18.875 11.75 
Q 22.953125 6.109375 30.078125 6.109375 
Q 37.203125 6.109375 41.296875 11.75 
Q 45.40625 17.390625 45.40625 27.296875 
Q 45.40625 37.203125 41.296875 42.84375 
Q 37.203125 48.484375 30.078125 48.484375 
Q 22.953125 48.484375 18.875 42.84375 
Q 14.796875 37.203125 14.796875 27.296875 
z
M 45.40625 8.203125 
Q 42.578125 3.328125 38.25 0.953125 
Q 33.9375 -1.421875 27.875 -1.421875 
Q 17.96875 -1.421875 11.734375 6.484375 
Q 5.515625 14.40625 5.515625 27.296875 
Q 5.515625 40.1875 11.734375 48.09375 
Q 17.96875 56 27.875 56 
Q 33.9375 56 38.25 53.625 
Q 42.578125 51.265625 45.40625 46.390625 
L 45.40625 54.6875 
L 54.390625 54.6875 
L 54.390625 -20.796875 
L 45.40625 -20.796875 
z
" id="DejaVuSans-71"/>
      <path d="M 8.5 21.578125 
L 8.5 54.6875 
L 17.484375 54.6875 
L 17.484375 21.921875 
Q 17.484375 14.15625 20.5 10.265625 
Q 23.53125 6.390625 29.59375 6.390625 
Q 36.859375 6.390625 41.078125 11.03125 
Q 45.3125 15.671875 45.3125 23.6875 
L 45.3125 54.6875 
L 54.296875 54.6875 
L 54.296875 0 
L 45.3125 0 
L 45.3125 8.40625 
Q 42.046875 3.421875 37.71875 1 
Q 33.40625 -1.421875 27.6875 -1.421875 
Q 18.265625 -1.421875 13.375 4.4375 
Q 8.5 10.296875 8.5 21.578125 
z
M 31.109375 56 
z
" id="DejaVuSans-75"/>
      <path d="M 54.890625 33.015625 
L 54.890625 0 
L 45.90625 0 
L 45.90625 32.71875 
Q 45.90625 40.484375 42.875 44.328125 
Q 39.84375 48.1875 33.796875 48.1875 
Q 26.515625 48.1875 22.3125 43.546875 
Q 18.109375 38.921875 18.109375 30.90625 
L 18.109375 0 
L 9.078125 0 
L 9.078125 54.6875 
L 18.109375 54.6875 
L 18.109375 46.1875 
Q 21.34375 51.125 25.703125 53.5625 
Q 30.078125 56 35.796875 56 
Q 45.21875 56 50.046875 50.171875 
Q 54.890625 44.34375 54.890625 33.015625 
z
" id="DejaVuSans-6e"/>
      <path d="M 48.78125 52.59375 
L 48.78125 44.1875 
Q 44.96875 46.296875 41.140625 47.34375 
Q 37.3125 48.390625 33.40625 48.390625 
Q 24.65625 48.390625 19.8125 42.84375 
Q 14.984375 37.3125 14.984375 27.296875 
Q 14.984375 17.28125 19.8125 11.734375 
Q 24.65625 6.203125 33.40625 6.203125 
Q 37.3125 6.203125 41.140625 7.25 
Q 44.96875 8.296875 48.78125 10.40625 
L 48.78125 2.09375 
Q 45.015625 0.34375 40.984375 -0.53125 
Q 36.96875 -1.421875 32.421875 -1.421875 
Q 20.0625 -1.421875 12.78125 6.34375 
Q 5.515625 14.109375 5.515625 27.296875 
Q 5.515625 40.671875 12.859375 48.328125 
Q 20.21875 56 33.015625 56 
Q 37.15625 56 41.109375 55.140625 
Q 45.0625 54.296875 48.78125 52.59375 
z
" id="DejaVuSans-63"/>
      <path d="M 32.171875 -5.078125 
Q 28.375 -14.84375 24.75 -17.8125 
Q 21.140625 -20.796875 15.09375 -20.796875 
L 7.90625 -20.796875 
L 7.90625 -13.28125 
L 13.1875 -13.28125 
Q 16.890625 -13.28125 18.9375 -11.515625 
Q 21 -9.765625 23.484375 -3.21875 
L 25.09375 0.875 
L 2.984375 54.6875 
L 12.5 54.6875 
L 29.59375 11.921875 
L 46.6875 54.6875 
L 56.203125 54.6875 
z
" id="DejaVuSans-79"/>
     </defs>
     <g transform="translate(23.916562 385.825656)rotate(-90)scale(0.22 -0.22)">
      <use xlink:href="#DejaVuSans-6c"/>
      <use x="27.783203" xlink:href="#DejaVuSans-6f"/>
      <use x="88.964844" xlink:href="#DejaVuSans-67"/>
      <use x="152.441406" xlink:href="#DejaVuSans-28"/>
      <use x="191.455078" xlink:href="#DejaVuSans-66"/>
      <use x="226.660156" xlink:href="#DejaVuSans-72"/>
      <use x="267.742188" xlink:href="#DejaVuSans-65"/>
      <use x="329.265625" xlink:href="#DejaVuSans-71"/>
      <use x="392.742188" xlink:href="#DejaVuSans-75"/>
      <use x="456.121094" xlink:href="#DejaVuSans-65"/>
      <use x="517.644531" xlink:href="#DejaVuSans-6e"/>
      <use x="581.023438" xlink:href="#DejaVuSans-63"/>
      <use x="636.003906" xlink:href="#DejaVuSans-79"/>
      <use x="695.183594" xlink:href="#DejaVuSans-29"/>
     </g>
    </g>
   </g>
   <g id="line2d_62">
    <defs>
     <path d="M 0 5 
C 1.326016 5 2.597899 4.473168 3.535534 3.535534 
C 4.473168 2.597899 5 1.326016 5 0 
C 5 -1.326016 4.473168 -2.597899 3.535534 -3.535534 
C 2.597899 -4.473168 1.326016 -5 0 -5 
C -1.326016 -5 -2.597899 -4.473168 -3.535534 -3.535534 
C -4.473168 -2.597899 -5 -1.326016 -5 0 
C -5 1.326016 -4.473168 2.597899 -3.535534 3.535534 
C -2.597899 4.473168 -1.326016 5 0 5 
z
" id="m3688a9fb96" style="stroke:#1f77b4;"/>
    </defs>
    <g clip-path="url(#p128c9ca717)">
     <use style="fill:#1f77b4;stroke:#1f77b4;" x="116.25733" xlink:href="#m3688a9fb96" y="57.968966"/>
     <use style="fill:#1f77b4;stroke:#1f77b4;" x="273.107799" xlink:href="#m3688a9fb96" y="125.869871"/>
     <use style="fill:#1f77b4;stroke:#1f77b4;" x="346.449996" xlink:href="#m3688a9fb96" y="175.427674"/>
     <use style="fill:#1f77b4;stroke:#1f77b4;" x="394.831242" xlink:href="#m3688a9fb96" y="224.021244"/>
     <use style="fill:#1f77b4;stroke:#1f77b4;" x="430.993382" xlink:href="#m3688a9fb96" y="251.282484"/>
     <use style="fill:#1f77b4;stroke:#1f77b4;" x="459.88041" xlink:href="#m3688a9fb96" y="285.686775"/>
     <use style="fill:#1f77b4;stroke:#1f77b4;" x="483.934917" xlink:href="#m3688a9fb96" y="304.67687"/>
     <use style="fill:#1f77b4;stroke:#1f77b4;" x="504.544405" xlink:href="#m3688a9fb96" y="321.549409"/>
     <use style="fill:#1f77b4;stroke:#1f77b4;" x="522.573151" xlink:href="#m3688a9fb96" y="345.329917"/>
     <use style="fill:#1f77b4;stroke:#1f77b4;" x="538.596146" xlink:href="#m3688a9fb96" y="379.459587"/>
     <use style="fill:#1f77b4;stroke:#1f77b4;" x="553.015334" xlink:href="#m3688a9fb96" y="373.589697"/>
     <use style="fill:#1f77b4;stroke:#1f77b4;" x="566.122768" xlink:href="#m3688a9fb96" y="385.982965"/>
     <use style="fill:#1f77b4;stroke:#1f77b4;" x="578.137339" xlink:href="#m3688a9fb96" y="417.104285"/>
     <use style="fill:#1f77b4;stroke:#1f77b4;" x="589.227347" xlink:href="#m3688a9fb96" y="423.283674"/>
     <use style="fill:#1f77b4;stroke:#1f77b4;" x="599.524975" xlink:href="#m3688a9fb96" y="457.757332"/>
     <use style="fill:#1f77b4;stroke:#1f77b4;" x="609.135943" xlink:href="#m3688a9fb96" y="457.757332"/>
     <use style="fill:#1f77b4;stroke:#1f77b4;" x="618.146129" xlink:href="#m3688a9fb96" y="457.757332"/>
     <use style="fill:#1f77b4;stroke:#1f77b4;" x="626.626245" xlink:href="#m3688a9fb96" y="470.84469"/>
     <use style="fill:#1f77b4;stroke:#1f77b4;" x="634.635208" xlink:href="#m3688a9fb96" y="457.757332"/>
     <use style="fill:#1f77b4;stroke:#1f77b4;" x="642.222629" xlink:href="#m3688a9fb96" y="552.150784"/>
     <use style="fill:#1f77b4;stroke:#1f77b4;" x="649.430671" xlink:href="#m3688a9fb96" y="511.497737"/>
     <use style="fill:#1f77b4;stroke:#1f77b4;" x="656.295475" xlink:href="#m3688a9fb96" y="470.84469"/>
     <use style="fill:#1f77b4;stroke:#1f77b4;" x="662.848248" xlink:href="#m3688a9fb96" y="447.064182"/>
     <use style="fill:#1f77b4;stroke:#1f77b4;" x="669.116128" xlink:href="#m3688a9fb96" y="487.717229"/>
     <use style="fill:#1f77b4;stroke:#1f77b4;" x="675.122859" xlink:href="#m3688a9fb96" y="511.497737"/>
     <use style="fill:#1f77b4;stroke:#1f77b4;" x="680.889333" xlink:href="#m3688a9fb96" y="487.717229"/>
     <use style="fill:#1f77b4;stroke:#1f77b4;" x="686.434034" xlink:href="#m3688a9fb96" y="487.717229"/>
     <use style="fill:#1f77b4;stroke:#1f77b4;" x="691.77339" xlink:href="#m3688a9fb96" y="470.84469"/>
     <use style="fill:#1f77b4;stroke:#1f77b4;" x="696.92207" xlink:href="#m3688a9fb96" y="511.497737"/>
     <use style="fill:#1f77b4;stroke:#1f77b4;" x="701.893223" xlink:href="#m3688a9fb96" y="511.497737"/>
     <use style="fill:#1f77b4;stroke:#1f77b4;" x="706.698685" xlink:href="#m3688a9fb96" y="511.497737"/>
     <use style="fill:#1f77b4;stroke:#1f77b4;" x="708.261603" xlink:href="#m3688a9fb96" y="45911.341"/>
     <use style="fill:#1f77b4;stroke:#1f77b4;" x="714.341112" xlink:href="#m3688a9fb96" y="45911.341"/>
     <use style="fill:#1f77b4;stroke:#1f77b4;" x="715.854293" xlink:href="#m3688a9fb96" y="552.150784"/>
     <use style="fill:#1f77b4;stroke:#1f77b4;" x="720.222933" xlink:href="#m3688a9fb96" y="552.150784"/>
     <use style="fill:#1f77b4;stroke:#1f77b4;" x="724.463096" xlink:href="#m3688a9fb96" y="552.150784"/>
     <use style="fill:#1f77b4;stroke:#1f77b4;" x="728.582123" xlink:href="#m3688a9fb96" y="438.023252"/>
     <use style="fill:#1f77b4;stroke:#1f77b4;" x="729.929434" xlink:href="#m3688a9fb96" y="45911.341"/>
     <use style="fill:#1f77b4;stroke:#1f77b4;" x="739.001977" xlink:href="#m3688a9fb96" y="45911.341"/>
     <use style="fill:#1f77b4;stroke:#1f77b4;" x="740.277014" xlink:href="#m3688a9fb96" y="511.497737"/>
     <use style="fill:#1f77b4;stroke:#1f77b4;" x="743.973617" xlink:href="#m3688a9fb96" y="552.150784"/>
     <use style="fill:#1f77b4;stroke:#1f77b4;" x="747.577813" xlink:href="#m3688a9fb96" y="552.150784"/>
     <use style="fill:#1f77b4;stroke:#1f77b4;" x="751.094112" xlink:href="#m3688a9fb96" y="487.717229"/>
     <use style="fill:#1f77b4;stroke:#1f77b4;" x="754.526697" xlink:href="#m3688a9fb96" y="552.150784"/>
     <use style="fill:#1f77b4;stroke:#1f77b4;" x="757.879462" xlink:href="#m3688a9fb96" y="511.497737"/>
     <use style="fill:#1f77b4;stroke:#1f77b4;" x="761.156036" xlink:href="#m3688a9fb96" y="552.150784"/>
     <use style="fill:#1f77b4;stroke:#1f77b4;" x="764.359804" xlink:href="#m3688a9fb96" y="511.497737"/>
     <use style="fill:#1f77b4;stroke:#1f77b4;" x="767.493932" xlink:href="#m3688a9fb96" y="552.150784"/>
     <use style="fill:#1f77b4;stroke:#1f77b4;" x="770.561383" xlink:href="#m3688a9fb96" y="487.717229"/>
     <use style="fill:#1f77b4;stroke:#1f77b4;" x="773.564935" xlink:href="#m3688a9fb96" y="511.497737"/>
     <use style="fill:#1f77b4;stroke:#1f77b4;" x="776.507196" xlink:href="#m3688a9fb96" y="511.497737"/>
     <use style="fill:#1f77b4;stroke:#1f77b4;" x="777.476251" xlink:href="#m3688a9fb96" y="45911.341"/>
     <use style="fill:#1f77b4;stroke:#1f77b4;" x="799.756128" xlink:href="#m3688a9fb96" y="45911.341"/>
     <use style="fill:#1f77b4;stroke:#1f77b4;" x="800.591035" xlink:href="#m3688a9fb96" y="552.150784"/>
     <use style="fill:#1f77b4;stroke:#1f77b4;" x="801.411793" xlink:href="#m3688a9fb96" y="45911.341"/>
     <use style="fill:#1f77b4;stroke:#1f77b4;" x="820.499274" xlink:href="#m3688a9fb96" y="45911.341"/>
     <use style="fill:#1f77b4;stroke:#1f77b4;" x="821.222038" xlink:href="#m3688a9fb96" y="552.150784"/>
     <use style="fill:#1f77b4;stroke:#1f77b4;" x="821.934175" xlink:href="#m3688a9fb96" y="45911.341"/>
     <use style="fill:#1f77b4;stroke:#1f77b4;" x="826.799616" xlink:href="#m3688a9fb96" y="45911.341"/>
     <use style="fill:#1f77b4;stroke:#1f77b4;" x="827.491407" xlink:href="#m3688a9fb96" y="552.150784"/>
     <use style="fill:#1f77b4;stroke:#1f77b4;" x="828.173456" xlink:href="#m3688a9fb96" y="45911.341"/>
     <use style="fill:#1f77b4;stroke:#1f77b4;" x="836.724505" xlink:href="#m3688a9fb96" y="45911.341"/>
     <use style="fill:#1f77b4;stroke:#1f77b4;" x="837.370181" xlink:href="#m3688a9fb96" y="552.150784"/>
     <use style="fill:#1f77b4;stroke:#1f77b4;" x="838.007362" xlink:href="#m3688a9fb96" y="45911.341"/>
     <use style="fill:#1f77b4;stroke:#1f77b4;" x="876.677262" xlink:href="#m3688a9fb96" y="45911.341"/>
     <use style="fill:#1f77b4;stroke:#1f77b4;" x="877.16642" xlink:href="#m3688a9fb96" y="552.150784"/>
    </g>
   </g>
   <g id="patch_3">
    <path d="M 78.211875 576.859875 
L 78.211875 33.259875 
" style="fill:none;stroke:#000000;stroke-linecap:square;stroke-linejoin:miter;stroke-width:0.8;"/>
   </g>
   <g id="patch_4">
    <path d="M 915.211875 576.859875 
L 915.211875 33.259875 
" style="fill:none;stroke:#000000;stroke-linecap:square;stroke-linejoin:miter;stroke-width:0.8;"/>
   </g>
   <g id="patch_5">
    <path d="M 78.211875 576.859875 
L 915.211875 576.859875 
" style="fill:none;stroke:#000000;stroke-linecap:square;stroke-linejoin:miter;stroke-width:0.8;"/>
   </g>
   <g id="patch_6">
    <path d="M 78.211875 33.259875 
L 915.211875 33.259875 
" style="fill:none;stroke:#000000;stroke-linecap:square;stroke-linejoin:miter;stroke-width:0.8;"/>
   </g>
   <g id="text_10">
    <!-- Log-log degree distribution for elite nodes -->
    <defs>
     <path d="M 9.8125 72.90625 
L 19.671875 72.90625 
L 19.671875 8.296875 
L 55.171875 8.296875 
L 55.171875 0 
L 9.8125 0 
z
" id="DejaVuSans-4c"/>
     <path d="M 4.890625 31.390625 
L 31.203125 31.390625 
L 31.203125 23.390625 
L 4.890625 23.390625 
z
" id="DejaVuSans-2d"/>
     <path id="DejaVuSans-20"/>
     <path d="M 45.40625 46.390625 
L 45.40625 75.984375 
L 54.390625 75.984375 
L 54.390625 0 
L 45.40625 0 
L 45.40625 8.203125 
Q 42.578125 3.328125 38.25 0.953125 
Q 33.9375 -1.421875 27.875 -1.421875 
Q 17.96875 -1.421875 11.734375 6.484375 
Q 5.515625 14.40625 5.515625 27.296875 
Q 5.515625 40.1875 11.734375 48.09375 
Q 17.96875 56 27.875 56 
Q 33.9375 56 38.25 53.625 
Q 42.578125 51.265625 45.40625 46.390625 
z
M 14.796875 27.296875 
Q 14.796875 17.390625 18.875 11.75 
Q 22.953125 6.109375 30.078125 6.109375 
Q 37.203125 6.109375 41.296875 11.75 
Q 45.40625 17.390625 45.40625 27.296875 
Q 45.40625 37.203125 41.296875 42.84375 
Q 37.203125 48.484375 30.078125 48.484375 
Q 22.953125 48.484375 18.875 42.84375 
Q 14.796875 37.203125 14.796875 27.296875 
z
" id="DejaVuSans-64"/>
     <path d="M 9.421875 54.6875 
L 18.40625 54.6875 
L 18.40625 0 
L 9.421875 0 
z
M 9.421875 75.984375 
L 18.40625 75.984375 
L 18.40625 64.59375 
L 9.421875 64.59375 
z
" id="DejaVuSans-69"/>
     <path d="M 44.28125 53.078125 
L 44.28125 44.578125 
Q 40.484375 46.53125 36.375 47.5 
Q 32.28125 48.484375 27.875 48.484375 
Q 21.1875 48.484375 17.84375 46.4375 
Q 14.5 44.390625 14.5 40.28125 
Q 14.5 37.15625 16.890625 35.375 
Q 19.28125 33.59375 26.515625 31.984375 
L 29.59375 31.296875 
Q 39.15625 29.25 43.1875 25.515625 
Q 47.21875 21.78125 47.21875 15.09375 
Q 47.21875 7.46875 41.1875 3.015625 
Q 35.15625 -1.421875 24.609375 -1.421875 
Q 20.21875 -1.421875 15.453125 -0.5625 
Q 10.6875 0.296875 5.421875 2 
L 5.421875 11.28125 
Q 10.40625 8.6875 15.234375 7.390625 
Q 20.0625 6.109375 24.8125 6.109375 
Q 31.15625 6.109375 34.5625 8.28125 
Q 37.984375 10.453125 37.984375 14.40625 
Q 37.984375 18.0625 35.515625 20.015625 
Q 33.0625 21.96875 24.703125 23.78125 
L 21.578125 24.515625 
Q 13.234375 26.265625 9.515625 29.90625 
Q 5.8125 33.546875 5.8125 39.890625 
Q 5.8125 47.609375 11.28125 51.796875 
Q 16.75 56 26.8125 56 
Q 31.78125 56 36.171875 55.265625 
Q 40.578125 54.546875 44.28125 53.078125 
z
" id="DejaVuSans-73"/>
     <path d="M 18.3125 70.21875 
L 18.3125 54.6875 
L 36.8125 54.6875 
L 36.8125 47.703125 
L 18.3125 47.703125 
L 18.3125 18.015625 
Q 18.3125 11.328125 20.140625 9.421875 
Q 21.96875 7.515625 27.59375 7.515625 
L 36.8125 7.515625 
L 36.8125 0 
L 27.59375 0 
Q 17.1875 0 13.234375 3.875 
Q 9.28125 7.765625 9.28125 18.015625 
L 9.28125 47.703125 
L 2.6875 47.703125 
L 2.6875 54.6875 
L 9.28125 54.6875 
L 9.28125 70.21875 
z
" id="DejaVuSans-74"/>
     <path d="M 48.6875 27.296875 
Q 48.6875 37.203125 44.609375 42.84375 
Q 40.53125 48.484375 33.40625 48.484375 
Q 26.265625 48.484375 22.1875 42.84375 
Q 18.109375 37.203125 18.109375 27.296875 
Q 18.109375 17.390625 22.1875 11.75 
Q 26.265625 6.109375 33.40625 6.109375 
Q 40.53125 6.109375 44.609375 11.75 
Q 48.6875 17.390625 48.6875 27.296875 
z
M 18.109375 46.390625 
Q 20.953125 51.265625 25.265625 53.625 
Q 29.59375 56 35.59375 56 
Q 45.5625 56 51.78125 48.09375 
Q 58.015625 40.1875 58.015625 27.296875 
Q 58.015625 14.40625 51.78125 6.484375 
Q 45.5625 -1.421875 35.59375 -1.421875 
Q 29.59375 -1.421875 25.265625 0.953125 
Q 20.953125 3.328125 18.109375 8.203125 
L 18.109375 0 
L 9.078125 0 
L 9.078125 75.984375 
L 18.109375 75.984375 
z
" id="DejaVuSans-62"/>
    </defs>
    <g transform="translate(218.546625 27.259875)scale(0.264 -0.264)">
     <use xlink:href="#DejaVuSans-4c"/>
     <use x="55.697266" xlink:href="#DejaVuSans-6f"/>
     <use x="116.878906" xlink:href="#DejaVuSans-67"/>
     <use x="180.355469" xlink:href="#DejaVuSans-2d"/>
     <use x="216.439453" xlink:href="#DejaVuSans-6c"/>
     <use x="244.222656" xlink:href="#DejaVuSans-6f"/>
     <use x="305.404297" xlink:href="#DejaVuSans-67"/>
     <use x="368.880859" xlink:href="#DejaVuSans-20"/>
     <use x="400.667969" xlink:href="#DejaVuSans-64"/>
     <use x="464.144531" xlink:href="#DejaVuSans-65"/>
     <use x="525.667969" xlink:href="#DejaVuSans-67"/>
     <use x="589.144531" xlink:href="#DejaVuSans-72"/>
     <use x="630.226562" xlink:href="#DejaVuSans-65"/>
     <use x="691.75" xlink:href="#DejaVuSans-65"/>
     <use x="753.273438" xlink:href="#DejaVuSans-20"/>
     <use x="785.060547" xlink:href="#DejaVuSans-64"/>
     <use x="848.537109" xlink:href="#DejaVuSans-69"/>
     <use x="876.320312" xlink:href="#DejaVuSans-73"/>
     <use x="928.419922" xlink:href="#DejaVuSans-74"/>
     <use x="967.628906" xlink:href="#DejaVuSans-72"/>
     <use x="1008.742188" xlink:href="#DejaVuSans-69"/>
     <use x="1036.525391" xlink:href="#DejaVuSans-62"/>
     <use x="1100.001953" xlink:href="#DejaVuSans-75"/>
     <use x="1163.380859" xlink:href="#DejaVuSans-74"/>
     <use x="1202.589844" xlink:href="#DejaVuSans-69"/>
     <use x="1230.373047" xlink:href="#DejaVuSans-6f"/>
     <use x="1291.554688" xlink:href="#DejaVuSans-6e"/>
     <use x="1354.933594" xlink:href="#DejaVuSans-20"/>
     <use x="1386.720703" xlink:href="#DejaVuSans-66"/>
     <use x="1421.925781" xlink:href="#DejaVuSans-6f"/>
     <use x="1483.107422" xlink:href="#DejaVuSans-72"/>
     <use x="1524.220703" xlink:href="#DejaVuSans-20"/>
     <use x="1556.007812" xlink:href="#DejaVuSans-65"/>
     <use x="1617.53125" xlink:href="#DejaVuSans-6c"/>
     <use x="1645.314453" xlink:href="#DejaVuSans-69"/>
     <use x="1673.097656" xlink:href="#DejaVuSans-74"/>
     <use x="1712.306641" xlink:href="#DejaVuSans-65"/>
     <use x="1773.830078" xlink:href="#DejaVuSans-20"/>
     <use x="1805.617188" xlink:href="#DejaVuSans-6e"/>
     <use x="1868.996094" xlink:href="#DejaVuSans-6f"/>
     <use x="1930.177734" xlink:href="#DejaVuSans-64"/>
     <use x="1993.654297" xlink:href="#DejaVuSans-65"/>
     <use x="2055.177734" xlink:href="#DejaVuSans-73"/>
    </g>
   </g>
  </g>
 </g>
 <defs>
  <clipPath id="p128c9ca717">
   <rect height="543.6" width="837" x="78.211875" y="33.259875"/>
  </clipPath>
 </defs>
</svg>
