<?xml version="1.0" encoding="utf-8" standalone="no"?>
<!DOCTYPE svg PUBLIC "-//W3C//DTD SVG 1.1//EN"
  "http://www.w3.org/Graphics/SVG/1.1/DTD/svg11.dtd">
<!-- Created with matplotlib (http://matplotlib.org/) -->
<svg height="603.474375pt" version="1.1" viewBox="0 0 920.115625 603.474375" width="920.115625pt" xmlns="http://www.w3.org/2000/svg" xmlns:xlink="http://www.w3.org/1999/xlink">
 <defs>
  <style type="text/css">
*{stroke-linecap:butt;stroke-linejoin:round;}
  </style>
 </defs>
 <g id="figure_1">
  <g id="patch_1">
   <path d="M 0 603.474375 
L 920.115625 603.474375 
L 920.115625 0 
L 0 0 
z
" style="fill:#ffffff;"/>
  </g>
  <g id="axes_1">
   <g id="patch_2">
    <path d="M 72.415625 565.918125 
L 909.415625 565.918125 
L 909.415625 22.318125 
L 72.415625 22.318125 
z
" style="fill:#ffffff;"/>
   </g>
   <g id="matplotlib.axis_1">
    <g id="xtick_1">
     <g id="line2d_1">
      <defs>
       <path d="M 0 0 
L 0 3.5 
" id="m6074173f0b" style="stroke:#000000;stroke-width:0.8;"/>
      </defs>
      <g>
       <use style="stroke:#000000;stroke-width:0.8;" x="106.466508" xlink:href="#m6074173f0b" y="565.918125"/>
      </g>
     </g>
     <g id="text_1">
      <!-- 0 -->
      <defs>
       <path d="M 31.78125 66.40625 
Q 24.171875 66.40625 20.328125 58.90625 
Q 16.5 51.421875 16.5 36.375 
Q 16.5 21.390625 20.328125 13.890625 
Q 24.171875 6.390625 31.78125 6.390625 
Q 39.453125 6.390625 43.28125 13.890625 
Q 47.125 21.390625 47.125 36.375 
Q 47.125 51.421875 43.28125 58.90625 
Q 39.453125 66.40625 31.78125 66.40625 
z
M 31.78125 74.21875 
Q 44.046875 74.21875 50.515625 64.515625 
Q 56.984375 54.828125 56.984375 36.375 
Q 56.984375 17.96875 50.515625 8.265625 
Q 44.046875 -1.421875 31.78125 -1.421875 
Q 19.53125 -1.421875 13.0625 8.265625 
Q 6.59375 17.96875 6.59375 36.375 
Q 6.59375 54.828125 13.0625 64.515625 
Q 19.53125 74.21875 31.78125 74.21875 
z
" id="DejaVuSans-30"/>
      </defs>
      <g transform="translate(103.285258 580.516562)scale(0.1 -0.1)">
       <use xlink:href="#DejaVuSans-30"/>
      </g>
     </g>
    </g>
    <g id="xtick_2">
     <g id="line2d_2">
      <g>
       <use style="stroke:#000000;stroke-width:0.8;" x="258.063163" xlink:href="#m6074173f0b" y="565.918125"/>
      </g>
     </g>
     <g id="text_2">
      <!-- 1000 -->
      <defs>
       <path d="M 12.40625 8.296875 
L 28.515625 8.296875 
L 28.515625 63.921875 
L 10.984375 60.40625 
L 10.984375 69.390625 
L 28.421875 72.90625 
L 38.28125 72.90625 
L 38.28125 8.296875 
L 54.390625 8.296875 
L 54.390625 0 
L 12.40625 0 
z
" id="DejaVuSans-31"/>
      </defs>
      <g transform="translate(245.338163 580.516562)scale(0.1 -0.1)">
       <use xlink:href="#DejaVuSans-31"/>
       <use x="63.623047" xlink:href="#DejaVuSans-30"/>
       <use x="127.246094" xlink:href="#DejaVuSans-30"/>
       <use x="190.869141" xlink:href="#DejaVuSans-30"/>
      </g>
     </g>
    </g>
    <g id="xtick_3">
     <g id="line2d_3">
      <g>
       <use style="stroke:#000000;stroke-width:0.8;" x="409.659818" xlink:href="#m6074173f0b" y="565.918125"/>
      </g>
     </g>
     <g id="text_3">
      <!-- 2000 -->
      <defs>
       <path d="M 19.1875 8.296875 
L 53.609375 8.296875 
L 53.609375 0 
L 7.328125 0 
L 7.328125 8.296875 
Q 12.9375 14.109375 22.625 23.890625 
Q 32.328125 33.6875 34.8125 36.53125 
Q 39.546875 41.84375 41.421875 45.53125 
Q 43.3125 49.21875 43.3125 52.78125 
Q 43.3125 58.59375 39.234375 62.25 
Q 35.15625 65.921875 28.609375 65.921875 
Q 23.96875 65.921875 18.8125 64.3125 
Q 13.671875 62.703125 7.8125 59.421875 
L 7.8125 69.390625 
Q 13.765625 71.78125 18.9375 73 
Q 24.125 74.21875 28.421875 74.21875 
Q 39.75 74.21875 46.484375 68.546875 
Q 53.21875 62.890625 53.21875 53.421875 
Q 53.21875 48.921875 51.53125 44.890625 
Q 49.859375 40.875 45.40625 35.40625 
Q 44.1875 33.984375 37.640625 27.21875 
Q 31.109375 20.453125 19.1875 8.296875 
z
" id="DejaVuSans-32"/>
      </defs>
      <g transform="translate(396.934818 580.516562)scale(0.1 -0.1)">
       <use xlink:href="#DejaVuSans-32"/>
       <use x="63.623047" xlink:href="#DejaVuSans-30"/>
       <use x="127.246094" xlink:href="#DejaVuSans-30"/>
       <use x="190.869141" xlink:href="#DejaVuSans-30"/>
      </g>
     </g>
    </g>
    <g id="xtick_4">
     <g id="line2d_4">
      <g>
       <use style="stroke:#000000;stroke-width:0.8;" x="561.256473" xlink:href="#m6074173f0b" y="565.918125"/>
      </g>
     </g>
     <g id="text_4">
      <!-- 3000 -->
      <defs>
       <path d="M 40.578125 39.3125 
Q 47.65625 37.796875 51.625 33 
Q 55.609375 28.21875 55.609375 21.1875 
Q 55.609375 10.40625 48.1875 4.484375 
Q 40.765625 -1.421875 27.09375 -1.421875 
Q 22.515625 -1.421875 17.65625 -0.515625 
Q 12.796875 0.390625 7.625 2.203125 
L 7.625 11.71875 
Q 11.71875 9.328125 16.59375 8.109375 
Q 21.484375 6.890625 26.8125 6.890625 
Q 36.078125 6.890625 40.9375 10.546875 
Q 45.796875 14.203125 45.796875 21.1875 
Q 45.796875 27.640625 41.28125 31.265625 
Q 36.765625 34.90625 28.71875 34.90625 
L 20.21875 34.90625 
L 20.21875 43.015625 
L 29.109375 43.015625 
Q 36.375 43.015625 40.234375 45.921875 
Q 44.09375 48.828125 44.09375 54.296875 
Q 44.09375 59.90625 40.109375 62.90625 
Q 36.140625 65.921875 28.71875 65.921875 
Q 24.65625 65.921875 20.015625 65.03125 
Q 15.375 64.15625 9.8125 62.3125 
L 9.8125 71.09375 
Q 15.4375 72.65625 20.34375 73.4375 
Q 25.25 74.21875 29.59375 74.21875 
Q 40.828125 74.21875 47.359375 69.109375 
Q 53.90625 64.015625 53.90625 55.328125 
Q 53.90625 49.265625 50.4375 45.09375 
Q 46.96875 40.921875 40.578125 39.3125 
z
" id="DejaVuSans-33"/>
      </defs>
      <g transform="translate(548.531473 580.516562)scale(0.1 -0.1)">
       <use xlink:href="#DejaVuSans-33"/>
       <use x="63.623047" xlink:href="#DejaVuSans-30"/>
       <use x="127.246094" xlink:href="#DejaVuSans-30"/>
       <use x="190.869141" xlink:href="#DejaVuSans-30"/>
      </g>
     </g>
    </g>
    <g id="xtick_5">
     <g id="line2d_5">
      <g>
       <use style="stroke:#000000;stroke-width:0.8;" x="712.853128" xlink:href="#m6074173f0b" y="565.918125"/>
      </g>
     </g>
     <g id="text_5">
      <!-- 4000 -->
      <defs>
       <path d="M 37.796875 64.3125 
L 12.890625 25.390625 
L 37.796875 25.390625 
z
M 35.203125 72.90625 
L 47.609375 72.90625 
L 47.609375 25.390625 
L 58.015625 25.390625 
L 58.015625 17.1875 
L 47.609375 17.1875 
L 47.609375 0 
L 37.796875 0 
L 37.796875 17.1875 
L 4.890625 17.1875 
L 4.890625 26.703125 
z
" id="DejaVuSans-34"/>
      </defs>
      <g transform="translate(700.128128 580.516562)scale(0.1 -0.1)">
       <use xlink:href="#DejaVuSans-34"/>
       <use x="63.623047" xlink:href="#DejaVuSans-30"/>
       <use x="127.246094" xlink:href="#DejaVuSans-30"/>
       <use x="190.869141" xlink:href="#DejaVuSans-30"/>
      </g>
     </g>
    </g>
    <g id="xtick_6">
     <g id="line2d_6">
      <g>
       <use style="stroke:#000000;stroke-width:0.8;" x="864.449783" xlink:href="#m6074173f0b" y="565.918125"/>
      </g>
     </g>
     <g id="text_6">
      <!-- 5000 -->
      <defs>
       <path d="M 10.796875 72.90625 
L 49.515625 72.90625 
L 49.515625 64.59375 
L 19.828125 64.59375 
L 19.828125 46.734375 
Q 21.96875 47.46875 24.109375 47.828125 
Q 26.265625 48.1875 28.421875 48.1875 
Q 40.625 48.1875 47.75 41.5 
Q 54.890625 34.8125 54.890625 23.390625 
Q 54.890625 11.625 47.5625 5.09375 
Q 40.234375 -1.421875 26.90625 -1.421875 
Q 22.3125 -1.421875 17.546875 -0.640625 
Q 12.796875 0.140625 7.71875 1.703125 
L 7.71875 11.625 
Q 12.109375 9.234375 16.796875 8.0625 
Q 21.484375 6.890625 26.703125 6.890625 
Q 35.15625 6.890625 40.078125 11.328125 
Q 45.015625 15.765625 45.015625 23.390625 
Q 45.015625 31 40.078125 35.4375 
Q 35.15625 39.890625 26.703125 39.890625 
Q 22.75 39.890625 18.8125 39.015625 
Q 14.890625 38.140625 10.796875 36.28125 
z
" id="DejaVuSans-35"/>
      </defs>
      <g transform="translate(851.724783 580.516562)scale(0.1 -0.1)">
       <use xlink:href="#DejaVuSans-35"/>
       <use x="63.623047" xlink:href="#DejaVuSans-30"/>
       <use x="127.246094" xlink:href="#DejaVuSans-30"/>
       <use x="190.869141" xlink:href="#DejaVuSans-30"/>
      </g>
     </g>
    </g>
    <g id="text_7">
     <!-- k -->
     <defs>
      <path d="M 9.078125 75.984375 
L 18.109375 75.984375 
L 18.109375 31.109375 
L 44.921875 54.6875 
L 56.390625 54.6875 
L 27.390625 29.109375 
L 57.625 0 
L 45.90625 0 
L 18.109375 26.703125 
L 18.109375 0 
L 9.078125 0 
z
" id="DejaVuSans-6b"/>
     </defs>
     <g transform="translate(488.020312 594.194687)scale(0.1 -0.1)">
      <use xlink:href="#DejaVuSans-6b"/>
     </g>
    </g>
   </g>
   <g id="matplotlib.axis_2">
    <g id="ytick_1">
     <g id="line2d_7">
      <defs>
       <path d="M 0 0 
L -3.5 0 
" id="m53a8268c37" style="stroke:#000000;stroke-width:0.8;"/>
      </defs>
      <g>
       <use style="stroke:#000000;stroke-width:0.8;" x="72.415625" xlink:href="#m53a8268c37" y="541.209034"/>
      </g>
     </g>
     <g id="text_8">
      <!-- 0 -->
      <g transform="translate(59.053125 545.008253)scale(0.1 -0.1)">
       <use xlink:href="#DejaVuSans-30"/>
      </g>
     </g>
    </g>
    <g id="ytick_2">
     <g id="line2d_8">
      <g>
       <use style="stroke:#000000;stroke-width:0.8;" x="72.415625" xlink:href="#m53a8268c37" y="476.717631"/>
      </g>
     </g>
     <g id="text_9">
      <!-- 200000 -->
      <g transform="translate(27.240625 480.51685)scale(0.1 -0.1)">
       <use xlink:href="#DejaVuSans-32"/>
       <use x="63.623047" xlink:href="#DejaVuSans-30"/>
       <use x="127.246094" xlink:href="#DejaVuSans-30"/>
       <use x="190.869141" xlink:href="#DejaVuSans-30"/>
       <use x="254.492188" xlink:href="#DejaVuSans-30"/>
       <use x="318.115234" xlink:href="#DejaVuSans-30"/>
      </g>
     </g>
    </g>
    <g id="ytick_3">
     <g id="line2d_9">
      <g>
       <use style="stroke:#000000;stroke-width:0.8;" x="72.415625" xlink:href="#m53a8268c37" y="412.226229"/>
      </g>
     </g>
     <g id="text_10">
      <!-- 400000 -->
      <g transform="translate(27.240625 416.025448)scale(0.1 -0.1)">
       <use xlink:href="#DejaVuSans-34"/>
       <use x="63.623047" xlink:href="#DejaVuSans-30"/>
       <use x="127.246094" xlink:href="#DejaVuSans-30"/>
       <use x="190.869141" xlink:href="#DejaVuSans-30"/>
       <use x="254.492188" xlink:href="#DejaVuSans-30"/>
       <use x="318.115234" xlink:href="#DejaVuSans-30"/>
      </g>
     </g>
    </g>
    <g id="ytick_4">
     <g id="line2d_10">
      <g>
       <use style="stroke:#000000;stroke-width:0.8;" x="72.415625" xlink:href="#m53a8268c37" y="347.734826"/>
      </g>
     </g>
     <g id="text_11">
      <!-- 600000 -->
      <defs>
       <path d="M 33.015625 40.375 
Q 26.375 40.375 22.484375 35.828125 
Q 18.609375 31.296875 18.609375 23.390625 
Q 18.609375 15.53125 22.484375 10.953125 
Q 26.375 6.390625 33.015625 6.390625 
Q 39.65625 6.390625 43.53125 10.953125 
Q 47.40625 15.53125 47.40625 23.390625 
Q 47.40625 31.296875 43.53125 35.828125 
Q 39.65625 40.375 33.015625 40.375 
z
M 52.59375 71.296875 
L 52.59375 62.3125 
Q 48.875 64.0625 45.09375 64.984375 
Q 41.3125 65.921875 37.59375 65.921875 
Q 27.828125 65.921875 22.671875 59.328125 
Q 17.53125 52.734375 16.796875 39.40625 
Q 19.671875 43.65625 24.015625 45.921875 
Q 28.375 48.1875 33.59375 48.1875 
Q 44.578125 48.1875 50.953125 41.515625 
Q 57.328125 34.859375 57.328125 23.390625 
Q 57.328125 12.15625 50.6875 5.359375 
Q 44.046875 -1.421875 33.015625 -1.421875 
Q 20.359375 -1.421875 13.671875 8.265625 
Q 6.984375 17.96875 6.984375 36.375 
Q 6.984375 53.65625 15.1875 63.9375 
Q 23.390625 74.21875 37.203125 74.21875 
Q 40.921875 74.21875 44.703125 73.484375 
Q 48.484375 72.75 52.59375 71.296875 
z
" id="DejaVuSans-36"/>
      </defs>
      <g transform="translate(27.240625 351.534045)scale(0.1 -0.1)">
       <use xlink:href="#DejaVuSans-36"/>
       <use x="63.623047" xlink:href="#DejaVuSans-30"/>
       <use x="127.246094" xlink:href="#DejaVuSans-30"/>
       <use x="190.869141" xlink:href="#DejaVuSans-30"/>
       <use x="254.492188" xlink:href="#DejaVuSans-30"/>
       <use x="318.115234" xlink:href="#DejaVuSans-30"/>
      </g>
     </g>
    </g>
    <g id="ytick_5">
     <g id="line2d_11">
      <g>
       <use style="stroke:#000000;stroke-width:0.8;" x="72.415625" xlink:href="#m53a8268c37" y="283.243423"/>
      </g>
     </g>
     <g id="text_12">
      <!-- 800000 -->
      <defs>
       <path d="M 31.78125 34.625 
Q 24.75 34.625 20.71875 30.859375 
Q 16.703125 27.09375 16.703125 20.515625 
Q 16.703125 13.921875 20.71875 10.15625 
Q 24.75 6.390625 31.78125 6.390625 
Q 38.8125 6.390625 42.859375 10.171875 
Q 46.921875 13.96875 46.921875 20.515625 
Q 46.921875 27.09375 42.890625 30.859375 
Q 38.875 34.625 31.78125 34.625 
z
M 21.921875 38.8125 
Q 15.578125 40.375 12.03125 44.71875 
Q 8.5 49.078125 8.5 55.328125 
Q 8.5 64.0625 14.71875 69.140625 
Q 20.953125 74.21875 31.78125 74.21875 
Q 42.671875 74.21875 48.875 69.140625 
Q 55.078125 64.0625 55.078125 55.328125 
Q 55.078125 49.078125 51.53125 44.71875 
Q 48 40.375 41.703125 38.8125 
Q 48.828125 37.15625 52.796875 32.3125 
Q 56.78125 27.484375 56.78125 20.515625 
Q 56.78125 9.90625 50.3125 4.234375 
Q 43.84375 -1.421875 31.78125 -1.421875 
Q 19.734375 -1.421875 13.25 4.234375 
Q 6.78125 9.90625 6.78125 20.515625 
Q 6.78125 27.484375 10.78125 32.3125 
Q 14.796875 37.15625 21.921875 38.8125 
z
M 18.3125 54.390625 
Q 18.3125 48.734375 21.84375 45.5625 
Q 25.390625 42.390625 31.78125 42.390625 
Q 38.140625 42.390625 41.71875 45.5625 
Q 45.3125 48.734375 45.3125 54.390625 
Q 45.3125 60.0625 41.71875 63.234375 
Q 38.140625 66.40625 31.78125 66.40625 
Q 25.390625 66.40625 21.84375 63.234375 
Q 18.3125 60.0625 18.3125 54.390625 
z
" id="DejaVuSans-38"/>
      </defs>
      <g transform="translate(27.240625 287.042642)scale(0.1 -0.1)">
       <use xlink:href="#DejaVuSans-38"/>
       <use x="63.623047" xlink:href="#DejaVuSans-30"/>
       <use x="127.246094" xlink:href="#DejaVuSans-30"/>
       <use x="190.869141" xlink:href="#DejaVuSans-30"/>
       <use x="254.492188" xlink:href="#DejaVuSans-30"/>
       <use x="318.115234" xlink:href="#DejaVuSans-30"/>
      </g>
     </g>
    </g>
    <g id="ytick_6">
     <g id="line2d_12">
      <g>
       <use style="stroke:#000000;stroke-width:0.8;" x="72.415625" xlink:href="#m53a8268c37" y="218.752021"/>
      </g>
     </g>
     <g id="text_13">
      <!-- 1000000 -->
      <g transform="translate(20.878125 222.55124)scale(0.1 -0.1)">
       <use xlink:href="#DejaVuSans-31"/>
       <use x="63.623047" xlink:href="#DejaVuSans-30"/>
       <use x="127.246094" xlink:href="#DejaVuSans-30"/>
       <use x="190.869141" xlink:href="#DejaVuSans-30"/>
       <use x="254.492188" xlink:href="#DejaVuSans-30"/>
       <use x="318.115234" xlink:href="#DejaVuSans-30"/>
       <use x="381.738281" xlink:href="#DejaVuSans-30"/>
      </g>
     </g>
    </g>
    <g id="ytick_7">
     <g id="line2d_13">
      <g>
       <use style="stroke:#000000;stroke-width:0.8;" x="72.415625" xlink:href="#m53a8268c37" y="154.260618"/>
      </g>
     </g>
     <g id="text_14">
      <!-- 1200000 -->
      <g transform="translate(20.878125 158.059837)scale(0.1 -0.1)">
       <use xlink:href="#DejaVuSans-31"/>
       <use x="63.623047" xlink:href="#DejaVuSans-32"/>
       <use x="127.246094" xlink:href="#DejaVuSans-30"/>
       <use x="190.869141" xlink:href="#DejaVuSans-30"/>
       <use x="254.492188" xlink:href="#DejaVuSans-30"/>
       <use x="318.115234" xlink:href="#DejaVuSans-30"/>
       <use x="381.738281" xlink:href="#DejaVuSans-30"/>
      </g>
     </g>
    </g>
    <g id="ytick_8">
     <g id="line2d_14">
      <g>
       <use style="stroke:#000000;stroke-width:0.8;" x="72.415625" xlink:href="#m53a8268c37" y="89.769215"/>
      </g>
     </g>
     <g id="text_15">
      <!-- 1400000 -->
      <g transform="translate(20.878125 93.568434)scale(0.1 -0.1)">
       <use xlink:href="#DejaVuSans-31"/>
       <use x="63.623047" xlink:href="#DejaVuSans-34"/>
       <use x="127.246094" xlink:href="#DejaVuSans-30"/>
       <use x="190.869141" xlink:href="#DejaVuSans-30"/>
       <use x="254.492188" xlink:href="#DejaVuSans-30"/>
       <use x="318.115234" xlink:href="#DejaVuSans-30"/>
       <use x="381.738281" xlink:href="#DejaVuSans-30"/>
      </g>
     </g>
    </g>
    <g id="ytick_9">
     <g id="line2d_15">
      <g>
       <use style="stroke:#000000;stroke-width:0.8;" x="72.415625" xlink:href="#m53a8268c37" y="25.277813"/>
      </g>
     </g>
     <g id="text_16">
      <!-- 1600000 -->
      <g transform="translate(20.878125 29.077032)scale(0.1 -0.1)">
       <use xlink:href="#DejaVuSans-31"/>
       <use x="63.623047" xlink:href="#DejaVuSans-36"/>
       <use x="127.246094" xlink:href="#DejaVuSans-30"/>
       <use x="190.869141" xlink:href="#DejaVuSans-30"/>
       <use x="254.492188" xlink:href="#DejaVuSans-30"/>
       <use x="318.115234" xlink:href="#DejaVuSans-30"/>
       <use x="381.738281" xlink:href="#DejaVuSans-30"/>
      </g>
     </g>
    </g>
    <g id="text_17">
     <!-- frequency -->
     <defs>
      <path d="M 37.109375 75.984375 
L 37.109375 68.5 
L 28.515625 68.5 
Q 23.6875 68.5 21.796875 66.546875 
Q 19.921875 64.59375 19.921875 59.515625 
L 19.921875 54.6875 
L 34.71875 54.6875 
L 34.71875 47.703125 
L 19.921875 47.703125 
L 19.921875 0 
L 10.890625 0 
L 10.890625 47.703125 
L 2.296875 47.703125 
L 2.296875 54.6875 
L 10.890625 54.6875 
L 10.890625 58.5 
Q 10.890625 67.625 15.140625 71.796875 
Q 19.390625 75.984375 28.609375 75.984375 
z
" id="DejaVuSans-66"/>
      <path d="M 41.109375 46.296875 
Q 39.59375 47.171875 37.8125 47.578125 
Q 36.03125 48 33.890625 48 
Q 26.265625 48 22.1875 43.046875 
Q 18.109375 38.09375 18.109375 28.8125 
L 18.109375 0 
L 9.078125 0 
L 9.078125 54.6875 
L 18.109375 54.6875 
L 18.109375 46.1875 
Q 20.953125 51.171875 25.484375 53.578125 
Q 30.03125 56 36.53125 56 
Q 37.453125 56 38.578125 55.875 
Q 39.703125 55.765625 41.0625 55.515625 
z
" id="DejaVuSans-72"/>
      <path d="M 56.203125 29.59375 
L 56.203125 25.203125 
L 14.890625 25.203125 
Q 15.484375 15.921875 20.484375 11.0625 
Q 25.484375 6.203125 34.421875 6.203125 
Q 39.59375 6.203125 44.453125 7.46875 
Q 49.3125 8.734375 54.109375 11.28125 
L 54.109375 2.78125 
Q 49.265625 0.734375 44.1875 -0.34375 
Q 39.109375 -1.421875 33.890625 -1.421875 
Q 20.796875 -1.421875 13.15625 6.1875 
Q 5.515625 13.8125 5.515625 26.8125 
Q 5.515625 40.234375 12.765625 48.109375 
Q 20.015625 56 32.328125 56 
Q 43.359375 56 49.78125 48.890625 
Q 56.203125 41.796875 56.203125 29.59375 
z
M 47.21875 32.234375 
Q 47.125 39.59375 43.09375 43.984375 
Q 39.0625 48.390625 32.421875 48.390625 
Q 24.90625 48.390625 20.390625 44.140625 
Q 15.875 39.890625 15.1875 32.171875 
z
" id="DejaVuSans-65"/>
      <path d="M 14.796875 27.296875 
Q 14.796875 17.390625 18.875 11.75 
Q 22.953125 6.109375 30.078125 6.109375 
Q 37.203125 6.109375 41.296875 11.75 
Q 45.40625 17.390625 45.40625 27.296875 
Q 45.40625 37.203125 41.296875 42.84375 
Q 37.203125 48.484375 30.078125 48.484375 
Q 22.953125 48.484375 18.875 42.84375 
Q 14.796875 37.203125 14.796875 27.296875 
z
M 45.40625 8.203125 
Q 42.578125 3.328125 38.25 0.953125 
Q 33.9375 -1.421875 27.875 -1.421875 
Q 17.96875 -1.421875 11.734375 6.484375 
Q 5.515625 14.40625 5.515625 27.296875 
Q 5.515625 40.1875 11.734375 48.09375 
Q 17.96875 56 27.875 56 
Q 33.9375 56 38.25 53.625 
Q 42.578125 51.265625 45.40625 46.390625 
L 45.40625 54.6875 
L 54.390625 54.6875 
L 54.390625 -20.796875 
L 45.40625 -20.796875 
z
" id="DejaVuSans-71"/>
      <path d="M 8.5 21.578125 
L 8.5 54.6875 
L 17.484375 54.6875 
L 17.484375 21.921875 
Q 17.484375 14.15625 20.5 10.265625 
Q 23.53125 6.390625 29.59375 6.390625 
Q 36.859375 6.390625 41.078125 11.03125 
Q 45.3125 15.671875 45.3125 23.6875 
L 45.3125 54.6875 
L 54.296875 54.6875 
L 54.296875 0 
L 45.3125 0 
L 45.3125 8.40625 
Q 42.046875 3.421875 37.71875 1 
Q 33.40625 -1.421875 27.6875 -1.421875 
Q 18.265625 -1.421875 13.375 4.4375 
Q 8.5 10.296875 8.5 21.578125 
z
M 31.109375 56 
z
" id="DejaVuSans-75"/>
      <path d="M 54.890625 33.015625 
L 54.890625 0 
L 45.90625 0 
L 45.90625 32.71875 
Q 45.90625 40.484375 42.875 44.328125 
Q 39.84375 48.1875 33.796875 48.1875 
Q 26.515625 48.1875 22.3125 43.546875 
Q 18.109375 38.921875 18.109375 30.90625 
L 18.109375 0 
L 9.078125 0 
L 9.078125 54.6875 
L 18.109375 54.6875 
L 18.109375 46.1875 
Q 21.34375 51.125 25.703125 53.5625 
Q 30.078125 56 35.796875 56 
Q 45.21875 56 50.046875 50.171875 
Q 54.890625 44.34375 54.890625 33.015625 
z
" id="DejaVuSans-6e"/>
      <path d="M 48.78125 52.59375 
L 48.78125 44.1875 
Q 44.96875 46.296875 41.140625 47.34375 
Q 37.3125 48.390625 33.40625 48.390625 
Q 24.65625 48.390625 19.8125 42.84375 
Q 14.984375 37.3125 14.984375 27.296875 
Q 14.984375 17.28125 19.8125 11.734375 
Q 24.65625 6.203125 33.40625 6.203125 
Q 37.3125 6.203125 41.140625 7.25 
Q 44.96875 8.296875 48.78125 10.40625 
L 48.78125 2.09375 
Q 45.015625 0.34375 40.984375 -0.53125 
Q 36.96875 -1.421875 32.421875 -1.421875 
Q 20.0625 -1.421875 12.78125 6.34375 
Q 5.515625 14.109375 5.515625 27.296875 
Q 5.515625 40.671875 12.859375 48.328125 
Q 20.21875 56 33.015625 56 
Q 37.15625 56 41.109375 55.140625 
Q 45.0625 54.296875 48.78125 52.59375 
z
" id="DejaVuSans-63"/>
      <path d="M 32.171875 -5.078125 
Q 28.375 -14.84375 24.75 -17.8125 
Q 21.140625 -20.796875 15.09375 -20.796875 
L 7.90625 -20.796875 
L 7.90625 -13.28125 
L 13.1875 -13.28125 
Q 16.890625 -13.28125 18.9375 -11.515625 
Q 21 -9.765625 23.484375 -3.21875 
L 25.09375 0.875 
L 2.984375 54.6875 
L 12.5 54.6875 
L 29.59375 11.921875 
L 46.6875 54.6875 
L 56.203125 54.6875 
z
" id="DejaVuSans-79"/>
     </defs>
     <g transform="translate(14.798438 319.305625)rotate(-90)scale(0.1 -0.1)">
      <use xlink:href="#DejaVuSans-66"/>
      <use x="35.205078" xlink:href="#DejaVuSans-72"/>
      <use x="76.287109" xlink:href="#DejaVuSans-65"/>
      <use x="137.810547" xlink:href="#DejaVuSans-71"/>
      <use x="201.287109" xlink:href="#DejaVuSans-75"/>
      <use x="264.666016" xlink:href="#DejaVuSans-65"/>
      <use x="326.189453" xlink:href="#DejaVuSans-6e"/>
      <use x="389.568359" xlink:href="#DejaVuSans-63"/>
      <use x="444.548828" xlink:href="#DejaVuSans-79"/>
     </g>
    </g>
   </g>
   <g id="line2d_16">
    <defs>
     <path d="M 0 5 
C 1.326016 5 2.597899 4.473168 3.535534 3.535534 
C 4.473168 2.597899 5 1.326016 5 0 
C 5 -1.326016 4.473168 -2.597899 3.535534 -3.535534 
C 2.597899 -4.473168 1.326016 -5 0 -5 
C -1.326016 -5 -2.597899 -4.473168 -3.535534 -3.535534 
C -4.473168 -2.597899 -5 -1.326016 -5 0 
C -5 1.326016 -4.473168 2.597899 -3.535534 3.535534 
C -2.597899 4.473168 -1.326016 5 0 5 
z
" id="me102f328a9" style="stroke:#1f77b4;"/>
    </defs>
    <g clip-path="url(#pe2005664c3)">
     <use style="fill:#1f77b4;stroke:#1f77b4;" x="110.46108" xlink:href="#me102f328a9" y="47.027216"/>
     <use style="fill:#1f77b4;stroke:#1f77b4;" x="118.14703" xlink:href="#me102f328a9" y="538.937647"/>
     <use style="fill:#1f77b4;stroke:#1f77b4;" x="125.83298" xlink:href="#me102f328a9" y="540.37516"/>
     <use style="fill:#1f77b4;stroke:#1f77b4;" x="133.518931" xlink:href="#me102f328a9" y="540.826923"/>
     <use style="fill:#1f77b4;stroke:#1f77b4;" x="141.204881" xlink:href="#me102f328a9" y="541.007176"/>
     <use style="fill:#1f77b4;stroke:#1f77b4;" x="148.890832" xlink:href="#me102f328a9" y="541.093594"/>
     <use style="fill:#1f77b4;stroke:#1f77b4;" x="156.576782" xlink:href="#me102f328a9" y="541.146477"/>
     <use style="fill:#1f77b4;stroke:#1f77b4;" x="164.262732" xlink:href="#me102f328a9" y="541.169694"/>
     <use style="fill:#1f77b4;stroke:#1f77b4;" x="171.948683" xlink:href="#me102f328a9" y="541.18227"/>
     <use style="fill:#1f77b4;stroke:#1f77b4;" x="179.634633" xlink:href="#me102f328a9" y="541.188397"/>
     <use style="fill:#1f77b4;stroke:#1f77b4;" x="187.320584" xlink:href="#me102f328a9" y="541.197103"/>
     <use style="fill:#1f77b4;stroke:#1f77b4;" x="195.006534" xlink:href="#me102f328a9" y="541.19936"/>
     <use style="fill:#1f77b4;stroke:#1f77b4;" x="202.692485" xlink:href="#me102f328a9" y="541.206132"/>
     <use style="fill:#1f77b4;stroke:#1f77b4;" x="210.378435" xlink:href="#me102f328a9" y="541.204842"/>
     <use style="fill:#1f77b4;stroke:#1f77b4;" x="218.064385" xlink:href="#me102f328a9" y="541.205165"/>
     <use style="fill:#1f77b4;stroke:#1f77b4;" x="225.750336" xlink:href="#me102f328a9" y="541.204197"/>
     <use style="fill:#1f77b4;stroke:#1f77b4;" x="233.436286" xlink:href="#me102f328a9" y="541.207099"/>
     <use style="fill:#1f77b4;stroke:#1f77b4;" x="241.122237" xlink:href="#me102f328a9" y="541.208712"/>
     <use style="fill:#1f77b4;stroke:#1f77b4;" x="248.808187" xlink:href="#me102f328a9" y="541.208067"/>
     <use style="fill:#1f77b4;stroke:#1f77b4;" x="256.494137" xlink:href="#me102f328a9" y="541.208712"/>
     <use style="fill:#1f77b4;stroke:#1f77b4;" x="264.180088" xlink:href="#me102f328a9" y="541.208067"/>
     <use style="fill:#1f77b4;stroke:#1f77b4;" x="271.866038" xlink:href="#me102f328a9" y="541.207099"/>
     <use style="fill:#1f77b4;stroke:#1f77b4;" x="279.551989" xlink:href="#me102f328a9" y="541.208389"/>
     <use style="fill:#1f77b4;stroke:#1f77b4;" x="287.237939" xlink:href="#me102f328a9" y="541.208389"/>
     <use style="fill:#1f77b4;stroke:#1f77b4;" x="294.923889" xlink:href="#me102f328a9" y="541.208712"/>
     <use style="fill:#1f77b4;stroke:#1f77b4;" x="302.60984" xlink:href="#me102f328a9" y="541.209034"/>
     <use style="fill:#1f77b4;stroke:#1f77b4;" x="310.29579" xlink:href="#me102f328a9" y="541.208712"/>
     <use style="fill:#1f77b4;stroke:#1f77b4;" x="317.981741" xlink:href="#me102f328a9" y="541.209034"/>
     <use style="fill:#1f77b4;stroke:#1f77b4;" x="325.667691" xlink:href="#me102f328a9" y="541.209034"/>
     <use style="fill:#1f77b4;stroke:#1f77b4;" x="333.353642" xlink:href="#me102f328a9" y="541.209034"/>
     <use style="fill:#1f77b4;stroke:#1f77b4;" x="341.039592" xlink:href="#me102f328a9" y="541.209034"/>
     <use style="fill:#1f77b4;stroke:#1f77b4;" x="348.725542" xlink:href="#me102f328a9" y="541.209034"/>
     <use style="fill:#1f77b4;stroke:#1f77b4;" x="356.411493" xlink:href="#me102f328a9" y="541.208712"/>
     <use style="fill:#1f77b4;stroke:#1f77b4;" x="364.097443" xlink:href="#me102f328a9" y="541.208712"/>
     <use style="fill:#1f77b4;stroke:#1f77b4;" x="371.783394" xlink:href="#me102f328a9" y="541.209034"/>
     <use style="fill:#1f77b4;stroke:#1f77b4;" x="379.469344" xlink:href="#me102f328a9" y="541.208712"/>
     <use style="fill:#1f77b4;stroke:#1f77b4;" x="387.155294" xlink:href="#me102f328a9" y="541.208712"/>
     <use style="fill:#1f77b4;stroke:#1f77b4;" x="394.841245" xlink:href="#me102f328a9" y="541.209034"/>
     <use style="fill:#1f77b4;stroke:#1f77b4;" x="402.527195" xlink:href="#me102f328a9" y="541.209034"/>
     <use style="fill:#1f77b4;stroke:#1f77b4;" x="410.213146" xlink:href="#me102f328a9" y="541.209034"/>
     <use style="fill:#1f77b4;stroke:#1f77b4;" x="417.899096" xlink:href="#me102f328a9" y="541.209034"/>
     <use style="fill:#1f77b4;stroke:#1f77b4;" x="425.585046" xlink:href="#me102f328a9" y="541.209034"/>
     <use style="fill:#1f77b4;stroke:#1f77b4;" x="433.270997" xlink:href="#me102f328a9" y="541.209034"/>
     <use style="fill:#1f77b4;stroke:#1f77b4;" x="440.956947" xlink:href="#me102f328a9" y="541.209034"/>
     <use style="fill:#1f77b4;stroke:#1f77b4;" x="448.642898" xlink:href="#me102f328a9" y="541.209034"/>
     <use style="fill:#1f77b4;stroke:#1f77b4;" x="456.328848" xlink:href="#me102f328a9" y="541.209034"/>
     <use style="fill:#1f77b4;stroke:#1f77b4;" x="464.014799" xlink:href="#me102f328a9" y="541.209034"/>
     <use style="fill:#1f77b4;stroke:#1f77b4;" x="471.700749" xlink:href="#me102f328a9" y="541.209034"/>
     <use style="fill:#1f77b4;stroke:#1f77b4;" x="479.386699" xlink:href="#me102f328a9" y="541.209034"/>
     <use style="fill:#1f77b4;stroke:#1f77b4;" x="487.07265" xlink:href="#me102f328a9" y="541.209034"/>
     <use style="fill:#1f77b4;stroke:#1f77b4;" x="494.7586" xlink:href="#me102f328a9" y="541.208712"/>
     <use style="fill:#1f77b4;stroke:#1f77b4;" x="502.444551" xlink:href="#me102f328a9" y="541.209034"/>
     <use style="fill:#1f77b4;stroke:#1f77b4;" x="510.130501" xlink:href="#me102f328a9" y="541.209034"/>
     <use style="fill:#1f77b4;stroke:#1f77b4;" x="517.816451" xlink:href="#me102f328a9" y="541.209034"/>
     <use style="fill:#1f77b4;stroke:#1f77b4;" x="525.502402" xlink:href="#me102f328a9" y="541.209034"/>
     <use style="fill:#1f77b4;stroke:#1f77b4;" x="533.188352" xlink:href="#me102f328a9" y="541.209034"/>
     <use style="fill:#1f77b4;stroke:#1f77b4;" x="540.874303" xlink:href="#me102f328a9" y="541.209034"/>
     <use style="fill:#1f77b4;stroke:#1f77b4;" x="548.560253" xlink:href="#me102f328a9" y="541.209034"/>
     <use style="fill:#1f77b4;stroke:#1f77b4;" x="556.246204" xlink:href="#me102f328a9" y="541.209034"/>
     <use style="fill:#1f77b4;stroke:#1f77b4;" x="563.932154" xlink:href="#me102f328a9" y="541.209034"/>
     <use style="fill:#1f77b4;stroke:#1f77b4;" x="571.618104" xlink:href="#me102f328a9" y="541.209034"/>
     <use style="fill:#1f77b4;stroke:#1f77b4;" x="579.304055" xlink:href="#me102f328a9" y="541.209034"/>
     <use style="fill:#1f77b4;stroke:#1f77b4;" x="586.990005" xlink:href="#me102f328a9" y="541.209034"/>
     <use style="fill:#1f77b4;stroke:#1f77b4;" x="594.675956" xlink:href="#me102f328a9" y="541.209034"/>
     <use style="fill:#1f77b4;stroke:#1f77b4;" x="602.361906" xlink:href="#me102f328a9" y="541.208712"/>
     <use style="fill:#1f77b4;stroke:#1f77b4;" x="610.047856" xlink:href="#me102f328a9" y="541.209034"/>
     <use style="fill:#1f77b4;stroke:#1f77b4;" x="617.733807" xlink:href="#me102f328a9" y="541.209034"/>
     <use style="fill:#1f77b4;stroke:#1f77b4;" x="625.419757" xlink:href="#me102f328a9" y="541.209034"/>
     <use style="fill:#1f77b4;stroke:#1f77b4;" x="633.105708" xlink:href="#me102f328a9" y="541.209034"/>
     <use style="fill:#1f77b4;stroke:#1f77b4;" x="640.791658" xlink:href="#me102f328a9" y="541.209034"/>
     <use style="fill:#1f77b4;stroke:#1f77b4;" x="648.477608" xlink:href="#me102f328a9" y="541.209034"/>
     <use style="fill:#1f77b4;stroke:#1f77b4;" x="656.163559" xlink:href="#me102f328a9" y="541.209034"/>
     <use style="fill:#1f77b4;stroke:#1f77b4;" x="663.849509" xlink:href="#me102f328a9" y="541.209034"/>
     <use style="fill:#1f77b4;stroke:#1f77b4;" x="671.53546" xlink:href="#me102f328a9" y="541.209034"/>
     <use style="fill:#1f77b4;stroke:#1f77b4;" x="679.22141" xlink:href="#me102f328a9" y="541.209034"/>
     <use style="fill:#1f77b4;stroke:#1f77b4;" x="686.907361" xlink:href="#me102f328a9" y="541.209034"/>
     <use style="fill:#1f77b4;stroke:#1f77b4;" x="694.593311" xlink:href="#me102f328a9" y="541.209034"/>
     <use style="fill:#1f77b4;stroke:#1f77b4;" x="702.279261" xlink:href="#me102f328a9" y="541.209034"/>
     <use style="fill:#1f77b4;stroke:#1f77b4;" x="709.965212" xlink:href="#me102f328a9" y="541.209034"/>
     <use style="fill:#1f77b4;stroke:#1f77b4;" x="717.651162" xlink:href="#me102f328a9" y="541.209034"/>
     <use style="fill:#1f77b4;stroke:#1f77b4;" x="725.337113" xlink:href="#me102f328a9" y="541.209034"/>
     <use style="fill:#1f77b4;stroke:#1f77b4;" x="733.023063" xlink:href="#me102f328a9" y="541.209034"/>
     <use style="fill:#1f77b4;stroke:#1f77b4;" x="740.709013" xlink:href="#me102f328a9" y="541.209034"/>
     <use style="fill:#1f77b4;stroke:#1f77b4;" x="748.394964" xlink:href="#me102f328a9" y="541.209034"/>
     <use style="fill:#1f77b4;stroke:#1f77b4;" x="756.080914" xlink:href="#me102f328a9" y="541.209034"/>
     <use style="fill:#1f77b4;stroke:#1f77b4;" x="763.766865" xlink:href="#me102f328a9" y="541.209034"/>
     <use style="fill:#1f77b4;stroke:#1f77b4;" x="771.452815" xlink:href="#me102f328a9" y="541.209034"/>
     <use style="fill:#1f77b4;stroke:#1f77b4;" x="779.138765" xlink:href="#me102f328a9" y="541.209034"/>
     <use style="fill:#1f77b4;stroke:#1f77b4;" x="786.824716" xlink:href="#me102f328a9" y="541.209034"/>
     <use style="fill:#1f77b4;stroke:#1f77b4;" x="794.510666" xlink:href="#me102f328a9" y="541.209034"/>
     <use style="fill:#1f77b4;stroke:#1f77b4;" x="802.196617" xlink:href="#me102f328a9" y="541.209034"/>
     <use style="fill:#1f77b4;stroke:#1f77b4;" x="809.882567" xlink:href="#me102f328a9" y="541.209034"/>
     <use style="fill:#1f77b4;stroke:#1f77b4;" x="817.568518" xlink:href="#me102f328a9" y="541.209034"/>
     <use style="fill:#1f77b4;stroke:#1f77b4;" x="825.254468" xlink:href="#me102f328a9" y="541.209034"/>
     <use style="fill:#1f77b4;stroke:#1f77b4;" x="832.940418" xlink:href="#me102f328a9" y="541.209034"/>
     <use style="fill:#1f77b4;stroke:#1f77b4;" x="840.626369" xlink:href="#me102f328a9" y="541.209034"/>
     <use style="fill:#1f77b4;stroke:#1f77b4;" x="848.312319" xlink:href="#me102f328a9" y="541.209034"/>
     <use style="fill:#1f77b4;stroke:#1f77b4;" x="855.99827" xlink:href="#me102f328a9" y="541.209034"/>
     <use style="fill:#1f77b4;stroke:#1f77b4;" x="863.68422" xlink:href="#me102f328a9" y="541.209034"/>
     <use style="fill:#1f77b4;stroke:#1f77b4;" x="871.37017" xlink:href="#me102f328a9" y="541.208712"/>
    </g>
   </g>
   <g id="patch_3">
    <path d="M 72.415625 565.918125 
L 72.415625 22.318125 
" style="fill:none;stroke:#000000;stroke-linecap:square;stroke-linejoin:miter;stroke-width:0.8;"/>
   </g>
   <g id="patch_4">
    <path d="M 909.415625 565.918125 
L 909.415625 22.318125 
" style="fill:none;stroke:#000000;stroke-linecap:square;stroke-linejoin:miter;stroke-width:0.8;"/>
   </g>
   <g id="patch_5">
    <path d="M 72.415625 565.918125 
L 909.415625 565.918125 
" style="fill:none;stroke:#000000;stroke-linecap:square;stroke-linejoin:miter;stroke-width:0.8;"/>
   </g>
   <g id="patch_6">
    <path d="M 72.415625 22.318125 
L 909.415625 22.318125 
" style="fill:none;stroke:#000000;stroke-linecap:square;stroke-linejoin:miter;stroke-width:0.8;"/>
   </g>
   <g id="text_18">
    <!-- Degree distribution for user nodes -->
    <defs>
     <path d="M 19.671875 64.796875 
L 19.671875 8.109375 
L 31.59375 8.109375 
Q 46.6875 8.109375 53.6875 14.9375 
Q 60.6875 21.78125 60.6875 36.53125 
Q 60.6875 51.171875 53.6875 57.984375 
Q 46.6875 64.796875 31.59375 64.796875 
z
M 9.8125 72.90625 
L 30.078125 72.90625 
Q 51.265625 72.90625 61.171875 64.09375 
Q 71.09375 55.28125 71.09375 36.53125 
Q 71.09375 17.671875 61.125 8.828125 
Q 51.171875 0 30.078125 0 
L 9.8125 0 
z
" id="DejaVuSans-44"/>
     <path d="M 45.40625 27.984375 
Q 45.40625 37.75 41.375 43.109375 
Q 37.359375 48.484375 30.078125 48.484375 
Q 22.859375 48.484375 18.828125 43.109375 
Q 14.796875 37.75 14.796875 27.984375 
Q 14.796875 18.265625 18.828125 12.890625 
Q 22.859375 7.515625 30.078125 7.515625 
Q 37.359375 7.515625 41.375 12.890625 
Q 45.40625 18.265625 45.40625 27.984375 
z
M 54.390625 6.78125 
Q 54.390625 -7.171875 48.1875 -13.984375 
Q 42 -20.796875 29.203125 -20.796875 
Q 24.46875 -20.796875 20.265625 -20.09375 
Q 16.0625 -19.390625 12.109375 -17.921875 
L 12.109375 -9.1875 
Q 16.0625 -11.328125 19.921875 -12.34375 
Q 23.78125 -13.375 27.78125 -13.375 
Q 36.625 -13.375 41.015625 -8.765625 
Q 45.40625 -4.15625 45.40625 5.171875 
L 45.40625 9.625 
Q 42.625 4.78125 38.28125 2.390625 
Q 33.9375 0 27.875 0 
Q 17.828125 0 11.671875 7.65625 
Q 5.515625 15.328125 5.515625 27.984375 
Q 5.515625 40.671875 11.671875 48.328125 
Q 17.828125 56 27.875 56 
Q 33.9375 56 38.28125 53.609375 
Q 42.625 51.21875 45.40625 46.390625 
L 45.40625 54.6875 
L 54.390625 54.6875 
z
" id="DejaVuSans-67"/>
     <path id="DejaVuSans-20"/>
     <path d="M 45.40625 46.390625 
L 45.40625 75.984375 
L 54.390625 75.984375 
L 54.390625 0 
L 45.40625 0 
L 45.40625 8.203125 
Q 42.578125 3.328125 38.25 0.953125 
Q 33.9375 -1.421875 27.875 -1.421875 
Q 17.96875 -1.421875 11.734375 6.484375 
Q 5.515625 14.40625 5.515625 27.296875 
Q 5.515625 40.1875 11.734375 48.09375 
Q 17.96875 56 27.875 56 
Q 33.9375 56 38.25 53.625 
Q 42.578125 51.265625 45.40625 46.390625 
z
M 14.796875 27.296875 
Q 14.796875 17.390625 18.875 11.75 
Q 22.953125 6.109375 30.078125 6.109375 
Q 37.203125 6.109375 41.296875 11.75 
Q 45.40625 17.390625 45.40625 27.296875 
Q 45.40625 37.203125 41.296875 42.84375 
Q 37.203125 48.484375 30.078125 48.484375 
Q 22.953125 48.484375 18.875 42.84375 
Q 14.796875 37.203125 14.796875 27.296875 
z
" id="DejaVuSans-64"/>
     <path d="M 9.421875 54.6875 
L 18.40625 54.6875 
L 18.40625 0 
L 9.421875 0 
z
M 9.421875 75.984375 
L 18.40625 75.984375 
L 18.40625 64.59375 
L 9.421875 64.59375 
z
" id="DejaVuSans-69"/>
     <path d="M 44.28125 53.078125 
L 44.28125 44.578125 
Q 40.484375 46.53125 36.375 47.5 
Q 32.28125 48.484375 27.875 48.484375 
Q 21.1875 48.484375 17.84375 46.4375 
Q 14.5 44.390625 14.5 40.28125 
Q 14.5 37.15625 16.890625 35.375 
Q 19.28125 33.59375 26.515625 31.984375 
L 29.59375 31.296875 
Q 39.15625 29.25 43.1875 25.515625 
Q 47.21875 21.78125 47.21875 15.09375 
Q 47.21875 7.46875 41.1875 3.015625 
Q 35.15625 -1.421875 24.609375 -1.421875 
Q 20.21875 -1.421875 15.453125 -0.5625 
Q 10.6875 0.296875 5.421875 2 
L 5.421875 11.28125 
Q 10.40625 8.6875 15.234375 7.390625 
Q 20.0625 6.109375 24.8125 6.109375 
Q 31.15625 6.109375 34.5625 8.28125 
Q 37.984375 10.453125 37.984375 14.40625 
Q 37.984375 18.0625 35.515625 20.015625 
Q 33.0625 21.96875 24.703125 23.78125 
L 21.578125 24.515625 
Q 13.234375 26.265625 9.515625 29.90625 
Q 5.8125 33.546875 5.8125 39.890625 
Q 5.8125 47.609375 11.28125 51.796875 
Q 16.75 56 26.8125 56 
Q 31.78125 56 36.171875 55.265625 
Q 40.578125 54.546875 44.28125 53.078125 
z
" id="DejaVuSans-73"/>
     <path d="M 18.3125 70.21875 
L 18.3125 54.6875 
L 36.8125 54.6875 
L 36.8125 47.703125 
L 18.3125 47.703125 
L 18.3125 18.015625 
Q 18.3125 11.328125 20.140625 9.421875 
Q 21.96875 7.515625 27.59375 7.515625 
L 36.8125 7.515625 
L 36.8125 0 
L 27.59375 0 
Q 17.1875 0 13.234375 3.875 
Q 9.28125 7.765625 9.28125 18.015625 
L 9.28125 47.703125 
L 2.6875 47.703125 
L 2.6875 54.6875 
L 9.28125 54.6875 
L 9.28125 70.21875 
z
" id="DejaVuSans-74"/>
     <path d="M 48.6875 27.296875 
Q 48.6875 37.203125 44.609375 42.84375 
Q 40.53125 48.484375 33.40625 48.484375 
Q 26.265625 48.484375 22.1875 42.84375 
Q 18.109375 37.203125 18.109375 27.296875 
Q 18.109375 17.390625 22.1875 11.75 
Q 26.265625 6.109375 33.40625 6.109375 
Q 40.53125 6.109375 44.609375 11.75 
Q 48.6875 17.390625 48.6875 27.296875 
z
M 18.109375 46.390625 
Q 20.953125 51.265625 25.265625 53.625 
Q 29.59375 56 35.59375 56 
Q 45.5625 56 51.78125 48.09375 
Q 58.015625 40.1875 58.015625 27.296875 
Q 58.015625 14.40625 51.78125 6.484375 
Q 45.5625 -1.421875 35.59375 -1.421875 
Q 29.59375 -1.421875 25.265625 0.953125 
Q 20.953125 3.328125 18.109375 8.203125 
L 18.109375 0 
L 9.078125 0 
L 9.078125 75.984375 
L 18.109375 75.984375 
z
" id="DejaVuSans-62"/>
     <path d="M 30.609375 48.390625 
Q 23.390625 48.390625 19.1875 42.75 
Q 14.984375 37.109375 14.984375 27.296875 
Q 14.984375 17.484375 19.15625 11.84375 
Q 23.34375 6.203125 30.609375 6.203125 
Q 37.796875 6.203125 41.984375 11.859375 
Q 46.1875 17.53125 46.1875 27.296875 
Q 46.1875 37.015625 41.984375 42.703125 
Q 37.796875 48.390625 30.609375 48.390625 
z
M 30.609375 56 
Q 42.328125 56 49.015625 48.375 
Q 55.71875 40.765625 55.71875 27.296875 
Q 55.71875 13.875 49.015625 6.21875 
Q 42.328125 -1.421875 30.609375 -1.421875 
Q 18.84375 -1.421875 12.171875 6.21875 
Q 5.515625 13.875 5.515625 27.296875 
Q 5.515625 40.765625 12.171875 48.375 
Q 18.84375 56 30.609375 56 
z
" id="DejaVuSans-6f"/>
    </defs>
    <g transform="translate(387.690313 16.318125)scale(0.12 -0.12)">
     <use xlink:href="#DejaVuSans-44"/>
     <use x="77.001953" xlink:href="#DejaVuSans-65"/>
     <use x="138.525391" xlink:href="#DejaVuSans-67"/>
     <use x="202.001953" xlink:href="#DejaVuSans-72"/>
     <use x="243.083984" xlink:href="#DejaVuSans-65"/>
     <use x="304.607422" xlink:href="#DejaVuSans-65"/>
     <use x="366.130859" xlink:href="#DejaVuSans-20"/>
     <use x="397.917969" xlink:href="#DejaVuSans-64"/>
     <use x="461.394531" xlink:href="#DejaVuSans-69"/>
     <use x="489.177734" xlink:href="#DejaVuSans-73"/>
     <use x="541.277344" xlink:href="#DejaVuSans-74"/>
     <use x="580.486328" xlink:href="#DejaVuSans-72"/>
     <use x="621.599609" xlink:href="#DejaVuSans-69"/>
     <use x="649.382812" xlink:href="#DejaVuSans-62"/>
     <use x="712.859375" xlink:href="#DejaVuSans-75"/>
     <use x="776.238281" xlink:href="#DejaVuSans-74"/>
     <use x="815.447266" xlink:href="#DejaVuSans-69"/>
     <use x="843.230469" xlink:href="#DejaVuSans-6f"/>
     <use x="904.412109" xlink:href="#DejaVuSans-6e"/>
     <use x="967.791016" xlink:href="#DejaVuSans-20"/>
     <use x="999.578125" xlink:href="#DejaVuSans-66"/>
     <use x="1034.783203" xlink:href="#DejaVuSans-6f"/>
     <use x="1095.964844" xlink:href="#DejaVuSans-72"/>
     <use x="1137.078125" xlink:href="#DejaVuSans-20"/>
     <use x="1168.865234" xlink:href="#DejaVuSans-75"/>
     <use x="1232.244141" xlink:href="#DejaVuSans-73"/>
     <use x="1284.34375" xlink:href="#DejaVuSans-65"/>
     <use x="1345.867188" xlink:href="#DejaVuSans-72"/>
     <use x="1386.980469" xlink:href="#DejaVuSans-20"/>
     <use x="1418.767578" xlink:href="#DejaVuSans-6e"/>
     <use x="1482.146484" xlink:href="#DejaVuSans-6f"/>
     <use x="1543.328125" xlink:href="#DejaVuSans-64"/>
     <use x="1606.804688" xlink:href="#DejaVuSans-65"/>
     <use x="1668.328125" xlink:href="#DejaVuSans-73"/>
    </g>
   </g>
  </g>
 </g>
 <defs>
  <clipPath id="pe2005664c3">
   <rect height="543.6" width="837" x="72.415625" y="22.318125"/>
  </clipPath>
 </defs>
</svg>
