<?xml version="1.0" encoding="utf-8" standalone="no"?>
<!DOCTYPE svg PUBLIC "-//W3C//DTD SVG 1.1//EN"
  "http://www.w3.org/Graphics/SVG/1.1/DTD/svg11.dtd">
<!-- Created with matplotlib (http://matplotlib.org/) -->
<svg height="365.843625pt" version="1.1" viewBox="0 0 1196.89 365.843625" width="1196.89pt" xmlns="http://www.w3.org/2000/svg" xmlns:xlink="http://www.w3.org/1999/xlink">
 <defs>
  <style type="text/css">
*{stroke-linecap:butt;stroke-linejoin:round;}
  </style>
 </defs>
 <g id="figure_1">
  <g id="patch_1">
   <path d="M 0 365.843625 
L 1196.89 365.843625 
L 1196.89 0 
L 0 0 
z
" style="fill:#ffffff;"/>
  </g>
  <g id="axes_1">
   <g id="patch_2">
    <path d="M 70.19 305.059875 
L 1186.19 305.059875 
L 1186.19 33.259875 
L 70.19 33.259875 
z
" style="fill:#ffffff;"/>
   </g>
   <g id="patch_3">
    <path clip-path="url(#p5e2324a455)" d="M 120.917273 305.059875 
L 125.99 305.059875 
L 125.99 304.871204 
L 120.917273 304.871204 
z
" style="fill:#1f77b4;stroke:#000000;stroke-linejoin:miter;"/>
   </g>
   <g id="patch_4">
    <path clip-path="url(#p5e2324a455)" d="M 125.99 305.059875 
L 131.062727 305.059875 
L 131.062727 305.059875 
L 125.99 305.059875 
z
" style="fill:#1f77b4;stroke:#000000;stroke-linejoin:miter;"/>
   </g>
   <g id="patch_5">
    <path clip-path="url(#p5e2324a455)" d="M 131.062727 305.059875 
L 136.135455 305.059875 
L 136.135455 305.059875 
L 131.062727 305.059875 
z
" style="fill:#1f77b4;stroke:#000000;stroke-linejoin:miter;"/>
   </g>
   <g id="patch_6">
    <path clip-path="url(#p5e2324a455)" d="M 136.135455 305.059875 
L 141.208182 305.059875 
L 141.208182 305.059875 
L 136.135455 305.059875 
z
" style="fill:#1f77b4;stroke:#000000;stroke-linejoin:miter;"/>
   </g>
   <g id="patch_7">
    <path clip-path="url(#p5e2324a455)" d="M 141.208182 305.059875 
L 146.280909 305.059875 
L 146.280909 305.059875 
L 141.208182 305.059875 
z
" style="fill:#1f77b4;stroke:#000000;stroke-linejoin:miter;"/>
   </g>
   <g id="patch_8">
    <path clip-path="url(#p5e2324a455)" d="M 146.280909 305.059875 
L 151.353636 305.059875 
L 151.353636 305.059875 
L 146.280909 305.059875 
z
" style="fill:#1f77b4;stroke:#000000;stroke-linejoin:miter;"/>
   </g>
   <g id="patch_9">
    <path clip-path="url(#p5e2324a455)" d="M 151.353636 305.059875 
L 156.426364 305.059875 
L 156.426364 305.059875 
L 151.353636 305.059875 
z
" style="fill:#1f77b4;stroke:#000000;stroke-linejoin:miter;"/>
   </g>
   <g id="patch_10">
    <path clip-path="url(#p5e2324a455)" d="M 156.426364 305.059875 
L 161.499091 305.059875 
L 161.499091 305.059875 
L 156.426364 305.059875 
z
" style="fill:#1f77b4;stroke:#000000;stroke-linejoin:miter;"/>
   </g>
   <g id="patch_11">
    <path clip-path="url(#p5e2324a455)" d="M 161.499091 305.059875 
L 166.571818 305.059875 
L 166.571818 305.059875 
L 161.499091 305.059875 
z
" style="fill:#1f77b4;stroke:#000000;stroke-linejoin:miter;"/>
   </g>
   <g id="patch_12">
    <path clip-path="url(#p5e2324a455)" d="M 166.571818 305.059875 
L 171.644545 305.059875 
L 171.644545 304.305189 
L 166.571818 304.305189 
z
" style="fill:#1f77b4;stroke:#000000;stroke-linejoin:miter;"/>
   </g>
   <g id="patch_13">
    <path clip-path="url(#p5e2324a455)" d="M 171.644545 305.059875 
L 176.717273 305.059875 
L 176.717273 305.059875 
L 171.644545 305.059875 
z
" style="fill:#1f77b4;stroke:#000000;stroke-linejoin:miter;"/>
   </g>
   <g id="patch_14">
    <path clip-path="url(#p5e2324a455)" d="M 176.717273 305.059875 
L 181.79 305.059875 
L 181.79 305.059875 
L 176.717273 305.059875 
z
" style="fill:#1f77b4;stroke:#000000;stroke-linejoin:miter;"/>
   </g>
   <g id="patch_15">
    <path clip-path="url(#p5e2324a455)" d="M 181.79 305.059875 
L 186.862727 305.059875 
L 186.862727 305.059875 
L 181.79 305.059875 
z
" style="fill:#1f77b4;stroke:#000000;stroke-linejoin:miter;"/>
   </g>
   <g id="patch_16">
    <path clip-path="url(#p5e2324a455)" d="M 186.862727 305.059875 
L 191.935455 305.059875 
L 191.935455 305.059875 
L 186.862727 305.059875 
z
" style="fill:#1f77b4;stroke:#000000;stroke-linejoin:miter;"/>
   </g>
   <g id="patch_17">
    <path clip-path="url(#p5e2324a455)" d="M 191.935455 305.059875 
L 197.008182 305.059875 
L 197.008182 305.059875 
L 191.935455 305.059875 
z
" style="fill:#1f77b4;stroke:#000000;stroke-linejoin:miter;"/>
   </g>
   <g id="patch_18">
    <path clip-path="url(#p5e2324a455)" d="M 197.008182 305.059875 
L 202.080909 305.059875 
L 202.080909 304.305189 
L 197.008182 304.305189 
z
" style="fill:#1f77b4;stroke:#000000;stroke-linejoin:miter;"/>
   </g>
   <g id="patch_19">
    <path clip-path="url(#p5e2324a455)" d="M 202.080909 305.059875 
L 207.153636 305.059875 
L 207.153636 304.682532 
L 202.080909 304.682532 
z
" style="fill:#1f77b4;stroke:#000000;stroke-linejoin:miter;"/>
   </g>
   <g id="patch_20">
    <path clip-path="url(#p5e2324a455)" d="M 207.153636 305.059875 
L 212.226364 305.059875 
L 212.226364 305.059875 
L 207.153636 305.059875 
z
" style="fill:#1f77b4;stroke:#000000;stroke-linejoin:miter;"/>
   </g>
   <g id="patch_21">
    <path clip-path="url(#p5e2324a455)" d="M 212.226364 305.059875 
L 217.299091 305.059875 
L 217.299091 304.682532 
L 212.226364 304.682532 
z
" style="fill:#1f77b4;stroke:#000000;stroke-linejoin:miter;"/>
   </g>
   <g id="patch_22">
    <path clip-path="url(#p5e2324a455)" d="M 217.299091 305.059875 
L 222.371818 305.059875 
L 222.371818 305.059875 
L 217.299091 305.059875 
z
" style="fill:#1f77b4;stroke:#000000;stroke-linejoin:miter;"/>
   </g>
   <g id="patch_23">
    <path clip-path="url(#p5e2324a455)" d="M 222.371818 305.059875 
L 227.444545 305.059875 
L 227.444545 304.871204 
L 222.371818 304.871204 
z
" style="fill:#1f77b4;stroke:#000000;stroke-linejoin:miter;"/>
   </g>
   <g id="patch_24">
    <path clip-path="url(#p5e2324a455)" d="M 227.444545 305.059875 
L 232.517273 305.059875 
L 232.517273 304.682532 
L 227.444545 304.682532 
z
" style="fill:#1f77b4;stroke:#000000;stroke-linejoin:miter;"/>
   </g>
   <g id="patch_25">
    <path clip-path="url(#p5e2324a455)" d="M 232.517273 305.059875 
L 237.59 305.059875 
L 237.59 305.059875 
L 232.517273 305.059875 
z
" style="fill:#1f77b4;stroke:#000000;stroke-linejoin:miter;"/>
   </g>
   <g id="patch_26">
    <path clip-path="url(#p5e2324a455)" d="M 237.59 305.059875 
L 242.662727 305.059875 
L 242.662727 304.871204 
L 237.59 304.871204 
z
" style="fill:#1f77b4;stroke:#000000;stroke-linejoin:miter;"/>
   </g>
   <g id="patch_27">
    <path clip-path="url(#p5e2324a455)" d="M 242.662727 305.059875 
L 247.735455 305.059875 
L 247.735455 305.059875 
L 242.662727 305.059875 
z
" style="fill:#1f77b4;stroke:#000000;stroke-linejoin:miter;"/>
   </g>
   <g id="patch_28">
    <path clip-path="url(#p5e2324a455)" d="M 247.735455 305.059875 
L 252.808182 305.059875 
L 252.808182 305.059875 
L 247.735455 305.059875 
z
" style="fill:#1f77b4;stroke:#000000;stroke-linejoin:miter;"/>
   </g>
   <g id="patch_29">
    <path clip-path="url(#p5e2324a455)" d="M 252.808182 305.059875 
L 257.880909 305.059875 
L 257.880909 305.059875 
L 252.808182 305.059875 
z
" style="fill:#1f77b4;stroke:#000000;stroke-linejoin:miter;"/>
   </g>
   <g id="patch_30">
    <path clip-path="url(#p5e2324a455)" d="M 257.880909 305.059875 
L 262.953636 305.059875 
L 262.953636 303.173161 
L 257.880909 303.173161 
z
" style="fill:#1f77b4;stroke:#000000;stroke-linejoin:miter;"/>
   </g>
   <g id="patch_31">
    <path clip-path="url(#p5e2324a455)" d="M 262.953636 305.059875 
L 268.026364 305.059875 
L 268.026364 305.059875 
L 262.953636 305.059875 
z
" style="fill:#1f77b4;stroke:#000000;stroke-linejoin:miter;"/>
   </g>
   <g id="patch_32">
    <path clip-path="url(#p5e2324a455)" d="M 268.026364 305.059875 
L 273.099091 305.059875 
L 273.099091 305.059875 
L 268.026364 305.059875 
z
" style="fill:#1f77b4;stroke:#000000;stroke-linejoin:miter;"/>
   </g>
   <g id="patch_33">
    <path clip-path="url(#p5e2324a455)" d="M 273.099091 305.059875 
L 278.171818 305.059875 
L 278.171818 304.871204 
L 273.099091 304.871204 
z
" style="fill:#1f77b4;stroke:#000000;stroke-linejoin:miter;"/>
   </g>
   <g id="patch_34">
    <path clip-path="url(#p5e2324a455)" d="M 278.171818 305.059875 
L 283.244545 305.059875 
L 283.244545 304.871204 
L 278.171818 304.871204 
z
" style="fill:#1f77b4;stroke:#000000;stroke-linejoin:miter;"/>
   </g>
   <g id="patch_35">
    <path clip-path="url(#p5e2324a455)" d="M 283.244545 305.059875 
L 288.317273 305.059875 
L 288.317273 304.682532 
L 283.244545 304.682532 
z
" style="fill:#1f77b4;stroke:#000000;stroke-linejoin:miter;"/>
   </g>
   <g id="patch_36">
    <path clip-path="url(#p5e2324a455)" d="M 288.317273 305.059875 
L 293.39 305.059875 
L 293.39 304.682532 
L 288.317273 304.682532 
z
" style="fill:#1f77b4;stroke:#000000;stroke-linejoin:miter;"/>
   </g>
   <g id="patch_37">
    <path clip-path="url(#p5e2324a455)" d="M 293.39 305.059875 
L 298.462727 305.059875 
L 298.462727 304.871204 
L 293.39 304.871204 
z
" style="fill:#1f77b4;stroke:#000000;stroke-linejoin:miter;"/>
   </g>
   <g id="patch_38">
    <path clip-path="url(#p5e2324a455)" d="M 298.462727 305.059875 
L 303.535455 305.059875 
L 303.535455 305.059875 
L 298.462727 305.059875 
z
" style="fill:#1f77b4;stroke:#000000;stroke-linejoin:miter;"/>
   </g>
   <g id="patch_39">
    <path clip-path="url(#p5e2324a455)" d="M 303.535455 305.059875 
L 308.608182 305.059875 
L 308.608182 304.493861 
L 303.535455 304.493861 
z
" style="fill:#1f77b4;stroke:#000000;stroke-linejoin:miter;"/>
   </g>
   <g id="patch_40">
    <path clip-path="url(#p5e2324a455)" d="M 308.608182 305.059875 
L 313.680909 305.059875 
L 313.680909 305.059875 
L 308.608182 305.059875 
z
" style="fill:#1f77b4;stroke:#000000;stroke-linejoin:miter;"/>
   </g>
   <g id="patch_41">
    <path clip-path="url(#p5e2324a455)" d="M 313.680909 305.059875 
L 318.753636 305.059875 
L 318.753636 304.871204 
L 313.680909 304.871204 
z
" style="fill:#1f77b4;stroke:#000000;stroke-linejoin:miter;"/>
   </g>
   <g id="patch_42">
    <path clip-path="url(#p5e2324a455)" d="M 318.753636 305.059875 
L 323.826364 305.059875 
L 323.826364 302.607147 
L 318.753636 302.607147 
z
" style="fill:#1f77b4;stroke:#000000;stroke-linejoin:miter;"/>
   </g>
   <g id="patch_43">
    <path clip-path="url(#p5e2324a455)" d="M 323.826364 305.059875 
L 328.899091 305.059875 
L 328.899091 304.871204 
L 323.826364 304.871204 
z
" style="fill:#1f77b4;stroke:#000000;stroke-linejoin:miter;"/>
   </g>
   <g id="patch_44">
    <path clip-path="url(#p5e2324a455)" d="M 328.899091 305.059875 
L 333.971818 305.059875 
L 333.971818 305.059875 
L 328.899091 305.059875 
z
" style="fill:#1f77b4;stroke:#000000;stroke-linejoin:miter;"/>
   </g>
   <g id="patch_45">
    <path clip-path="url(#p5e2324a455)" d="M 333.971818 305.059875 
L 339.044545 305.059875 
L 339.044545 303.927847 
L 333.971818 303.927847 
z
" style="fill:#1f77b4;stroke:#000000;stroke-linejoin:miter;"/>
   </g>
   <g id="patch_46">
    <path clip-path="url(#p5e2324a455)" d="M 339.044545 305.059875 
L 344.117273 305.059875 
L 344.117273 304.682532 
L 339.044545 304.682532 
z
" style="fill:#1f77b4;stroke:#000000;stroke-linejoin:miter;"/>
   </g>
   <g id="patch_47">
    <path clip-path="url(#p5e2324a455)" d="M 344.117273 305.059875 
L 349.19 305.059875 
L 349.19 305.059875 
L 344.117273 305.059875 
z
" style="fill:#1f77b4;stroke:#000000;stroke-linejoin:miter;"/>
   </g>
   <g id="patch_48">
    <path clip-path="url(#p5e2324a455)" d="M 349.19 305.059875 
L 354.262727 305.059875 
L 354.262727 302.607147 
L 349.19 302.607147 
z
" style="fill:#1f77b4;stroke:#000000;stroke-linejoin:miter;"/>
   </g>
   <g id="patch_49">
    <path clip-path="url(#p5e2324a455)" d="M 354.262727 305.059875 
L 359.335455 305.059875 
L 359.335455 305.059875 
L 354.262727 305.059875 
z
" style="fill:#1f77b4;stroke:#000000;stroke-linejoin:miter;"/>
   </g>
   <g id="patch_50">
    <path clip-path="url(#p5e2324a455)" d="M 359.335455 305.059875 
L 364.408182 305.059875 
L 364.408182 305.059875 
L 359.335455 305.059875 
z
" style="fill:#1f77b4;stroke:#000000;stroke-linejoin:miter;"/>
   </g>
   <g id="patch_51">
    <path clip-path="url(#p5e2324a455)" d="M 364.408182 305.059875 
L 369.480909 305.059875 
L 369.480909 304.682532 
L 364.408182 304.682532 
z
" style="fill:#1f77b4;stroke:#000000;stroke-linejoin:miter;"/>
   </g>
   <g id="patch_52">
    <path clip-path="url(#p5e2324a455)" d="M 369.480909 305.059875 
L 374.553636 305.059875 
L 374.553636 303.927847 
L 369.480909 303.927847 
z
" style="fill:#1f77b4;stroke:#000000;stroke-linejoin:miter;"/>
   </g>
   <g id="patch_53">
    <path clip-path="url(#p5e2324a455)" d="M 374.553636 305.059875 
L 379.626364 305.059875 
L 379.626364 304.682532 
L 374.553636 304.682532 
z
" style="fill:#1f77b4;stroke:#000000;stroke-linejoin:miter;"/>
   </g>
   <g id="patch_54">
    <path clip-path="url(#p5e2324a455)" d="M 379.626364 305.059875 
L 384.699091 305.059875 
L 384.699091 300.34309 
L 379.626364 300.34309 
z
" style="fill:#1f77b4;stroke:#000000;stroke-linejoin:miter;"/>
   </g>
   <g id="patch_55">
    <path clip-path="url(#p5e2324a455)" d="M 384.699091 305.059875 
L 389.771818 305.059875 
L 389.771818 304.871204 
L 384.699091 304.871204 
z
" style="fill:#1f77b4;stroke:#000000;stroke-linejoin:miter;"/>
   </g>
   <g id="patch_56">
    <path clip-path="url(#p5e2324a455)" d="M 389.771818 305.059875 
L 394.844545 305.059875 
L 394.844545 304.305189 
L 389.771818 304.305189 
z
" style="fill:#1f77b4;stroke:#000000;stroke-linejoin:miter;"/>
   </g>
   <g id="patch_57">
    <path clip-path="url(#p5e2324a455)" d="M 394.844545 305.059875 
L 399.917273 305.059875 
L 399.917273 302.229804 
L 394.844545 302.229804 
z
" style="fill:#1f77b4;stroke:#000000;stroke-linejoin:miter;"/>
   </g>
   <g id="patch_58">
    <path clip-path="url(#p5e2324a455)" d="M 399.917273 305.059875 
L 404.99 305.059875 
L 404.99 304.493861 
L 399.917273 304.493861 
z
" style="fill:#1f77b4;stroke:#000000;stroke-linejoin:miter;"/>
   </g>
   <g id="patch_59">
    <path clip-path="url(#p5e2324a455)" d="M 404.99 305.059875 
L 410.062727 305.059875 
L 410.062727 303.927847 
L 404.99 303.927847 
z
" style="fill:#1f77b4;stroke:#000000;stroke-linejoin:miter;"/>
   </g>
   <g id="patch_60">
    <path clip-path="url(#p5e2324a455)" d="M 410.062727 305.059875 
L 415.135455 305.059875 
L 415.135455 303.927847 
L 410.062727 303.927847 
z
" style="fill:#1f77b4;stroke:#000000;stroke-linejoin:miter;"/>
   </g>
   <g id="patch_61">
    <path clip-path="url(#p5e2324a455)" d="M 415.135455 305.059875 
L 420.208182 305.059875 
L 420.208182 304.305189 
L 415.135455 304.305189 
z
" style="fill:#1f77b4;stroke:#000000;stroke-linejoin:miter;"/>
   </g>
   <g id="patch_62">
    <path clip-path="url(#p5e2324a455)" d="M 420.208182 305.059875 
L 425.280909 305.059875 
L 425.280909 304.493861 
L 420.208182 304.493861 
z
" style="fill:#1f77b4;stroke:#000000;stroke-linejoin:miter;"/>
   </g>
   <g id="patch_63">
    <path clip-path="url(#p5e2324a455)" d="M 425.280909 305.059875 
L 430.353636 305.059875 
L 430.353636 304.493861 
L 425.280909 304.493861 
z
" style="fill:#1f77b4;stroke:#000000;stroke-linejoin:miter;"/>
   </g>
   <g id="patch_64">
    <path clip-path="url(#p5e2324a455)" d="M 430.353636 305.059875 
L 435.426364 305.059875 
L 435.426364 304.871204 
L 430.353636 304.871204 
z
" style="fill:#1f77b4;stroke:#000000;stroke-linejoin:miter;"/>
   </g>
   <g id="patch_65">
    <path clip-path="url(#p5e2324a455)" d="M 435.426364 305.059875 
L 440.499091 305.059875 
L 440.499091 304.305189 
L 435.426364 304.305189 
z
" style="fill:#1f77b4;stroke:#000000;stroke-linejoin:miter;"/>
   </g>
   <g id="patch_66">
    <path clip-path="url(#p5e2324a455)" d="M 440.499091 305.059875 
L 445.571818 305.059875 
L 445.571818 305.059875 
L 440.499091 305.059875 
z
" style="fill:#1f77b4;stroke:#000000;stroke-linejoin:miter;"/>
   </g>
   <g id="patch_67">
    <path clip-path="url(#p5e2324a455)" d="M 445.571818 305.059875 
L 450.644545 305.059875 
L 450.644545 292.418892 
L 445.571818 292.418892 
z
" style="fill:#1f77b4;stroke:#000000;stroke-linejoin:miter;"/>
   </g>
   <g id="patch_68">
    <path clip-path="url(#p5e2324a455)" d="M 450.644545 305.059875 
L 455.717273 305.059875 
L 455.717273 304.305189 
L 450.644545 304.305189 
z
" style="fill:#1f77b4;stroke:#000000;stroke-linejoin:miter;"/>
   </g>
   <g id="patch_69">
    <path clip-path="url(#p5e2324a455)" d="M 455.717273 305.059875 
L 460.79 305.059875 
L 460.79 303.173161 
L 455.717273 303.173161 
z
" style="fill:#1f77b4;stroke:#000000;stroke-linejoin:miter;"/>
   </g>
   <g id="patch_70">
    <path clip-path="url(#p5e2324a455)" d="M 460.79 305.059875 
L 465.862727 305.059875 
L 465.862727 302.795818 
L 460.79 302.795818 
z
" style="fill:#1f77b4;stroke:#000000;stroke-linejoin:miter;"/>
   </g>
   <g id="patch_71">
    <path clip-path="url(#p5e2324a455)" d="M 465.862727 305.059875 
L 470.935455 305.059875 
L 470.935455 303.550504 
L 465.862727 303.550504 
z
" style="fill:#1f77b4;stroke:#000000;stroke-linejoin:miter;"/>
   </g>
   <g id="patch_72">
    <path clip-path="url(#p5e2324a455)" d="M 470.935455 305.059875 
L 476.008182 305.059875 
L 476.008182 304.493861 
L 470.935455 304.493861 
z
" style="fill:#1f77b4;stroke:#000000;stroke-linejoin:miter;"/>
   </g>
   <g id="patch_73">
    <path clip-path="url(#p5e2324a455)" d="M 476.008182 305.059875 
L 481.080909 305.059875 
L 481.080909 301.66379 
L 476.008182 301.66379 
z
" style="fill:#1f77b4;stroke:#000000;stroke-linejoin:miter;"/>
   </g>
   <g id="patch_74">
    <path clip-path="url(#p5e2324a455)" d="M 481.080909 305.059875 
L 486.153636 305.059875 
L 486.153636 302.418476 
L 481.080909 302.418476 
z
" style="fill:#1f77b4;stroke:#000000;stroke-linejoin:miter;"/>
   </g>
   <g id="patch_75">
    <path clip-path="url(#p5e2324a455)" d="M 486.153636 305.059875 
L 491.226364 305.059875 
L 491.226364 303.173161 
L 486.153636 303.173161 
z
" style="fill:#1f77b4;stroke:#000000;stroke-linejoin:miter;"/>
   </g>
   <g id="patch_76">
    <path clip-path="url(#p5e2324a455)" d="M 491.226364 305.059875 
L 496.299091 305.059875 
L 496.299091 295.437634 
L 491.226364 295.437634 
z
" style="fill:#1f77b4;stroke:#000000;stroke-linejoin:miter;"/>
   </g>
   <g id="patch_77">
    <path clip-path="url(#p5e2324a455)" d="M 496.299091 305.059875 
L 501.371818 305.059875 
L 501.371818 301.66379 
L 496.299091 301.66379 
z
" style="fill:#1f77b4;stroke:#000000;stroke-linejoin:miter;"/>
   </g>
   <g id="patch_78">
    <path clip-path="url(#p5e2324a455)" d="M 501.371818 305.059875 
L 506.444545 305.059875 
L 506.444545 301.097776 
L 501.371818 301.097776 
z
" style="fill:#1f77b4;stroke:#000000;stroke-linejoin:miter;"/>
   </g>
   <g id="patch_79">
    <path clip-path="url(#p5e2324a455)" d="M 506.444545 305.059875 
L 511.517273 305.059875 
L 511.517273 289.211478 
L 506.444545 289.211478 
z
" style="fill:#1f77b4;stroke:#000000;stroke-linejoin:miter;"/>
   </g>
   <g id="patch_80">
    <path clip-path="url(#p5e2324a455)" d="M 511.517273 305.059875 
L 516.59 305.059875 
L 516.59 299.965748 
L 511.517273 299.965748 
z
" style="fill:#1f77b4;stroke:#000000;stroke-linejoin:miter;"/>
   </g>
   <g id="patch_81">
    <path clip-path="url(#p5e2324a455)" d="M 516.59 305.059875 
L 521.662727 305.059875 
L 521.662727 299.588405 
L 516.59 299.588405 
z
" style="fill:#1f77b4;stroke:#000000;stroke-linejoin:miter;"/>
   </g>
   <g id="patch_82">
    <path clip-path="url(#p5e2324a455)" d="M 521.662727 305.059875 
L 526.735455 305.059875 
L 526.735455 302.229804 
L 521.662727 302.229804 
z
" style="fill:#1f77b4;stroke:#000000;stroke-linejoin:miter;"/>
   </g>
   <g id="patch_83">
    <path clip-path="url(#p5e2324a455)" d="M 526.735455 305.059875 
L 531.808182 305.059875 
L 531.808182 300.720433 
L 526.735455 300.720433 
z
" style="fill:#1f77b4;stroke:#000000;stroke-linejoin:miter;"/>
   </g>
   <g id="patch_84">
    <path clip-path="url(#p5e2324a455)" d="M 531.808182 305.059875 
L 536.880909 305.059875 
L 536.880909 300.34309 
L 531.808182 300.34309 
z
" style="fill:#1f77b4;stroke:#000000;stroke-linejoin:miter;"/>
   </g>
   <g id="patch_85">
    <path clip-path="url(#p5e2324a455)" d="M 536.880909 305.059875 
L 541.953636 305.059875 
L 541.953636 280.721266 
L 536.880909 280.721266 
z
" style="fill:#1f77b4;stroke:#000000;stroke-linejoin:miter;"/>
   </g>
   <g id="patch_86">
    <path clip-path="url(#p5e2324a455)" d="M 541.953636 305.059875 
L 547.026364 305.059875 
L 547.026364 297.51302 
L 541.953636 297.51302 
z
" style="fill:#1f77b4;stroke:#000000;stroke-linejoin:miter;"/>
   </g>
   <g id="patch_87">
    <path clip-path="url(#p5e2324a455)" d="M 547.026364 305.059875 
L 552.099091 305.059875 
L 552.099091 296.003648 
L 547.026364 296.003648 
z
" style="fill:#1f77b4;stroke:#000000;stroke-linejoin:miter;"/>
   </g>
   <g id="patch_88">
    <path clip-path="url(#p5e2324a455)" d="M 552.099091 305.059875 
L 557.171818 305.059875 
L 557.171818 294.116935 
L 552.099091 294.116935 
z
" style="fill:#1f77b4;stroke:#000000;stroke-linejoin:miter;"/>
   </g>
   <g id="patch_89">
    <path clip-path="url(#p5e2324a455)" d="M 557.171818 305.059875 
L 562.244545 305.059875 
L 562.244545 291.286864 
L 557.171818 291.286864 
z
" style="fill:#1f77b4;stroke:#000000;stroke-linejoin:miter;"/>
   </g>
   <g id="patch_90">
    <path clip-path="url(#p5e2324a455)" d="M 562.244545 305.059875 
L 567.317273 305.059875 
L 567.317273 292.230221 
L 562.244545 292.230221 
z
" style="fill:#1f77b4;stroke:#000000;stroke-linejoin:miter;"/>
   </g>
   <g id="patch_91">
    <path clip-path="url(#p5e2324a455)" d="M 567.317273 305.059875 
L 572.39 305.059875 
L 572.39 271.66504 
L 567.317273 271.66504 
z
" style="fill:#1f77b4;stroke:#000000;stroke-linejoin:miter;"/>
   </g>
   <g id="patch_92">
    <path clip-path="url(#p5e2324a455)" d="M 572.39 305.059875 
L 577.462727 305.059875 
L 577.462727 283.740008 
L 572.39 283.740008 
z
" style="fill:#1f77b4;stroke:#000000;stroke-linejoin:miter;"/>
   </g>
   <g id="patch_93">
    <path clip-path="url(#p5e2324a455)" d="M 577.462727 305.059875 
L 582.535455 305.059875 
L 582.535455 284.683365 
L 577.462727 284.683365 
z
" style="fill:#1f77b4;stroke:#000000;stroke-linejoin:miter;"/>
   </g>
   <g id="patch_94">
    <path clip-path="url(#p5e2324a455)" d="M 582.535455 305.059875 
L 587.608182 305.059875 
L 587.608182 268.268955 
L 582.535455 268.268955 
z
" style="fill:#1f77b4;stroke:#000000;stroke-linejoin:miter;"/>
   </g>
   <g id="patch_95">
    <path clip-path="url(#p5e2324a455)" d="M 587.608182 305.059875 
L 592.680909 305.059875 
L 592.680909 275.249796 
L 587.608182 275.249796 
z
" style="fill:#1f77b4;stroke:#000000;stroke-linejoin:miter;"/>
   </g>
   <g id="patch_96">
    <path clip-path="url(#p5e2324a455)" d="M 592.680909 305.059875 
L 597.753636 305.059875 
L 597.753636 263.929513 
L 592.680909 263.929513 
z
" style="fill:#1f77b4;stroke:#000000;stroke-linejoin:miter;"/>
   </g>
   <g id="patch_97">
    <path clip-path="url(#p5e2324a455)" d="M 597.753636 305.059875 
L 602.826364 305.059875 
L 602.826364 244.49636 
L 597.753636 244.49636 
z
" style="fill:#1f77b4;stroke:#000000;stroke-linejoin:miter;"/>
   </g>
   <g id="patch_98">
    <path clip-path="url(#p5e2324a455)" d="M 602.826364 305.059875 
L 607.899091 305.059875 
L 607.899091 250.911187 
L 602.826364 250.911187 
z
" style="fill:#1f77b4;stroke:#000000;stroke-linejoin:miter;"/>
   </g>
   <g id="patch_99">
    <path clip-path="url(#p5e2324a455)" d="M 607.899091 305.059875 
L 612.971818 305.059875 
L 612.971818 231.289363 
L 607.899091 231.289363 
z
" style="fill:#1f77b4;stroke:#000000;stroke-linejoin:miter;"/>
   </g>
   <g id="patch_100">
    <path clip-path="url(#p5e2324a455)" d="M 612.971818 305.059875 
L 618.044545 305.059875 
L 618.044545 227.515935 
L 612.971818 227.515935 
z
" style="fill:#1f77b4;stroke:#000000;stroke-linejoin:miter;"/>
   </g>
   <g id="patch_101">
    <path clip-path="url(#p5e2324a455)" d="M 618.044545 305.059875 
L 623.117273 305.059875 
L 623.117273 214.686281 
L 618.044545 214.686281 
z
" style="fill:#1f77b4;stroke:#000000;stroke-linejoin:miter;"/>
   </g>
   <g id="patch_102">
    <path clip-path="url(#p5e2324a455)" d="M 623.117273 305.059875 
L 628.19 305.059875 
L 628.19 211.667538 
L 623.117273 211.667538 
z
" style="fill:#1f77b4;stroke:#000000;stroke-linejoin:miter;"/>
   </g>
   <g id="patch_103">
    <path clip-path="url(#p5e2324a455)" d="M 628.19 305.059875 
L 633.262727 305.059875 
L 633.262727 46.202732 
L 628.19 46.202732 
z
" style="fill:#1f77b4;stroke:#000000;stroke-linejoin:miter;"/>
   </g>
   <g id="patch_104">
    <path clip-path="url(#p5e2324a455)" d="M 633.262727 305.059875 
L 638.335455 305.059875 
L 638.335455 222.610479 
L 633.262727 222.610479 
z
" style="fill:#1f77b4;stroke:#000000;stroke-linejoin:miter;"/>
   </g>
   <g id="patch_105">
    <path clip-path="url(#p5e2324a455)" d="M 638.335455 305.059875 
L 643.408182 305.059875 
L 643.408182 222.044465 
L 638.335455 222.044465 
z
" style="fill:#1f77b4;stroke:#000000;stroke-linejoin:miter;"/>
   </g>
   <g id="patch_106">
    <path clip-path="url(#p5e2324a455)" d="M 643.408182 305.059875 
L 648.480909 305.059875 
L 648.480909 218.837051 
L 643.408182 218.837051 
z
" style="fill:#1f77b4;stroke:#000000;stroke-linejoin:miter;"/>
   </g>
   <g id="patch_107">
    <path clip-path="url(#p5e2324a455)" d="M 648.480909 305.059875 
L 653.553636 305.059875 
L 653.553636 251.099858 
L 648.480909 251.099858 
z
" style="fill:#1f77b4;stroke:#000000;stroke-linejoin:miter;"/>
   </g>
   <g id="patch_108">
    <path clip-path="url(#p5e2324a455)" d="M 653.553636 305.059875 
L 658.626364 305.059875 
L 658.626364 248.64713 
L 653.553636 248.64713 
z
" style="fill:#1f77b4;stroke:#000000;stroke-linejoin:miter;"/>
   </g>
   <g id="patch_109">
    <path clip-path="url(#p5e2324a455)" d="M 658.626364 305.059875 
L 663.699091 305.059875 
L 663.699091 253.552586 
L 658.626364 253.552586 
z
" style="fill:#1f77b4;stroke:#000000;stroke-linejoin:miter;"/>
   </g>
   <g id="patch_110">
    <path clip-path="url(#p5e2324a455)" d="M 663.699091 305.059875 
L 668.771818 305.059875 
L 668.771818 266.948255 
L 663.699091 266.948255 
z
" style="fill:#1f77b4;stroke:#000000;stroke-linejoin:miter;"/>
   </g>
   <g id="patch_111">
    <path clip-path="url(#p5e2324a455)" d="M 668.771818 305.059875 
L 673.844545 305.059875 
L 673.844545 282.985323 
L 668.771818 282.985323 
z
" style="fill:#1f77b4;stroke:#000000;stroke-linejoin:miter;"/>
   </g>
   <g id="patch_112">
    <path clip-path="url(#p5e2324a455)" d="M 673.844545 305.059875 
L 678.917273 305.059875 
L 678.917273 272.608396 
L 673.844545 272.608396 
z
" style="fill:#1f77b4;stroke:#000000;stroke-linejoin:miter;"/>
   </g>
   <g id="patch_113">
    <path clip-path="url(#p5e2324a455)" d="M 678.917273 305.059875 
L 683.99 305.059875 
L 683.99 288.834136 
L 678.917273 288.834136 
z
" style="fill:#1f77b4;stroke:#000000;stroke-linejoin:miter;"/>
   </g>
   <g id="patch_114">
    <path clip-path="url(#p5e2324a455)" d="M 683.99 305.059875 
L 689.062727 305.059875 
L 689.062727 289.211478 
L 683.99 289.211478 
z
" style="fill:#1f77b4;stroke:#000000;stroke-linejoin:miter;"/>
   </g>
   <g id="patch_115">
    <path clip-path="url(#p5e2324a455)" d="M 689.062727 305.059875 
L 694.135455 305.059875 
L 694.135455 276.004481 
L 689.062727 276.004481 
z
" style="fill:#1f77b4;stroke:#000000;stroke-linejoin:miter;"/>
   </g>
   <g id="patch_116">
    <path clip-path="url(#p5e2324a455)" d="M 694.135455 305.059875 
L 699.208182 305.059875 
L 699.208182 295.060291 
L 694.135455 295.060291 
z
" style="fill:#1f77b4;stroke:#000000;stroke-linejoin:miter;"/>
   </g>
   <g id="patch_117">
    <path clip-path="url(#p5e2324a455)" d="M 699.208182 305.059875 
L 704.280909 305.059875 
L 704.280909 295.626306 
L 699.208182 295.626306 
z
" style="fill:#1f77b4;stroke:#000000;stroke-linejoin:miter;"/>
   </g>
   <g id="patch_118">
    <path clip-path="url(#p5e2324a455)" d="M 704.280909 305.059875 
L 709.353636 305.059875 
L 709.353636 292.796235 
L 704.280909 292.796235 
z
" style="fill:#1f77b4;stroke:#000000;stroke-linejoin:miter;"/>
   </g>
   <g id="patch_119">
    <path clip-path="url(#p5e2324a455)" d="M 709.353636 305.059875 
L 714.426364 305.059875 
L 714.426364 298.645048 
L 709.353636 298.645048 
z
" style="fill:#1f77b4;stroke:#000000;stroke-linejoin:miter;"/>
   </g>
   <g id="patch_120">
    <path clip-path="url(#p5e2324a455)" d="M 714.426364 305.059875 
L 719.499091 305.059875 
L 719.499091 300.531762 
L 714.426364 300.531762 
z
" style="fill:#1f77b4;stroke:#000000;stroke-linejoin:miter;"/>
   </g>
   <g id="patch_121">
    <path clip-path="url(#p5e2324a455)" d="M 719.499091 305.059875 
L 724.571818 305.059875 
L 724.571818 283.740008 
L 719.499091 283.740008 
z
" style="fill:#1f77b4;stroke:#000000;stroke-linejoin:miter;"/>
   </g>
   <g id="patch_122">
    <path clip-path="url(#p5e2324a455)" d="M 724.571818 305.059875 
L 729.644545 305.059875 
L 729.644545 302.041133 
L 724.571818 302.041133 
z
" style="fill:#1f77b4;stroke:#000000;stroke-linejoin:miter;"/>
   </g>
   <g id="patch_123">
    <path clip-path="url(#p5e2324a455)" d="M 729.644545 305.059875 
L 734.717273 305.059875 
L 734.717273 300.531762 
L 729.644545 300.531762 
z
" style="fill:#1f77b4;stroke:#000000;stroke-linejoin:miter;"/>
   </g>
   <g id="patch_124">
    <path clip-path="url(#p5e2324a455)" d="M 734.717273 305.059875 
L 739.79 305.059875 
L 739.79 302.229804 
L 734.717273 302.229804 
z
" style="fill:#1f77b4;stroke:#000000;stroke-linejoin:miter;"/>
   </g>
   <g id="patch_125">
    <path clip-path="url(#p5e2324a455)" d="M 739.79 305.059875 
L 744.862727 305.059875 
L 744.862727 298.645048 
L 739.79 298.645048 
z
" style="fill:#1f77b4;stroke:#000000;stroke-linejoin:miter;"/>
   </g>
   <g id="patch_126">
    <path clip-path="url(#p5e2324a455)" d="M 744.862727 305.059875 
L 749.935455 305.059875 
L 749.935455 301.66379 
L 744.862727 301.66379 
z
" style="fill:#1f77b4;stroke:#000000;stroke-linejoin:miter;"/>
   </g>
   <g id="patch_127">
    <path clip-path="url(#p5e2324a455)" d="M 749.935455 305.059875 
L 755.008182 305.059875 
L 755.008182 303.927847 
L 749.935455 303.927847 
z
" style="fill:#1f77b4;stroke:#000000;stroke-linejoin:miter;"/>
   </g>
   <g id="patch_128">
    <path clip-path="url(#p5e2324a455)" d="M 755.008182 305.059875 
L 760.080909 305.059875 
L 760.080909 292.607563 
L 755.008182 292.607563 
z
" style="fill:#1f77b4;stroke:#000000;stroke-linejoin:miter;"/>
   </g>
   <g id="patch_129">
    <path clip-path="url(#p5e2324a455)" d="M 760.080909 305.059875 
L 765.153636 305.059875 
L 765.153636 303.361833 
L 760.080909 303.361833 
z
" style="fill:#1f77b4;stroke:#000000;stroke-linejoin:miter;"/>
   </g>
   <g id="patch_130">
    <path clip-path="url(#p5e2324a455)" d="M 765.153636 305.059875 
L 770.226364 305.059875 
L 770.226364 304.305189 
L 765.153636 304.305189 
z
" style="fill:#1f77b4;stroke:#000000;stroke-linejoin:miter;"/>
   </g>
   <g id="patch_131">
    <path clip-path="url(#p5e2324a455)" d="M 770.226364 305.059875 
L 775.299091 305.059875 
L 775.299091 297.890362 
L 770.226364 297.890362 
z
" style="fill:#1f77b4;stroke:#000000;stroke-linejoin:miter;"/>
   </g>
   <g id="patch_132">
    <path clip-path="url(#p5e2324a455)" d="M 775.299091 305.059875 
L 780.371818 305.059875 
L 780.371818 302.418476 
L 775.299091 302.418476 
z
" style="fill:#1f77b4;stroke:#000000;stroke-linejoin:miter;"/>
   </g>
   <g id="patch_133">
    <path clip-path="url(#p5e2324a455)" d="M 780.371818 305.059875 
L 785.444545 305.059875 
L 785.444545 304.305189 
L 780.371818 304.305189 
z
" style="fill:#1f77b4;stroke:#000000;stroke-linejoin:miter;"/>
   </g>
   <g id="patch_134">
    <path clip-path="url(#p5e2324a455)" d="M 785.444545 305.059875 
L 790.517273 305.059875 
L 790.517273 301.66379 
L 785.444545 301.66379 
z
" style="fill:#1f77b4;stroke:#000000;stroke-linejoin:miter;"/>
   </g>
   <g id="patch_135">
    <path clip-path="url(#p5e2324a455)" d="M 790.517273 305.059875 
L 795.59 305.059875 
L 795.59 303.361833 
L 790.517273 303.361833 
z
" style="fill:#1f77b4;stroke:#000000;stroke-linejoin:miter;"/>
   </g>
   <g id="patch_136">
    <path clip-path="url(#p5e2324a455)" d="M 795.59 305.059875 
L 800.662727 305.059875 
L 800.662727 304.116518 
L 795.59 304.116518 
z
" style="fill:#1f77b4;stroke:#000000;stroke-linejoin:miter;"/>
   </g>
   <g id="patch_137">
    <path clip-path="url(#p5e2324a455)" d="M 800.662727 305.059875 
L 805.735455 305.059875 
L 805.735455 304.305189 
L 800.662727 304.305189 
z
" style="fill:#1f77b4;stroke:#000000;stroke-linejoin:miter;"/>
   </g>
   <g id="patch_138">
    <path clip-path="url(#p5e2324a455)" d="M 805.735455 305.059875 
L 810.808182 305.059875 
L 810.808182 304.871204 
L 805.735455 304.871204 
z
" style="fill:#1f77b4;stroke:#000000;stroke-linejoin:miter;"/>
   </g>
   <g id="patch_139">
    <path clip-path="url(#p5e2324a455)" d="M 810.808182 305.059875 
L 815.880909 305.059875 
L 815.880909 305.059875 
L 810.808182 305.059875 
z
" style="fill:#1f77b4;stroke:#000000;stroke-linejoin:miter;"/>
   </g>
   <g id="patch_140">
    <path clip-path="url(#p5e2324a455)" d="M 815.880909 305.059875 
L 820.953636 305.059875 
L 820.953636 292.041549 
L 815.880909 292.041549 
z
" style="fill:#1f77b4;stroke:#000000;stroke-linejoin:miter;"/>
   </g>
   <g id="patch_141">
    <path clip-path="url(#p5e2324a455)" d="M 820.953636 305.059875 
L 826.026364 305.059875 
L 826.026364 305.059875 
L 820.953636 305.059875 
z
" style="fill:#1f77b4;stroke:#000000;stroke-linejoin:miter;"/>
   </g>
   <g id="patch_142">
    <path clip-path="url(#p5e2324a455)" d="M 826.026364 305.059875 
L 831.099091 305.059875 
L 831.099091 304.871204 
L 826.026364 304.871204 
z
" style="fill:#1f77b4;stroke:#000000;stroke-linejoin:miter;"/>
   </g>
   <g id="patch_143">
    <path clip-path="url(#p5e2324a455)" d="M 831.099091 305.059875 
L 836.171818 305.059875 
L 836.171818 304.871204 
L 831.099091 304.871204 
z
" style="fill:#1f77b4;stroke:#000000;stroke-linejoin:miter;"/>
   </g>
   <g id="patch_144">
    <path clip-path="url(#p5e2324a455)" d="M 836.171818 305.059875 
L 841.244545 305.059875 
L 841.244545 304.493861 
L 836.171818 304.493861 
z
" style="fill:#1f77b4;stroke:#000000;stroke-linejoin:miter;"/>
   </g>
   <g id="patch_145">
    <path clip-path="url(#p5e2324a455)" d="M 841.244545 305.059875 
L 846.317273 305.059875 
L 846.317273 305.059875 
L 841.244545 305.059875 
z
" style="fill:#1f77b4;stroke:#000000;stroke-linejoin:miter;"/>
   </g>
   <g id="patch_146">
    <path clip-path="url(#p5e2324a455)" d="M 846.317273 305.059875 
L 851.39 305.059875 
L 851.39 302.607147 
L 846.317273 302.607147 
z
" style="fill:#1f77b4;stroke:#000000;stroke-linejoin:miter;"/>
   </g>
   <g id="patch_147">
    <path clip-path="url(#p5e2324a455)" d="M 851.39 305.059875 
L 856.462727 305.059875 
L 856.462727 304.682532 
L 851.39 304.682532 
z
" style="fill:#1f77b4;stroke:#000000;stroke-linejoin:miter;"/>
   </g>
   <g id="patch_148">
    <path clip-path="url(#p5e2324a455)" d="M 856.462727 305.059875 
L 861.535455 305.059875 
L 861.535455 305.059875 
L 856.462727 305.059875 
z
" style="fill:#1f77b4;stroke:#000000;stroke-linejoin:miter;"/>
   </g>
   <g id="patch_149">
    <path clip-path="url(#p5e2324a455)" d="M 861.535455 305.059875 
L 866.608182 305.059875 
L 866.608182 303.361833 
L 861.535455 303.361833 
z
" style="fill:#1f77b4;stroke:#000000;stroke-linejoin:miter;"/>
   </g>
   <g id="patch_150">
    <path clip-path="url(#p5e2324a455)" d="M 866.608182 305.059875 
L 871.680909 305.059875 
L 871.680909 304.871204 
L 866.608182 304.871204 
z
" style="fill:#1f77b4;stroke:#000000;stroke-linejoin:miter;"/>
   </g>
   <g id="patch_151">
    <path clip-path="url(#p5e2324a455)" d="M 871.680909 305.059875 
L 876.753636 305.059875 
L 876.753636 305.059875 
L 871.680909 305.059875 
z
" style="fill:#1f77b4;stroke:#000000;stroke-linejoin:miter;"/>
   </g>
   <g id="patch_152">
    <path clip-path="url(#p5e2324a455)" d="M 876.753636 305.059875 
L 881.826364 305.059875 
L 881.826364 300.531762 
L 876.753636 300.531762 
z
" style="fill:#1f77b4;stroke:#000000;stroke-linejoin:miter;"/>
   </g>
   <g id="patch_153">
    <path clip-path="url(#p5e2324a455)" d="M 881.826364 305.059875 
L 886.899091 305.059875 
L 886.899091 305.059875 
L 881.826364 305.059875 
z
" style="fill:#1f77b4;stroke:#000000;stroke-linejoin:miter;"/>
   </g>
   <g id="patch_154">
    <path clip-path="url(#p5e2324a455)" d="M 886.899091 305.059875 
L 891.971818 305.059875 
L 891.971818 304.305189 
L 886.899091 304.305189 
z
" style="fill:#1f77b4;stroke:#000000;stroke-linejoin:miter;"/>
   </g>
   <g id="patch_155">
    <path clip-path="url(#p5e2324a455)" d="M 891.971818 305.059875 
L 897.044545 305.059875 
L 897.044545 304.871204 
L 891.971818 304.871204 
z
" style="fill:#1f77b4;stroke:#000000;stroke-linejoin:miter;"/>
   </g>
   <g id="patch_156">
    <path clip-path="url(#p5e2324a455)" d="M 897.044545 305.059875 
L 902.117273 305.059875 
L 902.117273 304.871204 
L 897.044545 304.871204 
z
" style="fill:#1f77b4;stroke:#000000;stroke-linejoin:miter;"/>
   </g>
   <g id="patch_157">
    <path clip-path="url(#p5e2324a455)" d="M 902.117273 305.059875 
L 907.19 305.059875 
L 907.19 305.059875 
L 902.117273 305.059875 
z
" style="fill:#1f77b4;stroke:#000000;stroke-linejoin:miter;"/>
   </g>
   <g id="patch_158">
    <path clip-path="url(#p5e2324a455)" d="M 907.19 305.059875 
L 912.262727 305.059875 
L 912.262727 304.305189 
L 907.19 304.305189 
z
" style="fill:#1f77b4;stroke:#000000;stroke-linejoin:miter;"/>
   </g>
   <g id="patch_159">
    <path clip-path="url(#p5e2324a455)" d="M 912.262727 305.059875 
L 917.335455 305.059875 
L 917.335455 305.059875 
L 912.262727 305.059875 
z
" style="fill:#1f77b4;stroke:#000000;stroke-linejoin:miter;"/>
   </g>
   <g id="patch_160">
    <path clip-path="url(#p5e2324a455)" d="M 917.335455 305.059875 
L 922.408182 305.059875 
L 922.408182 304.871204 
L 917.335455 304.871204 
z
" style="fill:#1f77b4;stroke:#000000;stroke-linejoin:miter;"/>
   </g>
   <g id="patch_161">
    <path clip-path="url(#p5e2324a455)" d="M 922.408182 305.059875 
L 927.480909 305.059875 
L 927.480909 304.871204 
L 922.408182 304.871204 
z
" style="fill:#1f77b4;stroke:#000000;stroke-linejoin:miter;"/>
   </g>
   <g id="patch_162">
    <path clip-path="url(#p5e2324a455)" d="M 927.480909 305.059875 
L 932.553636 305.059875 
L 932.553636 304.682532 
L 927.480909 304.682532 
z
" style="fill:#1f77b4;stroke:#000000;stroke-linejoin:miter;"/>
   </g>
   <g id="patch_163">
    <path clip-path="url(#p5e2324a455)" d="M 932.553636 305.059875 
L 937.626364 305.059875 
L 937.626364 304.871204 
L 932.553636 304.871204 
z
" style="fill:#1f77b4;stroke:#000000;stroke-linejoin:miter;"/>
   </g>
   <g id="patch_164">
    <path clip-path="url(#p5e2324a455)" d="M 937.626364 305.059875 
L 942.699091 305.059875 
L 942.699091 303.173161 
L 937.626364 303.173161 
z
" style="fill:#1f77b4;stroke:#000000;stroke-linejoin:miter;"/>
   </g>
   <g id="patch_165">
    <path clip-path="url(#p5e2324a455)" d="M 942.699091 305.059875 
L 947.771818 305.059875 
L 947.771818 305.059875 
L 942.699091 305.059875 
z
" style="fill:#1f77b4;stroke:#000000;stroke-linejoin:miter;"/>
   </g>
   <g id="patch_166">
    <path clip-path="url(#p5e2324a455)" d="M 947.771818 305.059875 
L 952.844545 305.059875 
L 952.844545 304.871204 
L 947.771818 304.871204 
z
" style="fill:#1f77b4;stroke:#000000;stroke-linejoin:miter;"/>
   </g>
   <g id="patch_167">
    <path clip-path="url(#p5e2324a455)" d="M 952.844545 305.059875 
L 957.917273 305.059875 
L 957.917273 304.305189 
L 952.844545 304.305189 
z
" style="fill:#1f77b4;stroke:#000000;stroke-linejoin:miter;"/>
   </g>
   <g id="patch_168">
    <path clip-path="url(#p5e2324a455)" d="M 957.917273 305.059875 
L 962.99 305.059875 
L 962.99 305.059875 
L 957.917273 305.059875 
z
" style="fill:#1f77b4;stroke:#000000;stroke-linejoin:miter;"/>
   </g>
   <g id="patch_169">
    <path clip-path="url(#p5e2324a455)" d="M 962.99 305.059875 
L 968.062727 305.059875 
L 968.062727 304.871204 
L 962.99 304.871204 
z
" style="fill:#1f77b4;stroke:#000000;stroke-linejoin:miter;"/>
   </g>
   <g id="patch_170">
    <path clip-path="url(#p5e2324a455)" d="M 968.062727 305.059875 
L 973.135455 305.059875 
L 973.135455 305.059875 
L 968.062727 305.059875 
z
" style="fill:#1f77b4;stroke:#000000;stroke-linejoin:miter;"/>
   </g>
   <g id="patch_171">
    <path clip-path="url(#p5e2324a455)" d="M 973.135455 305.059875 
L 978.208182 305.059875 
L 978.208182 305.059875 
L 973.135455 305.059875 
z
" style="fill:#1f77b4;stroke:#000000;stroke-linejoin:miter;"/>
   </g>
   <g id="patch_172">
    <path clip-path="url(#p5e2324a455)" d="M 978.208182 305.059875 
L 983.280909 305.059875 
L 983.280909 305.059875 
L 978.208182 305.059875 
z
" style="fill:#1f77b4;stroke:#000000;stroke-linejoin:miter;"/>
   </g>
   <g id="patch_173">
    <path clip-path="url(#p5e2324a455)" d="M 983.280909 305.059875 
L 988.353636 305.059875 
L 988.353636 305.059875 
L 983.280909 305.059875 
z
" style="fill:#1f77b4;stroke:#000000;stroke-linejoin:miter;"/>
   </g>
   <g id="patch_174">
    <path clip-path="url(#p5e2324a455)" d="M 988.353636 305.059875 
L 993.426364 305.059875 
L 993.426364 305.059875 
L 988.353636 305.059875 
z
" style="fill:#1f77b4;stroke:#000000;stroke-linejoin:miter;"/>
   </g>
   <g id="patch_175">
    <path clip-path="url(#p5e2324a455)" d="M 993.426364 305.059875 
L 998.499091 305.059875 
L 998.499091 305.059875 
L 993.426364 305.059875 
z
" style="fill:#1f77b4;stroke:#000000;stroke-linejoin:miter;"/>
   </g>
   <g id="patch_176">
    <path clip-path="url(#p5e2324a455)" d="M 998.499091 305.059875 
L 1003.571818 305.059875 
L 1003.571818 303.927847 
L 998.499091 303.927847 
z
" style="fill:#1f77b4;stroke:#000000;stroke-linejoin:miter;"/>
   </g>
   <g id="patch_177">
    <path clip-path="url(#p5e2324a455)" d="M 1003.571818 305.059875 
L 1008.644545 305.059875 
L 1008.644545 305.059875 
L 1003.571818 305.059875 
z
" style="fill:#1f77b4;stroke:#000000;stroke-linejoin:miter;"/>
   </g>
   <g id="patch_178">
    <path clip-path="url(#p5e2324a455)" d="M 1008.644545 305.059875 
L 1013.717273 305.059875 
L 1013.717273 305.059875 
L 1008.644545 305.059875 
z
" style="fill:#1f77b4;stroke:#000000;stroke-linejoin:miter;"/>
   </g>
   <g id="patch_179">
    <path clip-path="url(#p5e2324a455)" d="M 1013.717273 305.059875 
L 1018.79 305.059875 
L 1018.79 305.059875 
L 1013.717273 305.059875 
z
" style="fill:#1f77b4;stroke:#000000;stroke-linejoin:miter;"/>
   </g>
   <g id="patch_180">
    <path clip-path="url(#p5e2324a455)" d="M 1018.79 305.059875 
L 1023.862727 305.059875 
L 1023.862727 304.871204 
L 1018.79 304.871204 
z
" style="fill:#1f77b4;stroke:#000000;stroke-linejoin:miter;"/>
   </g>
   <g id="patch_181">
    <path clip-path="url(#p5e2324a455)" d="M 1023.862727 305.059875 
L 1028.935455 305.059875 
L 1028.935455 305.059875 
L 1023.862727 305.059875 
z
" style="fill:#1f77b4;stroke:#000000;stroke-linejoin:miter;"/>
   </g>
   <g id="patch_182">
    <path clip-path="url(#p5e2324a455)" d="M 1028.935455 305.059875 
L 1034.008182 305.059875 
L 1034.008182 305.059875 
L 1028.935455 305.059875 
z
" style="fill:#1f77b4;stroke:#000000;stroke-linejoin:miter;"/>
   </g>
   <g id="patch_183">
    <path clip-path="url(#p5e2324a455)" d="M 1034.008182 305.059875 
L 1039.080909 305.059875 
L 1039.080909 305.059875 
L 1034.008182 305.059875 
z
" style="fill:#1f77b4;stroke:#000000;stroke-linejoin:miter;"/>
   </g>
   <g id="patch_184">
    <path clip-path="url(#p5e2324a455)" d="M 1039.080909 305.059875 
L 1044.153636 305.059875 
L 1044.153636 305.059875 
L 1039.080909 305.059875 
z
" style="fill:#1f77b4;stroke:#000000;stroke-linejoin:miter;"/>
   </g>
   <g id="patch_185">
    <path clip-path="url(#p5e2324a455)" d="M 1044.153636 305.059875 
L 1049.226364 305.059875 
L 1049.226364 305.059875 
L 1044.153636 305.059875 
z
" style="fill:#1f77b4;stroke:#000000;stroke-linejoin:miter;"/>
   </g>
   <g id="patch_186">
    <path clip-path="url(#p5e2324a455)" d="M 1049.226364 305.059875 
L 1054.299091 305.059875 
L 1054.299091 305.059875 
L 1049.226364 305.059875 
z
" style="fill:#1f77b4;stroke:#000000;stroke-linejoin:miter;"/>
   </g>
   <g id="patch_187">
    <path clip-path="url(#p5e2324a455)" d="M 1054.299091 305.059875 
L 1059.371818 305.059875 
L 1059.371818 305.059875 
L 1054.299091 305.059875 
z
" style="fill:#1f77b4;stroke:#000000;stroke-linejoin:miter;"/>
   </g>
   <g id="patch_188">
    <path clip-path="url(#p5e2324a455)" d="M 1059.371818 305.059875 
L 1064.444545 305.059875 
L 1064.444545 305.059875 
L 1059.371818 305.059875 
z
" style="fill:#1f77b4;stroke:#000000;stroke-linejoin:miter;"/>
   </g>
   <g id="patch_189">
    <path clip-path="url(#p5e2324a455)" d="M 1064.444545 305.059875 
L 1069.517273 305.059875 
L 1069.517273 305.059875 
L 1064.444545 305.059875 
z
" style="fill:#1f77b4;stroke:#000000;stroke-linejoin:miter;"/>
   </g>
   <g id="patch_190">
    <path clip-path="url(#p5e2324a455)" d="M 1069.517273 305.059875 
L 1074.59 305.059875 
L 1074.59 305.059875 
L 1069.517273 305.059875 
z
" style="fill:#1f77b4;stroke:#000000;stroke-linejoin:miter;"/>
   </g>
   <g id="patch_191">
    <path clip-path="url(#p5e2324a455)" d="M 1074.59 305.059875 
L 1079.662727 305.059875 
L 1079.662727 305.059875 
L 1074.59 305.059875 
z
" style="fill:#1f77b4;stroke:#000000;stroke-linejoin:miter;"/>
   </g>
   <g id="patch_192">
    <path clip-path="url(#p5e2324a455)" d="M 1079.662727 305.059875 
L 1084.735455 305.059875 
L 1084.735455 305.059875 
L 1079.662727 305.059875 
z
" style="fill:#1f77b4;stroke:#000000;stroke-linejoin:miter;"/>
   </g>
   <g id="patch_193">
    <path clip-path="url(#p5e2324a455)" d="M 1084.735455 305.059875 
L 1089.808182 305.059875 
L 1089.808182 305.059875 
L 1084.735455 305.059875 
z
" style="fill:#1f77b4;stroke:#000000;stroke-linejoin:miter;"/>
   </g>
   <g id="patch_194">
    <path clip-path="url(#p5e2324a455)" d="M 1089.808182 305.059875 
L 1094.880909 305.059875 
L 1094.880909 305.059875 
L 1089.808182 305.059875 
z
" style="fill:#1f77b4;stroke:#000000;stroke-linejoin:miter;"/>
   </g>
   <g id="patch_195">
    <path clip-path="url(#p5e2324a455)" d="M 1094.880909 305.059875 
L 1099.953636 305.059875 
L 1099.953636 305.059875 
L 1094.880909 305.059875 
z
" style="fill:#1f77b4;stroke:#000000;stroke-linejoin:miter;"/>
   </g>
   <g id="patch_196">
    <path clip-path="url(#p5e2324a455)" d="M 1099.953636 305.059875 
L 1105.026364 305.059875 
L 1105.026364 305.059875 
L 1099.953636 305.059875 
z
" style="fill:#1f77b4;stroke:#000000;stroke-linejoin:miter;"/>
   </g>
   <g id="patch_197">
    <path clip-path="url(#p5e2324a455)" d="M 1105.026364 305.059875 
L 1110.099091 305.059875 
L 1110.099091 305.059875 
L 1105.026364 305.059875 
z
" style="fill:#1f77b4;stroke:#000000;stroke-linejoin:miter;"/>
   </g>
   <g id="patch_198">
    <path clip-path="url(#p5e2324a455)" d="M 1110.099091 305.059875 
L 1115.171818 305.059875 
L 1115.171818 305.059875 
L 1110.099091 305.059875 
z
" style="fill:#1f77b4;stroke:#000000;stroke-linejoin:miter;"/>
   </g>
   <g id="patch_199">
    <path clip-path="url(#p5e2324a455)" d="M 1115.171818 305.059875 
L 1120.244545 305.059875 
L 1120.244545 305.059875 
L 1115.171818 305.059875 
z
" style="fill:#1f77b4;stroke:#000000;stroke-linejoin:miter;"/>
   </g>
   <g id="patch_200">
    <path clip-path="url(#p5e2324a455)" d="M 1120.244545 305.059875 
L 1125.317273 305.059875 
L 1125.317273 305.059875 
L 1120.244545 305.059875 
z
" style="fill:#1f77b4;stroke:#000000;stroke-linejoin:miter;"/>
   </g>
   <g id="patch_201">
    <path clip-path="url(#p5e2324a455)" d="M 1125.317273 305.059875 
L 1130.39 305.059875 
L 1130.39 304.682532 
L 1125.317273 304.682532 
z
" style="fill:#1f77b4;stroke:#000000;stroke-linejoin:miter;"/>
   </g>
   <g id="patch_202">
    <path clip-path="url(#p5e2324a455)" d="M 1130.39 305.059875 
L 1135.462727 305.059875 
L 1135.462727 304.871204 
L 1130.39 304.871204 
z
" style="fill:#1f77b4;stroke:#000000;stroke-linejoin:miter;"/>
   </g>
   <g id="matplotlib.axis_1">
    <g id="xtick_1">
     <g id="line2d_1">
      <defs>
       <path d="M 0 0 
L 0 3.5 
" id="m8573be2b31" style="stroke:#000000;stroke-width:0.8;"/>
      </defs>
      <g>
       <use style="stroke:#000000;stroke-width:0.8;" x="74.50016" xlink:href="#m8573be2b31" y="305.059875"/>
      </g>
     </g>
     <g id="text_1">
      <!-- −3 -->
      <defs>
       <path d="M 10.59375 35.5 
L 73.1875 35.5 
L 73.1875 27.203125 
L 10.59375 27.203125 
z
" id="DejaVuSans-2212"/>
       <path d="M 40.578125 39.3125 
Q 47.65625 37.796875 51.625 33 
Q 55.609375 28.21875 55.609375 21.1875 
Q 55.609375 10.40625 48.1875 4.484375 
Q 40.765625 -1.421875 27.09375 -1.421875 
Q 22.515625 -1.421875 17.65625 -0.515625 
Q 12.796875 0.390625 7.625 2.203125 
L 7.625 11.71875 
Q 11.71875 9.328125 16.59375 8.109375 
Q 21.484375 6.890625 26.8125 6.890625 
Q 36.078125 6.890625 40.9375 10.546875 
Q 45.796875 14.203125 45.796875 21.1875 
Q 45.796875 27.640625 41.28125 31.265625 
Q 36.765625 34.90625 28.71875 34.90625 
L 20.21875 34.90625 
L 20.21875 43.015625 
L 29.109375 43.015625 
Q 36.375 43.015625 40.234375 45.921875 
Q 44.09375 48.828125 44.09375 54.296875 
Q 44.09375 59.90625 40.109375 62.90625 
Q 36.140625 65.921875 28.71875 65.921875 
Q 24.65625 65.921875 20.015625 65.03125 
Q 15.375 64.15625 9.8125 62.3125 
L 9.8125 71.09375 
Q 15.4375 72.65625 20.34375 73.4375 
Q 25.25 74.21875 29.59375 74.21875 
Q 40.828125 74.21875 47.359375 69.109375 
Q 53.90625 64.015625 53.90625 55.328125 
Q 53.90625 49.265625 50.4375 45.09375 
Q 46.96875 40.921875 40.578125 39.3125 
z
" id="DejaVuSans-33"/>
      </defs>
      <g transform="translate(58.283754 328.776437)scale(0.22 -0.22)">
       <use xlink:href="#DejaVuSans-2212"/>
       <use x="83.789062" xlink:href="#DejaVuSans-33"/>
      </g>
     </g>
    </g>
    <g id="xtick_2">
     <g id="line2d_2">
      <g>
       <use style="stroke:#000000;stroke-width:0.8;" x="260.16861" xlink:href="#m8573be2b31" y="305.059875"/>
      </g>
     </g>
     <g id="text_2">
      <!-- −2 -->
      <defs>
       <path d="M 19.1875 8.296875 
L 53.609375 8.296875 
L 53.609375 0 
L 7.328125 0 
L 7.328125 8.296875 
Q 12.9375 14.109375 22.625 23.890625 
Q 32.328125 33.6875 34.8125 36.53125 
Q 39.546875 41.84375 41.421875 45.53125 
Q 43.3125 49.21875 43.3125 52.78125 
Q 43.3125 58.59375 39.234375 62.25 
Q 35.15625 65.921875 28.609375 65.921875 
Q 23.96875 65.921875 18.8125 64.3125 
Q 13.671875 62.703125 7.8125 59.421875 
L 7.8125 69.390625 
Q 13.765625 71.78125 18.9375 73 
Q 24.125 74.21875 28.421875 74.21875 
Q 39.75 74.21875 46.484375 68.546875 
Q 53.21875 62.890625 53.21875 53.421875 
Q 53.21875 48.921875 51.53125 44.890625 
Q 49.859375 40.875 45.40625 35.40625 
Q 44.1875 33.984375 37.640625 27.21875 
Q 31.109375 20.453125 19.1875 8.296875 
z
" id="DejaVuSans-32"/>
      </defs>
      <g transform="translate(243.952203 328.776437)scale(0.22 -0.22)">
       <use xlink:href="#DejaVuSans-2212"/>
       <use x="83.789062" xlink:href="#DejaVuSans-32"/>
      </g>
     </g>
    </g>
    <g id="xtick_3">
     <g id="line2d_3">
      <g>
       <use style="stroke:#000000;stroke-width:0.8;" x="445.837059" xlink:href="#m8573be2b31" y="305.059875"/>
      </g>
     </g>
     <g id="text_3">
      <!-- −1 -->
      <defs>
       <path d="M 12.40625 8.296875 
L 28.515625 8.296875 
L 28.515625 63.921875 
L 10.984375 60.40625 
L 10.984375 69.390625 
L 28.421875 72.90625 
L 38.28125 72.90625 
L 38.28125 8.296875 
L 54.390625 8.296875 
L 54.390625 0 
L 12.40625 0 
z
" id="DejaVuSans-31"/>
      </defs>
      <g transform="translate(429.620653 328.776437)scale(0.22 -0.22)">
       <use xlink:href="#DejaVuSans-2212"/>
       <use x="83.789062" xlink:href="#DejaVuSans-31"/>
      </g>
     </g>
    </g>
    <g id="xtick_4">
     <g id="line2d_4">
      <g>
       <use style="stroke:#000000;stroke-width:0.8;" x="631.505508" xlink:href="#m8573be2b31" y="305.059875"/>
      </g>
     </g>
     <g id="text_4">
      <!-- 0 -->
      <defs>
       <path d="M 31.78125 66.40625 
Q 24.171875 66.40625 20.328125 58.90625 
Q 16.5 51.421875 16.5 36.375 
Q 16.5 21.390625 20.328125 13.890625 
Q 24.171875 6.390625 31.78125 6.390625 
Q 39.453125 6.390625 43.28125 13.890625 
Q 47.125 21.390625 47.125 36.375 
Q 47.125 51.421875 43.28125 58.90625 
Q 39.453125 66.40625 31.78125 66.40625 
z
M 31.78125 74.21875 
Q 44.046875 74.21875 50.515625 64.515625 
Q 56.984375 54.828125 56.984375 36.375 
Q 56.984375 17.96875 50.515625 8.265625 
Q 44.046875 -1.421875 31.78125 -1.421875 
Q 19.53125 -1.421875 13.0625 8.265625 
Q 6.59375 17.96875 6.59375 36.375 
Q 6.59375 54.828125 13.0625 64.515625 
Q 19.53125 74.21875 31.78125 74.21875 
z
" id="DejaVuSans-30"/>
      </defs>
      <g transform="translate(624.506758 328.776437)scale(0.22 -0.22)">
       <use xlink:href="#DejaVuSans-30"/>
      </g>
     </g>
    </g>
    <g id="xtick_5">
     <g id="line2d_5">
      <g>
       <use style="stroke:#000000;stroke-width:0.8;" x="817.173957" xlink:href="#m8573be2b31" y="305.059875"/>
      </g>
     </g>
     <g id="text_5">
      <!-- 1 -->
      <g transform="translate(810.175207 328.776437)scale(0.22 -0.22)">
       <use xlink:href="#DejaVuSans-31"/>
      </g>
     </g>
    </g>
    <g id="xtick_6">
     <g id="line2d_6">
      <g>
       <use style="stroke:#000000;stroke-width:0.8;" x="1002.842406" xlink:href="#m8573be2b31" y="305.059875"/>
      </g>
     </g>
     <g id="text_6">
      <!-- 2 -->
      <g transform="translate(995.843656 328.776437)scale(0.22 -0.22)">
       <use xlink:href="#DejaVuSans-32"/>
      </g>
     </g>
    </g>
    <g id="text_7">
     <!-- Delta (stars) -->
     <defs>
      <path d="M 19.671875 64.796875 
L 19.671875 8.109375 
L 31.59375 8.109375 
Q 46.6875 8.109375 53.6875 14.9375 
Q 60.6875 21.78125 60.6875 36.53125 
Q 60.6875 51.171875 53.6875 57.984375 
Q 46.6875 64.796875 31.59375 64.796875 
z
M 9.8125 72.90625 
L 30.078125 72.90625 
Q 51.265625 72.90625 61.171875 64.09375 
Q 71.09375 55.28125 71.09375 36.53125 
Q 71.09375 17.671875 61.125 8.828125 
Q 51.171875 0 30.078125 0 
L 9.8125 0 
z
" id="DejaVuSans-44"/>
      <path d="M 56.203125 29.59375 
L 56.203125 25.203125 
L 14.890625 25.203125 
Q 15.484375 15.921875 20.484375 11.0625 
Q 25.484375 6.203125 34.421875 6.203125 
Q 39.59375 6.203125 44.453125 7.46875 
Q 49.3125 8.734375 54.109375 11.28125 
L 54.109375 2.78125 
Q 49.265625 0.734375 44.1875 -0.34375 
Q 39.109375 -1.421875 33.890625 -1.421875 
Q 20.796875 -1.421875 13.15625 6.1875 
Q 5.515625 13.8125 5.515625 26.8125 
Q 5.515625 40.234375 12.765625 48.109375 
Q 20.015625 56 32.328125 56 
Q 43.359375 56 49.78125 48.890625 
Q 56.203125 41.796875 56.203125 29.59375 
z
M 47.21875 32.234375 
Q 47.125 39.59375 43.09375 43.984375 
Q 39.0625 48.390625 32.421875 48.390625 
Q 24.90625 48.390625 20.390625 44.140625 
Q 15.875 39.890625 15.1875 32.171875 
z
" id="DejaVuSans-65"/>
      <path d="M 9.421875 75.984375 
L 18.40625 75.984375 
L 18.40625 0 
L 9.421875 0 
z
" id="DejaVuSans-6c"/>
      <path d="M 18.3125 70.21875 
L 18.3125 54.6875 
L 36.8125 54.6875 
L 36.8125 47.703125 
L 18.3125 47.703125 
L 18.3125 18.015625 
Q 18.3125 11.328125 20.140625 9.421875 
Q 21.96875 7.515625 27.59375 7.515625 
L 36.8125 7.515625 
L 36.8125 0 
L 27.59375 0 
Q 17.1875 0 13.234375 3.875 
Q 9.28125 7.765625 9.28125 18.015625 
L 9.28125 47.703125 
L 2.6875 47.703125 
L 2.6875 54.6875 
L 9.28125 54.6875 
L 9.28125 70.21875 
z
" id="DejaVuSans-74"/>
      <path d="M 34.28125 27.484375 
Q 23.390625 27.484375 19.1875 25 
Q 14.984375 22.515625 14.984375 16.5 
Q 14.984375 11.71875 18.140625 8.90625 
Q 21.296875 6.109375 26.703125 6.109375 
Q 34.1875 6.109375 38.703125 11.40625 
Q 43.21875 16.703125 43.21875 25.484375 
L 43.21875 27.484375 
z
M 52.203125 31.203125 
L 52.203125 0 
L 43.21875 0 
L 43.21875 8.296875 
Q 40.140625 3.328125 35.546875 0.953125 
Q 30.953125 -1.421875 24.3125 -1.421875 
Q 15.921875 -1.421875 10.953125 3.296875 
Q 6 8.015625 6 15.921875 
Q 6 25.140625 12.171875 29.828125 
Q 18.359375 34.515625 30.609375 34.515625 
L 43.21875 34.515625 
L 43.21875 35.40625 
Q 43.21875 41.609375 39.140625 45 
Q 35.0625 48.390625 27.6875 48.390625 
Q 23 48.390625 18.546875 47.265625 
Q 14.109375 46.140625 10.015625 43.890625 
L 10.015625 52.203125 
Q 14.9375 54.109375 19.578125 55.046875 
Q 24.21875 56 28.609375 56 
Q 40.484375 56 46.34375 49.84375 
Q 52.203125 43.703125 52.203125 31.203125 
z
" id="DejaVuSans-61"/>
      <path id="DejaVuSans-20"/>
      <path d="M 31 75.875 
Q 24.46875 64.65625 21.28125 53.65625 
Q 18.109375 42.671875 18.109375 31.390625 
Q 18.109375 20.125 21.3125 9.0625 
Q 24.515625 -2 31 -13.1875 
L 23.1875 -13.1875 
Q 15.875 -1.703125 12.234375 9.375 
Q 8.59375 20.453125 8.59375 31.390625 
Q 8.59375 42.28125 12.203125 53.3125 
Q 15.828125 64.359375 23.1875 75.875 
z
" id="DejaVuSans-28"/>
      <path d="M 44.28125 53.078125 
L 44.28125 44.578125 
Q 40.484375 46.53125 36.375 47.5 
Q 32.28125 48.484375 27.875 48.484375 
Q 21.1875 48.484375 17.84375 46.4375 
Q 14.5 44.390625 14.5 40.28125 
Q 14.5 37.15625 16.890625 35.375 
Q 19.28125 33.59375 26.515625 31.984375 
L 29.59375 31.296875 
Q 39.15625 29.25 43.1875 25.515625 
Q 47.21875 21.78125 47.21875 15.09375 
Q 47.21875 7.46875 41.1875 3.015625 
Q 35.15625 -1.421875 24.609375 -1.421875 
Q 20.21875 -1.421875 15.453125 -0.5625 
Q 10.6875 0.296875 5.421875 2 
L 5.421875 11.28125 
Q 10.40625 8.6875 15.234375 7.390625 
Q 20.0625 6.109375 24.8125 6.109375 
Q 31.15625 6.109375 34.5625 8.28125 
Q 37.984375 10.453125 37.984375 14.40625 
Q 37.984375 18.0625 35.515625 20.015625 
Q 33.0625 21.96875 24.703125 23.78125 
L 21.578125 24.515625 
Q 13.234375 26.265625 9.515625 29.90625 
Q 5.8125 33.546875 5.8125 39.890625 
Q 5.8125 47.609375 11.28125 51.796875 
Q 16.75 56 26.8125 56 
Q 31.78125 56 36.171875 55.265625 
Q 40.578125 54.546875 44.28125 53.078125 
z
" id="DejaVuSans-73"/>
      <path d="M 41.109375 46.296875 
Q 39.59375 47.171875 37.8125 47.578125 
Q 36.03125 48 33.890625 48 
Q 26.265625 48 22.1875 43.046875 
Q 18.109375 38.09375 18.109375 28.8125 
L 18.109375 0 
L 9.078125 0 
L 9.078125 54.6875 
L 18.109375 54.6875 
L 18.109375 46.1875 
Q 20.953125 51.171875 25.484375 53.578125 
Q 30.03125 56 36.53125 56 
Q 37.453125 56 38.578125 55.875 
Q 39.703125 55.765625 41.0625 55.515625 
z
" id="DejaVuSans-72"/>
      <path d="M 8.015625 75.875 
L 15.828125 75.875 
Q 23.140625 64.359375 26.78125 53.3125 
Q 30.421875 42.28125 30.421875 31.390625 
Q 30.421875 20.453125 26.78125 9.375 
Q 23.140625 -1.703125 15.828125 -13.1875 
L 8.015625 -13.1875 
Q 14.5 -2 17.703125 9.0625 
Q 20.90625 20.125 20.90625 31.390625 
Q 20.90625 42.671875 17.703125 53.65625 
Q 14.5 64.65625 8.015625 75.875 
z
" id="DejaVuSans-29"/>
     </defs>
     <g transform="translate(559.727031 354.068312)scale(0.22 -0.22)">
      <use xlink:href="#DejaVuSans-44"/>
      <use x="77.001953" xlink:href="#DejaVuSans-65"/>
      <use x="138.525391" xlink:href="#DejaVuSans-6c"/>
      <use x="166.308594" xlink:href="#DejaVuSans-74"/>
      <use x="205.517578" xlink:href="#DejaVuSans-61"/>
      <use x="266.796875" xlink:href="#DejaVuSans-20"/>
      <use x="298.583984" xlink:href="#DejaVuSans-28"/>
      <use x="337.597656" xlink:href="#DejaVuSans-73"/>
      <use x="389.697266" xlink:href="#DejaVuSans-74"/>
      <use x="428.90625" xlink:href="#DejaVuSans-61"/>
      <use x="490.185547" xlink:href="#DejaVuSans-72"/>
      <use x="531.298828" xlink:href="#DejaVuSans-73"/>
      <use x="583.398438" xlink:href="#DejaVuSans-29"/>
     </g>
    </g>
   </g>
   <g id="matplotlib.axis_2">
    <g id="ytick_1">
     <g id="line2d_7">
      <defs>
       <path d="M 0 0 
L -3.5 0 
" id="mb8bc5ab159" style="stroke:#000000;stroke-width:0.8;"/>
      </defs>
      <g>
       <use style="stroke:#000000;stroke-width:0.8;" x="70.19" xlink:href="#mb8bc5ab159" y="305.059875"/>
      </g>
     </g>
     <g id="text_8">
      <!-- 0 -->
      <g transform="translate(49.1925 313.418156)scale(0.22 -0.22)">
       <use xlink:href="#DejaVuSans-30"/>
      </g>
     </g>
    </g>
    <g id="ytick_2">
     <g id="line2d_8">
      <g>
       <use style="stroke:#000000;stroke-width:0.8;" x="70.19" xlink:href="#mb8bc5ab159" y="257.892028"/>
      </g>
     </g>
     <g id="text_9">
      <!-- 250 -->
      <defs>
       <path d="M 10.796875 72.90625 
L 49.515625 72.90625 
L 49.515625 64.59375 
L 19.828125 64.59375 
L 19.828125 46.734375 
Q 21.96875 47.46875 24.109375 47.828125 
Q 26.265625 48.1875 28.421875 48.1875 
Q 40.625 48.1875 47.75 41.5 
Q 54.890625 34.8125 54.890625 23.390625 
Q 54.890625 11.625 47.5625 5.09375 
Q 40.234375 -1.421875 26.90625 -1.421875 
Q 22.3125 -1.421875 17.546875 -0.640625 
Q 12.796875 0.140625 7.71875 1.703125 
L 7.71875 11.625 
Q 12.109375 9.234375 16.796875 8.0625 
Q 21.484375 6.890625 26.703125 6.890625 
Q 35.15625 6.890625 40.078125 11.328125 
Q 45.015625 15.765625 45.015625 23.390625 
Q 45.015625 31 40.078125 35.4375 
Q 35.15625 39.890625 26.703125 39.890625 
Q 22.75 39.890625 18.8125 39.015625 
Q 14.890625 38.140625 10.796875 36.28125 
z
" id="DejaVuSans-35"/>
      </defs>
      <g transform="translate(21.1975 266.25031)scale(0.22 -0.22)">
       <use xlink:href="#DejaVuSans-32"/>
       <use x="63.623047" xlink:href="#DejaVuSans-35"/>
       <use x="127.246094" xlink:href="#DejaVuSans-30"/>
      </g>
     </g>
    </g>
    <g id="ytick_3">
     <g id="line2d_9">
      <g>
       <use style="stroke:#000000;stroke-width:0.8;" x="70.19" xlink:href="#mb8bc5ab159" y="210.724182"/>
      </g>
     </g>
     <g id="text_10">
      <!-- 500 -->
      <g transform="translate(21.1975 219.082463)scale(0.22 -0.22)">
       <use xlink:href="#DejaVuSans-35"/>
       <use x="63.623047" xlink:href="#DejaVuSans-30"/>
       <use x="127.246094" xlink:href="#DejaVuSans-30"/>
      </g>
     </g>
    </g>
    <g id="ytick_4">
     <g id="line2d_10">
      <g>
       <use style="stroke:#000000;stroke-width:0.8;" x="70.19" xlink:href="#mb8bc5ab159" y="163.556335"/>
      </g>
     </g>
     <g id="text_11">
      <!-- 750 -->
      <defs>
       <path d="M 8.203125 72.90625 
L 55.078125 72.90625 
L 55.078125 68.703125 
L 28.609375 0 
L 18.3125 0 
L 43.21875 64.59375 
L 8.203125 64.59375 
z
" id="DejaVuSans-37"/>
      </defs>
      <g transform="translate(21.1975 171.914616)scale(0.22 -0.22)">
       <use xlink:href="#DejaVuSans-37"/>
       <use x="63.623047" xlink:href="#DejaVuSans-35"/>
       <use x="127.246094" xlink:href="#DejaVuSans-30"/>
      </g>
     </g>
    </g>
    <g id="ytick_5">
     <g id="line2d_11">
      <g>
       <use style="stroke:#000000;stroke-width:0.8;" x="70.19" xlink:href="#mb8bc5ab159" y="116.388488"/>
      </g>
     </g>
     <g id="text_12">
      <!-- 1000 -->
      <g transform="translate(7.2 124.746769)scale(0.22 -0.22)">
       <use xlink:href="#DejaVuSans-31"/>
       <use x="63.623047" xlink:href="#DejaVuSans-30"/>
       <use x="127.246094" xlink:href="#DejaVuSans-30"/>
       <use x="190.869141" xlink:href="#DejaVuSans-30"/>
      </g>
     </g>
    </g>
    <g id="ytick_6">
     <g id="line2d_12">
      <g>
       <use style="stroke:#000000;stroke-width:0.8;" x="70.19" xlink:href="#mb8bc5ab159" y="69.220641"/>
      </g>
     </g>
     <g id="text_13">
      <!-- 1250 -->
      <g transform="translate(7.2 77.578923)scale(0.22 -0.22)">
       <use xlink:href="#DejaVuSans-31"/>
       <use x="63.623047" xlink:href="#DejaVuSans-32"/>
       <use x="127.246094" xlink:href="#DejaVuSans-35"/>
       <use x="190.869141" xlink:href="#DejaVuSans-30"/>
      </g>
     </g>
    </g>
   </g>
   <g id="patch_203">
    <path d="M 70.19 305.059875 
L 70.19 33.259875 
" style="fill:none;stroke:#000000;stroke-linecap:square;stroke-linejoin:miter;stroke-width:0.8;"/>
   </g>
   <g id="patch_204">
    <path d="M 1186.19 305.059875 
L 1186.19 33.259875 
" style="fill:none;stroke:#000000;stroke-linecap:square;stroke-linejoin:miter;stroke-width:0.8;"/>
   </g>
   <g id="patch_205">
    <path d="M 70.19 305.059875 
L 1186.19 305.059875 
" style="fill:none;stroke:#000000;stroke-linecap:square;stroke-linejoin:miter;stroke-width:0.8;"/>
   </g>
   <g id="patch_206">
    <path d="M 70.19 33.259875 
L 1186.19 33.259875 
" style="fill:none;stroke:#000000;stroke-linecap:square;stroke-linejoin:miter;stroke-width:0.8;"/>
   </g>
   <g id="text_14">
    <!-- Regular user reviews compared to all user reviews -->
    <defs>
     <path d="M 44.390625 34.1875 
Q 47.5625 33.109375 50.5625 29.59375 
Q 53.5625 26.078125 56.59375 19.921875 
L 66.609375 0 
L 56 0 
L 46.6875 18.703125 
Q 43.0625 26.03125 39.671875 28.421875 
Q 36.28125 30.8125 30.421875 30.8125 
L 19.671875 30.8125 
L 19.671875 0 
L 9.8125 0 
L 9.8125 72.90625 
L 32.078125 72.90625 
Q 44.578125 72.90625 50.734375 67.671875 
Q 56.890625 62.453125 56.890625 51.90625 
Q 56.890625 45.015625 53.6875 40.46875 
Q 50.484375 35.9375 44.390625 34.1875 
z
M 19.671875 64.796875 
L 19.671875 38.921875 
L 32.078125 38.921875 
Q 39.203125 38.921875 42.84375 42.21875 
Q 46.484375 45.515625 46.484375 51.90625 
Q 46.484375 58.296875 42.84375 61.546875 
Q 39.203125 64.796875 32.078125 64.796875 
z
" id="DejaVuSans-52"/>
     <path d="M 45.40625 27.984375 
Q 45.40625 37.75 41.375 43.109375 
Q 37.359375 48.484375 30.078125 48.484375 
Q 22.859375 48.484375 18.828125 43.109375 
Q 14.796875 37.75 14.796875 27.984375 
Q 14.796875 18.265625 18.828125 12.890625 
Q 22.859375 7.515625 30.078125 7.515625 
Q 37.359375 7.515625 41.375 12.890625 
Q 45.40625 18.265625 45.40625 27.984375 
z
M 54.390625 6.78125 
Q 54.390625 -7.171875 48.1875 -13.984375 
Q 42 -20.796875 29.203125 -20.796875 
Q 24.46875 -20.796875 20.265625 -20.09375 
Q 16.0625 -19.390625 12.109375 -17.921875 
L 12.109375 -9.1875 
Q 16.0625 -11.328125 19.921875 -12.34375 
Q 23.78125 -13.375 27.78125 -13.375 
Q 36.625 -13.375 41.015625 -8.765625 
Q 45.40625 -4.15625 45.40625 5.171875 
L 45.40625 9.625 
Q 42.625 4.78125 38.28125 2.390625 
Q 33.9375 0 27.875 0 
Q 17.828125 0 11.671875 7.65625 
Q 5.515625 15.328125 5.515625 27.984375 
Q 5.515625 40.671875 11.671875 48.328125 
Q 17.828125 56 27.875 56 
Q 33.9375 56 38.28125 53.609375 
Q 42.625 51.21875 45.40625 46.390625 
L 45.40625 54.6875 
L 54.390625 54.6875 
z
" id="DejaVuSans-67"/>
     <path d="M 8.5 21.578125 
L 8.5 54.6875 
L 17.484375 54.6875 
L 17.484375 21.921875 
Q 17.484375 14.15625 20.5 10.265625 
Q 23.53125 6.390625 29.59375 6.390625 
Q 36.859375 6.390625 41.078125 11.03125 
Q 45.3125 15.671875 45.3125 23.6875 
L 45.3125 54.6875 
L 54.296875 54.6875 
L 54.296875 0 
L 45.3125 0 
L 45.3125 8.40625 
Q 42.046875 3.421875 37.71875 1 
Q 33.40625 -1.421875 27.6875 -1.421875 
Q 18.265625 -1.421875 13.375 4.4375 
Q 8.5 10.296875 8.5 21.578125 
z
M 31.109375 56 
z
" id="DejaVuSans-75"/>
     <path d="M 2.984375 54.6875 
L 12.5 54.6875 
L 29.59375 8.796875 
L 46.6875 54.6875 
L 56.203125 54.6875 
L 35.6875 0 
L 23.484375 0 
z
" id="DejaVuSans-76"/>
     <path d="M 9.421875 54.6875 
L 18.40625 54.6875 
L 18.40625 0 
L 9.421875 0 
z
M 9.421875 75.984375 
L 18.40625 75.984375 
L 18.40625 64.59375 
L 9.421875 64.59375 
z
" id="DejaVuSans-69"/>
     <path d="M 4.203125 54.6875 
L 13.1875 54.6875 
L 24.421875 12.015625 
L 35.59375 54.6875 
L 46.1875 54.6875 
L 57.421875 12.015625 
L 68.609375 54.6875 
L 77.59375 54.6875 
L 63.28125 0 
L 52.6875 0 
L 40.921875 44.828125 
L 29.109375 0 
L 18.5 0 
z
" id="DejaVuSans-77"/>
     <path d="M 48.78125 52.59375 
L 48.78125 44.1875 
Q 44.96875 46.296875 41.140625 47.34375 
Q 37.3125 48.390625 33.40625 48.390625 
Q 24.65625 48.390625 19.8125 42.84375 
Q 14.984375 37.3125 14.984375 27.296875 
Q 14.984375 17.28125 19.8125 11.734375 
Q 24.65625 6.203125 33.40625 6.203125 
Q 37.3125 6.203125 41.140625 7.25 
Q 44.96875 8.296875 48.78125 10.40625 
L 48.78125 2.09375 
Q 45.015625 0.34375 40.984375 -0.53125 
Q 36.96875 -1.421875 32.421875 -1.421875 
Q 20.0625 -1.421875 12.78125 6.34375 
Q 5.515625 14.109375 5.515625 27.296875 
Q 5.515625 40.671875 12.859375 48.328125 
Q 20.21875 56 33.015625 56 
Q 37.15625 56 41.109375 55.140625 
Q 45.0625 54.296875 48.78125 52.59375 
z
" id="DejaVuSans-63"/>
     <path d="M 30.609375 48.390625 
Q 23.390625 48.390625 19.1875 42.75 
Q 14.984375 37.109375 14.984375 27.296875 
Q 14.984375 17.484375 19.15625 11.84375 
Q 23.34375 6.203125 30.609375 6.203125 
Q 37.796875 6.203125 41.984375 11.859375 
Q 46.1875 17.53125 46.1875 27.296875 
Q 46.1875 37.015625 41.984375 42.703125 
Q 37.796875 48.390625 30.609375 48.390625 
z
M 30.609375 56 
Q 42.328125 56 49.015625 48.375 
Q 55.71875 40.765625 55.71875 27.296875 
Q 55.71875 13.875 49.015625 6.21875 
Q 42.328125 -1.421875 30.609375 -1.421875 
Q 18.84375 -1.421875 12.171875 6.21875 
Q 5.515625 13.875 5.515625 27.296875 
Q 5.515625 40.765625 12.171875 48.375 
Q 18.84375 56 30.609375 56 
z
" id="DejaVuSans-6f"/>
     <path d="M 52 44.1875 
Q 55.375 50.25 60.0625 53.125 
Q 64.75 56 71.09375 56 
Q 79.640625 56 84.28125 50.015625 
Q 88.921875 44.046875 88.921875 33.015625 
L 88.921875 0 
L 79.890625 0 
L 79.890625 32.71875 
Q 79.890625 40.578125 77.09375 44.375 
Q 74.3125 48.1875 68.609375 48.1875 
Q 61.625 48.1875 57.5625 43.546875 
Q 53.515625 38.921875 53.515625 30.90625 
L 53.515625 0 
L 44.484375 0 
L 44.484375 32.71875 
Q 44.484375 40.625 41.703125 44.40625 
Q 38.921875 48.1875 33.109375 48.1875 
Q 26.21875 48.1875 22.15625 43.53125 
Q 18.109375 38.875 18.109375 30.90625 
L 18.109375 0 
L 9.078125 0 
L 9.078125 54.6875 
L 18.109375 54.6875 
L 18.109375 46.1875 
Q 21.1875 51.21875 25.484375 53.609375 
Q 29.78125 56 35.6875 56 
Q 41.65625 56 45.828125 52.96875 
Q 50 49.953125 52 44.1875 
z
" id="DejaVuSans-6d"/>
     <path d="M 18.109375 8.203125 
L 18.109375 -20.796875 
L 9.078125 -20.796875 
L 9.078125 54.6875 
L 18.109375 54.6875 
L 18.109375 46.390625 
Q 20.953125 51.265625 25.265625 53.625 
Q 29.59375 56 35.59375 56 
Q 45.5625 56 51.78125 48.09375 
Q 58.015625 40.1875 58.015625 27.296875 
Q 58.015625 14.40625 51.78125 6.484375 
Q 45.5625 -1.421875 35.59375 -1.421875 
Q 29.59375 -1.421875 25.265625 0.953125 
Q 20.953125 3.328125 18.109375 8.203125 
z
M 48.6875 27.296875 
Q 48.6875 37.203125 44.609375 42.84375 
Q 40.53125 48.484375 33.40625 48.484375 
Q 26.265625 48.484375 22.1875 42.84375 
Q 18.109375 37.203125 18.109375 27.296875 
Q 18.109375 17.390625 22.1875 11.75 
Q 26.265625 6.109375 33.40625 6.109375 
Q 40.53125 6.109375 44.609375 11.75 
Q 48.6875 17.390625 48.6875 27.296875 
z
" id="DejaVuSans-70"/>
     <path d="M 45.40625 46.390625 
L 45.40625 75.984375 
L 54.390625 75.984375 
L 54.390625 0 
L 45.40625 0 
L 45.40625 8.203125 
Q 42.578125 3.328125 38.25 0.953125 
Q 33.9375 -1.421875 27.875 -1.421875 
Q 17.96875 -1.421875 11.734375 6.484375 
Q 5.515625 14.40625 5.515625 27.296875 
Q 5.515625 40.1875 11.734375 48.09375 
Q 17.96875 56 27.875 56 
Q 33.9375 56 38.25 53.625 
Q 42.578125 51.265625 45.40625 46.390625 
z
M 14.796875 27.296875 
Q 14.796875 17.390625 18.875 11.75 
Q 22.953125 6.109375 30.078125 6.109375 
Q 37.203125 6.109375 41.296875 11.75 
Q 45.40625 17.390625 45.40625 27.296875 
Q 45.40625 37.203125 41.296875 42.84375 
Q 37.203125 48.484375 30.078125 48.484375 
Q 22.953125 48.484375 18.875 42.84375 
Q 14.796875 37.203125 14.796875 27.296875 
z
" id="DejaVuSans-64"/>
    </defs>
    <g transform="translate(293.13275 27.259875)scale(0.264 -0.264)">
     <use xlink:href="#DejaVuSans-52"/>
     <use x="69.419922" xlink:href="#DejaVuSans-65"/>
     <use x="130.943359" xlink:href="#DejaVuSans-67"/>
     <use x="194.419922" xlink:href="#DejaVuSans-75"/>
     <use x="257.798828" xlink:href="#DejaVuSans-6c"/>
     <use x="285.582031" xlink:href="#DejaVuSans-61"/>
     <use x="346.861328" xlink:href="#DejaVuSans-72"/>
     <use x="387.974609" xlink:href="#DejaVuSans-20"/>
     <use x="419.761719" xlink:href="#DejaVuSans-75"/>
     <use x="483.140625" xlink:href="#DejaVuSans-73"/>
     <use x="535.240234" xlink:href="#DejaVuSans-65"/>
     <use x="596.763672" xlink:href="#DejaVuSans-72"/>
     <use x="637.876953" xlink:href="#DejaVuSans-20"/>
     <use x="669.664062" xlink:href="#DejaVuSans-72"/>
     <use x="710.746094" xlink:href="#DejaVuSans-65"/>
     <use x="772.269531" xlink:href="#DejaVuSans-76"/>
     <use x="831.449219" xlink:href="#DejaVuSans-69"/>
     <use x="859.232422" xlink:href="#DejaVuSans-65"/>
     <use x="920.755859" xlink:href="#DejaVuSans-77"/>
     <use x="1002.542969" xlink:href="#DejaVuSans-73"/>
     <use x="1054.642578" xlink:href="#DejaVuSans-20"/>
     <use x="1086.429688" xlink:href="#DejaVuSans-63"/>
     <use x="1141.410156" xlink:href="#DejaVuSans-6f"/>
     <use x="1202.591797" xlink:href="#DejaVuSans-6d"/>
     <use x="1300.003906" xlink:href="#DejaVuSans-70"/>
     <use x="1363.480469" xlink:href="#DejaVuSans-61"/>
     <use x="1424.759766" xlink:href="#DejaVuSans-72"/>
     <use x="1465.841797" xlink:href="#DejaVuSans-65"/>
     <use x="1527.365234" xlink:href="#DejaVuSans-64"/>
     <use x="1590.841797" xlink:href="#DejaVuSans-20"/>
     <use x="1622.628906" xlink:href="#DejaVuSans-74"/>
     <use x="1661.837891" xlink:href="#DejaVuSans-6f"/>
     <use x="1723.019531" xlink:href="#DejaVuSans-20"/>
     <use x="1754.806641" xlink:href="#DejaVuSans-61"/>
     <use x="1816.085938" xlink:href="#DejaVuSans-6c"/>
     <use x="1843.869141" xlink:href="#DejaVuSans-6c"/>
     <use x="1871.652344" xlink:href="#DejaVuSans-20"/>
     <use x="1903.439453" xlink:href="#DejaVuSans-75"/>
     <use x="1966.818359" xlink:href="#DejaVuSans-73"/>
     <use x="2018.917969" xlink:href="#DejaVuSans-65"/>
     <use x="2080.441406" xlink:href="#DejaVuSans-72"/>
     <use x="2121.554688" xlink:href="#DejaVuSans-20"/>
     <use x="2153.341797" xlink:href="#DejaVuSans-72"/>
     <use x="2194.423828" xlink:href="#DejaVuSans-65"/>
     <use x="2255.947266" xlink:href="#DejaVuSans-76"/>
     <use x="2315.126953" xlink:href="#DejaVuSans-69"/>
     <use x="2342.910156" xlink:href="#DejaVuSans-65"/>
     <use x="2404.433594" xlink:href="#DejaVuSans-77"/>
     <use x="2486.220703" xlink:href="#DejaVuSans-73"/>
    </g>
   </g>
  </g>
 </g>
 <defs>
  <clipPath id="p5e2324a455">
   <rect height="271.8" width="1116" x="70.19" y="33.259875"/>
  </clipPath>
 </defs>
</svg>
